<?xml version="1.0" standalone="no"?>
<!DOCTYPE svg PUBLIC "-//W3C//DTD SVG 1.1//EN" "http://www.w3.org/Graphics/SVG/1.1/DTD/svg11.dtd" >
<svg xmlns="http://www.w3.org/2000/svg" xmlns:xlink="http://www.w3.org/1999/xlink" version="1.1">
<metadata></metadata>
<defs>
<font id="baskervvilleitalic" horiz-adv-x="1091" >
<font-face units-per-em="2048" ascent="1454" descent="-594" />
<missing-glyph horiz-adv-x="512" />
<glyph unicode="&#xfb01;" horiz-adv-x="1198" d="M-430 -442q0 40 28.5 67t71.5 27q33 0 54 -20.5t30.5 -50t17.5 -59.5t22.5 -50.5t39.5 -20.5q96 0 193 289l368 1112h-166l15 49h168l69 207q69 212 175 293.5t280 81.5q79 0 139.5 -13.5t93 -32.5t53 -44.5t26 -45.5t5.5 -40q0 -46 -33 -80.5t-87 -34.5q-45 0 -71 28.5 t-26 75.5q0 79 -27.5 110.5t-88.5 31.5q-80 0 -152 -63t-111 -185l-96 -289h240l332 6l-259 -733q-20 -68 -20 -94q0 -41 33 -41q40 0 83 42t74 97l37 -24q-109 -183 -250 -183q-114 0 -114 113q0 56 31 147l178 480q16 46 16 71q0 24 -9.5 38.5t-30.5 21t-40 8.5t-51 2 h-266l-371 -1112q-65 -193 -150.5 -263.5t-226.5 -70.5q-118 0 -172.5 43t-54.5 109z" />
<glyph unicode="&#xfb02;" horiz-adv-x="1249" d="M-432 -453q0 41 28.5 69t71.5 28q33 0 54 -20t30.5 -48t17.5 -56.5t22.5 -48.5t39.5 -20q99 0 193 281l370 1120h-178l14 49h181l55 164q37 113 75.5 186t95.5 128t136.5 79.5t190.5 24.5q123 0 216.5 -36t137.5 -101l-393 -1205q-15 -51 -15 -63q0 -39 33 -39 q42 0 86 41.5t74 97.5l37 -24q-55 -89 -116 -136t-140 -47q-48 0 -79.5 30.5t-31.5 86.5q0 38 23 105l368 1128q-78 111 -213 111q-59 0 -109.5 -24t-86 -60t-67 -92.5t-51 -106.5t-40.5 -117l-43 -131h223l-14 -49h-225l-367 -1120q-33 -99 -70.5 -163.5t-85 -100t-99 -49 t-122.5 -13.5q-117 0 -172 41t-55 100z" />
<glyph horiz-adv-x="0" />
<glyph horiz-adv-x="682" />
<glyph unicode=" "  horiz-adv-x="512" />
<glyph unicode="&#x09;" horiz-adv-x="512" />
<glyph unicode="&#xa0;" horiz-adv-x="512" />
<glyph unicode="!" horiz-adv-x="563" d="M63 100q0 48 35 83.5t88 35.5q49 0 84 -35.5t35 -83.5q0 -51 -35 -87t-84 -36q-53 0 -88 35.5t-35 87.5zM242 426l211 926q27 123 133 123q35 0 61.5 -25t26.5 -68q0 -30 -15 -67l-360 -907z" />
<glyph unicode="&#x22;" horiz-adv-x="669" d="M408 1047l43 280q24 148 98 148q49 0 49 -62q0 -42 -20 -86l-123 -289zM659 1047l43 280q24 148 99 148q49 0 49 -62q0 -39 -21 -86l-122 -289z" />
<glyph unicode="#" horiz-adv-x="1447" d="M115 485l18 64h359l106 366h-362l18 66h362l138 473h73l-137 -473h402l137 473h76l-138 -473h394l-19 -66h-393l-107 -366h396l-19 -64h-395l-139 -485h-76l139 485h-401l-139 -485h-76l141 485h-358zM565 549h402l106 366h-401z" />
<glyph unicode="$" horiz-adv-x="1206" d="M45 39l90 266l64 250l55 -4l-6 -82v-59q5 -135 55.5 -225.5t142.5 -127.5l209 648l-53 51q-11 11 -42.5 40.5t-46.5 45t-41.5 44.5t-40.5 52t-30 54t-23 64t-7 68q0 155 115.5 253t299.5 98q53 0 115 -15l78 240h51l-82 -254q45 -17 88.5 -45t70 -46t40.5 -18q33 0 55 84 l55 -2l-55 -229l-35 -227l-53 2v61q-7 294 -182 369l-182 -559l73 -72q110 -105 164.5 -197t54.5 -184q0 -172 -124 -289t-318 -117q-65 0 -125 13l-74 -226h-51l78 238q-54 16 -104.5 45t-82.5 48.5t-53 19.5q-19 0 -37.5 -19t-27 -36t-25.5 -52zM492 43q36 -8 83 -8 q132 0 214.5 80.5t82.5 199.5q0 109 -40.5 185t-135.5 166l-2 2zM543 1161q0 -46 12 -85.5t39 -77t50.5 -61.5t66.5 -65l174 537q-31 8 -76 8q-110 0 -188 -71t-78 -185z" />
<glyph unicode="%" horiz-adv-x="1677" d="M125 0l1397 1178h112l-1396 -1178h-113zM242 823q0 91 57.5 179t152.5 143t197 55q105 0 162 -50t57 -134q0 -95 -58 -184.5t-153.5 -144t-197.5 -54.5q-104 0 -160.5 50.5t-56.5 139.5zM358 805q0 -117 111 -117q76 0 143 58.5t102.5 136.5t35.5 145q0 117 -117 117 q-56 0 -109 -35t-88.5 -87t-56.5 -110.5t-21 -107.5zM909 162q0 91 58 179t153 143t197 55q105 0 162 -50.5t57 -134.5q0 -95 -58.5 -184.5t-154 -144t-197.5 -54.5q-104 0 -160.5 51t-56.5 140zM1026 143q0 -116 111 -116q58 0 111.5 35t89.5 87t57.5 110.5t21.5 107.5 q0 116 -117 116q-74 0 -139.5 -58.5t-100 -136.5t-34.5 -145z" />
<glyph unicode="&#x26;" horiz-adv-x="1624" d="M68 332q0 84 29.5 158.5t75.5 129.5t113.5 104t132.5 82t144 64q-37 113 -37 203q0 178 122.5 294t297.5 116q104 0 167 -52.5t63 -121.5q0 -66 -41 -132.5t-110 -122.5t-130.5 -94.5t-130.5 -74.5q46 -111 135 -271q60 -110 98 -170q24 35 68 109q89 148 174.5 222.5 t200.5 74.5q56 0 96 -16t58.5 -42t26 -49t7.5 -47q0 -51 -29.5 -89t-82.5 -38q-38 0 -61 28.5t-23 74.5v23v21.5t-0.5 18t-1.5 16t-3 12t-5.5 10.5t-8.5 7t-11.5 5t-15.5 1q-64 0 -132.5 -70.5t-147.5 -203.5l-74 -119q95 -142 198 -222.5t224 -80.5q60 0 106.5 34 t108.5 116l37 -29q-93 -131 -184.5 -185.5t-206.5 -54.5q-108 0 -197 63.5t-192 205.5q-114 -149 -219 -209t-242 -60q-73 0 -141 20t-126.5 61t-94 113t-35.5 167zM252 348q0 -139 70 -225t194 -86q106 0 192.5 59t184.5 193q-67 98 -141 223q-114 173 -170 309 q-167 -89 -248.5 -204t-81.5 -269zM713 1085q0 -57 30 -149q161 78 265 175.5t104 197.5q0 46 -37 77t-94 31q-120 0 -194 -95.5t-74 -236.5z" />
<glyph unicode="'" horiz-adv-x="382" d="M408 1047l43 280q24 148 98 148q49 0 49 -62q0 -42 -20 -86l-123 -289z" />
<glyph unicode="(" horiz-adv-x="690" d="M86 223q0 160 57 335t147 326t204.5 293.5t225 248t212.5 180.5h86q-159 -121 -300.5 -281t-252.5 -344t-176.5 -392.5t-65.5 -406.5q0 -80 8.5 -155.5t26.5 -144t26 -95.5t25 -78h-47q-58 68 -117 220t-59 294z" />
<glyph unicode=")" horiz-adv-x="690" d="M-201 -291q159 121 300.5 281t252.5 344t176.5 392.5t65.5 406.5q0 80 -8.5 155.5t-26.5 144t-26 95.5t-25 78h47q58 -68 117 -220t59 -294q0 -160 -57 -335t-147 -326t-204.5 -293.5t-225 -248t-212.5 -180.5h-86z" />
<glyph unicode="*" horiz-adv-x="1064" d="M360 887q0 39 62 78q28 16 127.5 36.5t159.5 53.5q-56 40 -153.5 69t-123.5 47q-55 38 -55 78q0 23 18 47q24 35 62 35q30 0 69 -28q23 -17 53.5 -56.5t68.5 -84t81 -75.5q0 69 -31.5 165t-31.5 128q0 103 82 103q38 0 58.5 -28t20.5 -75q0 -32 -29.5 -128t-29.5 -165 q43 31 81.5 75.5t69 84t52.5 56.5q39 28 69 28q38 0 62 -35q18 -24 18 -47q0 -40 -55 -78q-26 -18 -123.5 -47t-153.5 -69q60 -33 160 -53.5t127 -36.5q62 -37 62 -76q0 -20 -15 -47q-22 -39 -63 -39q-31 0 -64 20q-27 16 -97 89.5t-130 107.5q0 -69 27.5 -165t27.5 -128 q0 -46 -21 -74t-59 -28q-81 0 -81 102q0 32 33.5 128t33.5 165q-60 -34 -130 -107.5t-97 -89.5q-33 -20 -64 -20q-43 0 -63 39q-15 30 -15 45z" />
<glyph unicode="+" horiz-adv-x="1138" d="M182 614l27 74h412l143 395h74l-144 -395h408l-27 -74h-407l-146 -397h-73l145 397h-412z" />
<glyph unicode="," horiz-adv-x="598" d="M-139 -309q48 10 88.5 22.5t85.5 33t79 45.5t63.5 62.5t45.5 82.5q15 47 15 90q0 46 -21 67l-6 -8q4 -8 4 -20q3 -43 -22 -73t-72 -30q-51 0 -85 38.5t-34 92.5q0 52 35.5 88.5t91.5 36.5q64 0 114 -51.5t54 -126.5q7 -97 -43.5 -183t-142.5 -141q-96 -59 -240 -84z" />
<glyph unicode="-" horiz-adv-x="794" d="M109 401l24 74h547l-25 -74h-546z" />
<glyph unicode="." horiz-adv-x="501" d="M2 100q0 48 35 83.5t88 35.5q49 0 84 -35.5t35 -83.5q0 -51 -35 -87t-84 -36q-53 0 -88 35.5t-35 87.5z" />
<glyph unicode="/" horiz-adv-x="526" d="M-264 -276l1175 1984h72l-1176 -1984h-71z" />
<glyph unicode="0" horiz-adv-x="1003" d="M86 268q0 118 52.5 243.5t136 224t196.5 162t225 63.5q144 0 214.5 -78.5t70.5 -210.5q0 -120 -50.5 -245.5t-132.5 -224.5t-193.5 -162t-225.5 -63q-144 0 -218.5 81t-74.5 210zM233 223q0 -92 44 -143t124 -51q87 0 169 65.5t139 166.5t91 223t34 235q0 190 -156 190 q-90 0 -175 -69.5t-142.5 -173.5t-92.5 -223t-35 -220z" />
<glyph unicode="1" horiz-adv-x="626" d="M-84 -6l16 47l35 4q55 6 78.5 11.5t51.5 26.5t46.5 58t44.5 107l162 442q23 67 23 96q0 46 -32 60t-101 14l22 62q82 0 179.5 13.5t154.5 37.5l-264 -725q-37 -101 -37 -139q0 -34 24 -45.5t87 -18.5l30 -4l-16 -47l-250 6z" />
<glyph unicode="2" horiz-adv-x="874" d="M-10 0l14 41l172 125q61 44 95 69t92.5 71.5t93 79t78 79.5t67 85.5t40.5 85t17 89.5q0 88 -42.5 130t-114.5 42q-62 0 -116.5 -29t-89.5 -73.5t-55 -95.5t-20 -97q0 -42 16.5 -71t41.5 -39l-37 -46q-38 22 -60 63t-22 91q0 67 28 131.5t77.5 115.5t124.5 82.5t163 31.5 q123 0 197.5 -62.5t74.5 -167.5q0 -36 -11.5 -72.5t-28.5 -68t-47.5 -66.5t-57 -61.5t-69 -60t-72.5 -55t-77.5 -52t-74 -46.5t-72.5 -44l-122 -74l417 31l-67 -142l-70 -200h-47l8 33q15 66 15 84q0 37 -34 50t-130 13h-295z" />
<glyph unicode="3" horiz-adv-x="872" d="M-326 -369q0 55 30.5 92t86.5 37q30 0 58 -22t28 -70q0 -36 -31.5 -70.5t-31.5 -60.5q0 -30 41 -57t106 -27q78 0 155 38.5t135.5 101t104.5 137t70.5 149.5t24.5 137q0 172 -146 172q-60 0 -147 -38v53q55 21 106 51q66 37 116 69t109.5 80t98 94.5t64.5 107t26 124.5 q0 75 -45 121.5t-131 46.5q-119 0 -202 -91t-83 -198q0 -47 21.5 -79.5t52.5 -45.5l-35 -47q-47 24 -73.5 69t-26.5 95q0 147 115 254t284 107q142 0 215.5 -65.5t73.5 -166.5q0 -118 -100 -227.5t-269 -188.5l-158 -71q24 4 66 4q105 0 165 -65t60 -165q0 -115 -56 -229 t-145.5 -199t-208 -137.5t-237.5 -52.5q-54 0 -103 13t-91.5 40t-67.5 73.5t-25 106.5z" />
<glyph unicode="4" horiz-adv-x="1048" d="M25 434l22 60l1026 901h45l-325 -893h229l-25 -68h-229l-68 -186q-36 -98 -36 -139q0 -34 24 -45.5t86 -18.5l31 -4l-17 -47l-249 6l-254 -4l18 47l33 2q38 4 55 7t41 11t36 19.5t29 34t30.5 53.5t31.5 78l70 186h-604zM133 502h520l252 676z" />
<glyph unicode="5" horiz-adv-x="927" d="M-43 199q0 58 33 91.5t80 33.5q45 0 68.5 -25t23.5 -53q0 -32 -16 -52.5t-32 -38.5t-16 -44q0 -36 33 -61t90 -25q91 0 179 65.5t149.5 164.5t99 215.5t37.5 217.5q0 90 -37.5 132t-97.5 42q-65 0 -128 -39t-112 -98h-39l324 741h53l-24 -55l80 -2h63q206 0 285 37h20 l-8 -21q-19 -53 -57.5 -87.5t-98.5 -50.5t-121 -21.5t-151 -5.5h-74l-180 -408q110 78 225 78q112 0 178 -69t66 -204q0 -112 -53 -234.5t-138 -222t-204.5 -164.5t-241.5 -65q-111 0 -184.5 62t-73.5 166z" />
<glyph unicode="6" horiz-adv-x="1054" d="M111 262q0 138 71 367q77 247 201 439t284.5 303.5t329.5 111.5q47 0 87.5 -10.5t72 -39.5t31.5 -73q0 -45 -30.5 -79t-78.5 -34q-44 0 -67 24t-23 64q0 44 -19 64t-59 20q-60 0 -130.5 -46.5t-146.5 -138.5t-154 -248t-142 -355q168 252 375 252q107 0 178.5 -64.5 t71.5 -193.5q0 -112 -49.5 -230.5t-128.5 -211.5t-185 -152.5t-211 -59.5q-131 0 -204.5 76.5t-73.5 214.5zM252 188q0 -79 41 -122t106 -43q64 0 126 41.5t110 109t85 150t57 168t20 159.5q0 174 -129 174q-97 0 -196 -108t-159.5 -257t-60.5 -272z" />
<glyph unicode="7" horiz-adv-x="958" d="M-96 -555q0 64 71 152l895 1157h-643l-75 -205h-46l175 475h45l-37 -102h731l-12 -33l-889 -1362q-87 -129 -168 -129q-47 0 -47 47z" />
<glyph unicode="8" horiz-adv-x="1005" d="M55 258q0 82 32.5 154.5t96.5 136t146.5 118.5t195.5 111q-44 63 -71.5 108.5t-52.5 111.5t-25 122q0 154 133.5 257.5t331.5 103.5q120 0 196 -63t76 -161q0 -141 -113 -256t-294 -198q39 -48 56.5 -70.5t51 -71.5t50 -83.5t30.5 -81.5t14 -90q0 -116 -76 -217 t-198.5 -159.5t-257.5 -58.5q-145 0 -233.5 82t-88.5 205zM121 274q0 -113 68.5 -176t193.5 -63q173 0 266.5 99.5t93.5 254.5q0 28 -3.5 53t-16 52.5t-19.5 44t-31 49t-32 43.5t-41 51.5t-41 50.5q-215 -106 -326.5 -215t-111.5 -244zM541 1135q0 -66 30 -126.5t99 -158.5 q79 34 144.5 74t119.5 89.5t84.5 108.5t30.5 121q0 79 -56.5 125.5t-148.5 46.5q-141 0 -222 -81t-81 -199z" />
<glyph unicode="9" horiz-adv-x="1046" d="M12 86q0 45 30.5 79t78.5 34q44 0 67 -24t23 -64q0 -44 19 -64t59 -20q60 0 130.5 46.5t146.5 138.5t154 248t142 355q-168 -252 -375 -252q-107 0 -178 64.5t-71 193.5q0 150 82 302.5t216.5 252t274.5 99.5q131 0 205 -76.5t74 -214.5q0 -135 -72 -367 q-77 -247 -201 -439t-284.5 -303.5t-329.5 -111.5q-47 0 -87.5 10.5t-72 39.5t-31.5 73zM403 795q0 -174 129 -174q73 0 150 65t134.5 160.5t94.5 207.5t37 203q0 79 -41 122.5t-106 43.5q-64 0 -126 -41.5t-110 -109t-85 -150t-57 -168t-20 -159.5z" />
<glyph unicode=":" horiz-adv-x="559" d="M59 100q0 48 35 83.5t88 35.5q49 0 84 -35.5t35 -83.5q0 -51 -35 -87t-84 -36q-53 0 -88 35.5t-35 87.5zM246 766q0 48 35 83.5t88 35.5q49 0 83.5 -35.5t34.5 -83.5q0 -51 -34.5 -87t-83.5 -36q-53 0 -88 35.5t-35 87.5z" />
<glyph unicode=";" horiz-adv-x="622" d="M-115 -309q61 13 111.5 30t102.5 45t90.5 71.5t58.5 99.5q14 44 14 90q0 47 -20 67l-6 -8q4 -8 4 -20q3 -43 -22 -73t-73 -30q-51 0 -84.5 38.5t-33.5 92.5q0 52 35.5 88.5t91.5 36.5q64 0 114 -51.5t54 -126.5q7 -97 -44 -182.5t-143 -141.5q-96 -59 -239 -84zM244 764 q0 48 35 83.5t88 35.5q49 0 83.5 -35.5t34.5 -83.5q0 -51 -34.5 -87t-83.5 -36q-53 0 -88 35.5t-35 87.5z" />
<glyph unicode="&#x3c;" horiz-adv-x="1007" d="M143 645l17 43l805 320l-13 -84l-673 -267l501 -270l-16 -76z" />
<glyph unicode="=" horiz-adv-x="1159" d="M129 463l31 72h909l-31 -72h-909zM227 731l29 72h909l-28 -72h-910z" />
<glyph unicode="&#x3e;" horiz-adv-x="1028" d="M145 311l13 84l673 267l-501 270l16 76l621 -334l-17 -43z" />
<glyph unicode="?" horiz-adv-x="942" d="M145 100q0 48 35 83.5t88 35.5q49 0 84 -35.5t35 -83.5q0 -51 -35 -87t-84 -36q-53 0 -88 35.5t-35 87.5zM227 424q0 18 6 39l136 485l45 2v-32q2 -69 40 -107.5t109 -38.5q94 0 180.5 85t134.5 199.5t48 213.5q0 75 -41 113t-113 38q-78 0 -115.5 -29t-35.5 -85 q3 -59 -26.5 -88t-76.5 -29q-39 0 -63.5 21.5t-24.5 58.5q0 60 51.5 108t129 72.5t161.5 24.5q130 0 215.5 -67.5t85.5 -184.5q0 -124 -72.5 -241.5t-191 -191t-244.5 -73.5q-106 0 -164 65l-24 -338q-3 -43 -26.5 -67.5t-57.5 -24.5q-32 0 -49 20t-17 52z" />
<glyph unicode="@" horiz-adv-x="1726" d="M123 420q0 150 46 283t128 233t191.5 173t239.5 110.5t269 37.5q283 0 460 -160t177 -435q0 -86 -19.5 -165.5t-59.5 -148t-96.5 -119t-135.5 -79.5t-172 -29q-180 0 -180 125q0 11 4 35q-115 -160 -254 -160q-77 0 -131.5 40.5t-77.5 98t-23 123.5q0 100 50 197t126 165 t166 110t170 42q66 0 106 -38.5t46 -113.5l51 129h133l-196 -522q-17 -44 -17 -84q0 -41 21 -64.5t59 -23.5q63 0 128.5 36t119 97.5t87.5 153.5t34 195q0 245 -156.5 389.5t-421.5 144.5q-116 0 -226.5 -33.5t-206.5 -100.5t-168.5 -159.5t-114 -218t-41.5 -268.5 q0 -135 42 -250.5t120.5 -201t198.5 -134.5t269 -49q197 0 373 72l23 -52q-78 -39 -189 -62.5t-223 -23.5q-211 0 -375.5 83.5t-259 244.5t-94.5 377zM637 322q0 -150 106 -150q58 0 122.5 57.5t113 133t82.5 157.5q45 106 45 191q0 61 -26.5 98t-78.5 37q-88 0 -173 -75 t-138 -197.5t-53 -251.5z" />
<glyph unicode="A" horiz-adv-x="1355" d="M-143 -6l16 51l43 4q41 4 76 17t58.5 27.5t48 40.5t38 44.5t35.5 50.5l868 1254l45 -29v-1221q0 -50 3.5 -75.5t18 -51.5t46.5 -38.5t86 -18.5l39 -4l-16 -51l-297 6l-297 -6l16 51l43 4q50 5 82 14t58.5 29.5t38.5 56t12 89.5v290h-469l-209 -301q-45 -65 -45 -104 q0 -62 133 -74l39 -4l-17 -51l-241 6zM485 582h433v626z" />
<glyph unicode="B" horiz-adv-x="1361" d="M-47 -6l16 51l43 4q108 9 159 54.5t87 150.5l334 1008q14 51 14 67q0 36 -33 52t-118 24l-39 4l16 51l297 -6l127 2h22q466 0 476 -297v-7q0 -127 -101 -228q-110 -107 -313 -146q156 -30 241 -110.5t85 -210.5q0 -154 -119 -273q-184 -184 -580 -184h-309zM393 147 q0 -52 39 -73t119 -21q154 0 278 54t194.5 152t70.5 222q0 151 -82.5 216t-243.5 65h-182l-180 -545q-13 -39 -13 -70zM602 813h189q179 -1 287 97q102 92 102 244v17q-6 232 -348 232h-17h-18z" />
<glyph unicode="C" horiz-adv-x="1433" d="M174 467q0 122 31.5 246t87.5 236t137.5 210.5t178 170t213.5 112.5t239 41q82 0 153 -19.5t109.5 -43t71.5 -43t49 -19.5q28 0 76 69h53l-78 -210l-72 -224h-53q8 49 8 103q0 157 -82 241t-219 84q-106 0 -213 -50t-197 -138.5t-160.5 -202t-110.5 -249.5t-40 -271 q0 -217 89 -343t251 -126q158 0 326 139t244 326h53l-102 -289l-58 -217h-53q4 32 4 47q0 43 -29 43q-12 0 -67 -28t-148.5 -56.5t-199.5 -28.5q-77 0 -147.5 17.5t-133.5 56t-109.5 94.5t-74 138.5t-27.5 183.5z" />
<glyph unicode="D" horiz-adv-x="1615" d="M-100 -6l18 51l43 4q118 10 160.5 34.5t68.5 96.5l394 1084q16 46 16 69q0 33 -32 48.5t-115 23.5l-39 4l18 51l301 -6h2l168 6q25 1 50 1q187 0 331 -54q164 -61 255 -186t91 -299q0 -148 -49 -285t-139 -248q-145 -182 -372 -285.5t-486 -103.5h-379zM362 158 q0 -30 11.5 -51.5t25 -31.5t39 -15.5t39 -6t39.5 -0.5h70q147 0 282 48t238.5 133t181 195t118 238.5t40.5 260.5q0 108 -30 192.5t-96 150.5t-180 100q-102 30 -239 30h-33l-71 -2l-410 -1127q-25 -73 -25 -114z" />
<glyph unicode="E" horiz-adv-x="1423" d="M-47 -6l16 51l43 4q112 9 155.5 32t63.5 85l359 1098q14 51 14 67q0 35 -32.5 50.5t-116.5 23.5l-39 4l16 51l301 -6h690v-123l7 -252h-54q-11 324 -266 324h-309l-201 -608h289q37 0 61 7t52 31.5t54 74.5t56 132h53l-96 -280l-88 -297h-53q35 106 35 176q0 102 -91 102 h-288l-133 -403q-33 -101 -33 -156q0 -71 46 -103q43 -30 129 -30h11l283 2q70 1 126 17.5t98.5 45.5t80 77.5t66 104t59.5 134.5h53l-92 -278l-45 -152h-975z" />
<glyph unicode="F" horiz-adv-x="1226" d="M-41 -6l18 51l43 4q54 5 81 10.5t55.5 22t47 45t38.5 78.5l356 1087q6 21 6 39q0 35 -32.5 50.5t-116.5 23.5l-39 4l16 51l301 -6l668 -2l12 -375h-53q-7 326 -266 326h-295l-219 -670h270q37 0 61.5 7.5t52.5 32t54 74.5t55 132h53l-104 -281l-80 -297h-53 q35 106 35 177q0 102 -90 102h-273l-164 -502q-12 -34 -12 -55q0 -36 38 -48.5t159 -25.5l39 -4l-19 -51l-346 6z" />
<glyph unicode="G" horiz-adv-x="1560" d="M176 481q0 113 29.5 232t83 230t133.5 209.5t176.5 172t217 116t249.5 42.5q81 0 152 -19.5t109.5 -43t71.5 -43t48 -19.5q12 0 26 11t23 21.5t27 34.5h53l-82 -211l-72 -221h-53q8 49 8 103q0 152 -77.5 238.5t-221.5 86.5q-138 0 -272 -82.5t-231 -212t-156.5 -294 t-59.5 -324.5q0 -228 98 -351.5t263 -123.5q141 0 274 83.5t164 178.5l45 129q6 18 6 31q0 34 -26 54t-70 23l-92 9l14 53l285 -8l268 8l-14 -51l-76 -8q-49 -6 -82 -35.5t-47 -73.5l-63 -180q-7 -21 -7 -33q0 -21 9 -38.5t25 -35t18 -20.5l-52 -53q-3 3 -14 17t-16 20 t-16 17t-18.5 16t-18.5 9.5t-21 4.5q-20 0 -65.5 -28t-99 -61.5t-147.5 -61.5t-198 -28q-127 0 -225.5 39.5t-159.5 109t-92 161t-31 200.5z" />
<glyph unicode="H" horiz-adv-x="1718" d="M-47 -6l16 51l43 4q111 10 163.5 58t92.5 172l328 999q12 34 12 55q0 34 -33.5 49t-119.5 23l-39 4l16 51l305 -6l305 6l-16 -51l-43 -4q-112 -10 -164.5 -57.5t-93.5 -173.5l-131 -404h766l166 508q10 33 10 53q0 35 -33.5 50.5t-118.5 23.5l-38 4l16 51l305 -6l305 6 l-16 -51l-43 -4q-114 -11 -165 -55.5t-93 -175.5l-320 -975q-16 -50 -16 -74q0 -37 33.5 -52.5t120.5 -23.5l38 -4l-16 -51l-305 6l-305 -6l16 51l43 4q108 11 158 49.5t86 149.5l149 459h-766l-165 -510q-15 -46 -15 -74q0 -36 32 -51t118 -23l39 -4l-17 -51l-305 6z" />
<glyph unicode="I" horiz-adv-x="786" d="M-47 -6l16 51l43 4q113 11 163 55.5t93 174.5l328 999q8 27 8 53q0 36 -31.5 51t-117.5 23l-39 4l16 51l305 -6l305 6l-16 -51l-43 -4q-79 -7 -122 -27t-74.5 -66t-61.5 -138l-319 -977q-15 -58 -15 -74q0 -36 32 -51t118 -23l39 -4l-17 -51l-305 6z" />
<glyph unicode="J" horiz-adv-x="880" d="M-115 154q0 40 25.5 66t66.5 26q49 0 72.5 -31t36.5 -86q1 -4 4.5 -17.5t4.5 -17.5t4.5 -15.5t6 -15.5t7 -12.5t9 -11.5t11 -8.5t14 -7.5t17 -3.5t20.5 -1.5q29 0 54 16.5t45 45t39.5 73.5t36.5 95t39 116q17 53 26 80l266 813q15 58 15 74q0 36 -32 51t-118 23l-39 4 l16 51l306 -6l305 6l-17 -51l-43 -4q-57 -6 -92 -16t-67 -34.5t-54.5 -67t-44.5 -111.5l-284 -875q-43 -134 -69 -181q-60 -110 -181 -138q-50 -11 -113 -11q-79 0 -144 19.5t-107 62t-42 101.5z" />
<glyph unicode="K" horiz-adv-x="1476" d="M-68 -6l17 51l43 4q114 11 164 55t92 175l334 1021q8 19 8 37t-9.5 30.5t-31.5 20t-41.5 10.5t-54.5 7l-39 4l18 51l285 -6l262 6l-27 -55q-41 -5 -63 -8.5t-47.5 -12.5t-39.5 -22t-31.5 -37t-31 -56t-30.5 -81l-181 -555l705 569q94 79 94 135q0 61 -108 70l-29 2l18 51 l252 -8l234 8l-19 -51l-45 -6q-81 -11 -289 -176l-448 -365l235 -577q46 -120 106 -173t157 -67l-19 -51l-227 6l-340 -4l18 51l37 6q141 20 141 92q0 22 -14 62l-225 549l-264 -213l-113 -346q-14 -54 -14 -74q0 -36 31.5 -51t117.5 -23l39 -4l-16 -51l-305 6z" />
<glyph unicode="L" horiz-adv-x="1323" d="M-47 -6l16 51l43 4q112 9 153.5 31t63.5 84l367 1114q12 34 12 55q0 35 -33 49.5t-120 22.5l-39 4l16 51l305 -6l305 6l-16 -51l-43 -4q-59 -6 -96 -17t-67.5 -37t-51.5 -66.5t-43 -108.5l-276 -846q-41 -121 -41 -172q0 -60 45 -85.5t157 -25.5h154h4q170 1 282 95 q114 96 187 288h53l-160 -436l-890 6z" />
<glyph unicode="M" horiz-adv-x="1875" d="M-53 -6l16 51l43 4q48 5 73 9.5t51 15.5t41 31t29.5 51.5t28.5 81.5l359 1097q-50 56 -119 64l-78 10l17 51l241 -6h115l123 -1214l772 1214h96l297 6l-16 -51l-43 -4q-36 -4 -57 -7.5t-48.5 -12.5t-43.5 -23.5t-31 -40t-23 -61.5l-238 -1063q-14 -54 -14 -74 q0 -36 32 -51t118 -23l38 -4l-16 -51l-305 6l-305 -6l16 51l43 4q117 11 169.5 56t86.5 176l238 1054l-844 -1321h-61l-127 1239l-342 -1069q-11 -46 -11 -61q0 -39 31.5 -52.5t118.5 -21.5l39 -4l-17 -51l-241 6z" />
<glyph unicode="N" horiz-adv-x="1624" d="M-27 -6l19 51l43 4q52 5 83 12.5t58.5 25t45 46.5t32.5 78l340 1083q-26 55 -51.5 80t-65.5 29l-63 6l18 51l240 -6h37l544 -1204l318 1028q10 31 10 59q-1 34 -32 47t-113 21l-39 4l18 51l240 -6l252 6l-19 -51l-43 -4q-54 -5 -83 -11.5t-57.5 -23.5t-46 -47t-32.5 -80 l-389 -1243h-61l-545 1208l-324 -1042q-8 -27 -8 -49q1 -34 32 -47t113 -21l39 -4l-18 -51l-240 6z" />
<glyph unicode="O" horiz-adv-x="1593" d="M176 494q0 117 32.5 237t91 229t144.5 205t187 166.5t224 111t251 40.5q147 0 262 -60.5t182.5 -180t67.5 -281.5q0 -141 -45.5 -285t-130.5 -269t-196.5 -223.5t-254 -155.5t-291.5 -57q-109 0 -203.5 34t-166.5 98t-113 164.5t-41 226.5zM362 461q0 -202 91 -315 t254 -113q109 0 218 53t199.5 147t160.5 213t109.5 259.5t39.5 279.5q0 207 -88 322.5t-248 115.5q-137 0 -272.5 -84t-236.5 -218t-164 -310t-63 -350z" />
<glyph unicode="P" horiz-adv-x="1304" d="M-51 -6l18 51l45 4q104 11 156 54.5t88 152.5l342 1034q6 24 6 41q0 35 -32 50t-119 24l-39 4l18 51l301 -6h23l198 2h16q252 0 384 -94q136 -97 137 -268q0 -214 -182 -345t-514 -131q-53 0 -250 15l-144 -436q-14 -41 -14 -74q0 -36 34.5 -50.5t133.5 -25.5l39 -4 l-19 -49l-321 6zM563 690q169 -8 203 -8q121 0 218 26t157.5 68t101 98.5t56.5 113t16 116.5q0 140 -95.5 217.5t-252.5 77.5h-170z" />
<glyph unicode="Q" horiz-adv-x="1646" d="M-2 -240q0 61 63.5 94t169.5 33q45 0 95 -6l305 101q-185 31 -299.5 163.5t-114.5 348.5q0 117 32.5 237t91 229t144.5 205t187 166.5t224 111t251 40.5q147 0 262 -60.5t182.5 -180t67.5 -281.5q0 -141 -45.5 -285t-130.5 -269t-196.5 -223.5t-254 -155.5t-291.5 -57 h-20l-211 -69q-11 -4 -33.5 -11.5l-34.5 -11.5q252 -5 441 -194q148 -160 278 -160q71 0 130 48t81 148l41 -4q-28 -159 -93.5 -239t-178.5 -80q-55 0 -105 13t-86.5 31t-78.5 52.5t-68.5 60.5t-69.5 72q-11 11 -16 17q-83 83 -180.5 125.5t-186.5 42.5q-49 0 -69 -2 q-51 -26 -95 -64q-67 -53 -118 -53q-70 0 -70 67zM403 461q0 -202 91 -315t254 -113q109 0 218 53t199.5 147t160.5 213t109.5 259.5t39.5 279.5q0 207 -88 322.5t-248 115.5q-137 0 -272.5 -84t-236.5 -218t-164 -310t-63 -350z" />
<glyph unicode="R" horiz-adv-x="1521" d="M-41 -6l16 51l43 4q41 5 62.5 8.5t47.5 11.5t39.5 20t30.5 33t29 50.5t27 73.5l344 1048q6 21 6 37q0 33 -33.5 50t-115.5 24l-39 4l16 51l301 -6h23l157 2h16q237 0 357 -84q124 -88 125 -246q0 -103 -40.5 -179.5t-113.5 -121.5t-166.5 -66.5t-207.5 -21.5h-56 q148 -17 231 -97.5t95 -219.5l10 -160q3 -115 28.5 -165t90.5 -50t121 64l39 -35q-85 -103 -221 -103q-108 0 -178 92t-76 252l-2 105q-6 138 -106.5 223t-278.5 94l-183 -559q-14 -41 -14 -67q0 -31 27 -42.5t104 -19.5l39 -4l-16 -51l-281 6zM596 784l240 -2h4 q182 0 288 98q107 100 107 263q0 50 -15.5 93t-50.5 81t-100.5 60t-155.5 22h-116z" />
<glyph unicode="S" horiz-adv-x="1206" d="M45 39l90 266l64 250l55 -4l-6 -82v-59q6 -179 91.5 -277t235.5 -98q132 0 214.5 80.5t82.5 199.5q0 109 -40.5 185t-135.5 166l-94 90q-11 11 -42.5 40.5t-46.5 45t-41.5 44.5t-40.5 52t-30 54t-23 64t-7 68q0 155 115.5 253t299.5 98q74 0 140.5 -21.5t103.5 -47.5 t69.5 -47.5t47.5 -21.5q33 0 55 84l55 -2l-55 -229l-35 -227l-53 2v61q-2 79 -18 145.5t-49.5 123.5t-94 89.5t-143.5 32.5q-110 0 -188 -71t-78 -185q0 -47 12 -86.5t41 -78t50.5 -61t67.5 -65.5q11 -11 17 -16l92 -90q110 -105 164.5 -197t54.5 -184q0 -172 -124 -289 t-318 -117q-71 0 -133 14t-102.5 34.5t-73.5 41t-59 34.5t-44 14q-19 0 -37.5 -19t-27 -36t-25.5 -52z" />
<glyph unicode="T" horiz-adv-x="1517" d="M276 1071l148 389l670 -6l626 6l-4 -166l8 -250h-51q-6 157 -68 256.5t-178 102.5l-249 6l-387 -1180q-11 -34 -11 -61q0 -58 45.5 -86.5t132.5 -34.5l74 -6l-16 -47l-373 6h-22l-336 -6l18 47l33 4q59 8 97.5 16.5t78.5 26t66 46.5t40 71l394 1202l-262 -4 q-58 -1 -100.5 -8t-80 -26t-63.5 -39.5t-57.5 -64.5t-55 -83.5t-63.5 -112.5z" />
<glyph unicode="U" horiz-adv-x="1552" d="M281 319q0 104 45 244l223 694q14 54 14 74q0 36 -31.5 51t-117.5 23l-39 4l16 51l305 -6l305 6l-16 -51l-43 -4q-60 -6 -96 -16t-66.5 -35.5t-51 -66.5t-42.5 -111l-194 -613q-39 -125 -39 -219q0 -143 80 -225t239 -82q88 0 159.5 26.5t136 87t119 162t101.5 248.5 l232 719q10 38 10 55q0 36 -31 49t-113 21l-38 4l16 51l242 -6l252 6l-17 -51l-43 -4q-57 -5 -85.5 -10.5t-58 -21.5t-47 -44t-32.5 -76l-199 -622q-32 -101 -61 -177t-64 -147.5t-71 -122t-80.5 -93t-96.5 -68t-115 -39t-138 -13.5q-469 0 -469 348z" />
<glyph unicode="V" horiz-adv-x="1404" d="M289 1409l16 51l293 -6l299 6l-16 -51l-43 -4q-49 -5 -80.5 -12.5t-61.5 -24t-43 -45.5q-11 -24 -11 -56q0 -8 1 -16l82 -1036l698 1040q29 47 29 72q0 63 -145 78l-39 4l16 51l244 -6l250 6l-17 -51l-43 -4q-24 -2 -43.5 -5.5t-37.5 -11t-29.5 -11.5t-26.5 -17.5 t-21.5 -18.5t-21 -25t-18.5 -25.5t-21 -32t-22 -33.5l-836 -1241h-53l-103 1230q-1 11 -3 33.5t-3 31t-3.5 26t-6 24t-9 19t-13 18t-19 13.5t-25.5 12t-33 8t-42 6z" />
<glyph unicode="W" horiz-adv-x="2086" d="M289 1409l16 51l285 -6l260 6l-16 -51l-25 -4q-40 -6 -65.5 -14t-53 -23.5t-39.5 -43.5q-9 -21 -9 -50q0 -9 1 -19l88 -1001l510 897q53 96 53 149q0 82 -104 95l-78 12l8 53l56 -6q118 -14 161 -63q42 34 92 47t125 18l56 4l-2 -53l-82 -8q-78 -6 -123 -44t-45 -108 q0 -13 4 -45l125 -960l569 1013q25 48 25 76q0 35 -34.5 52t-107.5 22l-75 4l16 51l281 -6l249 6l-16 -51l-43 -4q-43 -4 -75 -14t-54 -22t-43 -36.5t-34 -46t-36 -61.5l-696 -1241h-53l-129 1020l-580 -1020h-53l-113 1230q-1 11 -3 33.5t-3 31t-3.5 26t-6 24t-9 19t-13 18 t-19 13.5t-25.5 12t-33 8t-42 6z" />
<glyph unicode="X" horiz-adv-x="1523" d="M-96 -4l18 51l43 6q95 13 254 156l584 545l-201 460q-41 94 -83.5 139t-115.5 52l-38 4l18 51l264 -6l305 6l-18 -51l-43 -4q-133 -13 -133 -113q0 -51 20 -102l156 -354l448 411q62 59 62 92q-3 50 -158 66l-39 4l19 51l262 -6l258 6l-19 -51l-43 -6q-95 -13 -254 -156 l-509 -471l208 -477q60 -137 105.5 -189t124.5 -59l39 -4l-19 -51l-258 4l-311 -4l18 51l43 4q67 7 103.5 34.5t36.5 70.5q0 24 -13 57l-209 479l-518 -479q-55 -47 -55 -88q3 -61 147 -74l39 -4l-18 -51l-248 6z" />
<glyph unicode="Y" horiz-adv-x="1357" d="M289 1409l18 51l268 -6l299 6l-18 -51l-43 -4q-70 -6 -102.5 -35.5t-32.5 -87.5q0 -31 14 -92l139 -543l455 572q53 67 53 108q0 35 -39 52.5t-120 25.5l-39 4l18 51l262 -6l258 6l-18 -51l-43 -6q-120 -16 -246 -172l-512 -643l-115 -406q-6 -21 -6 -39q0 -21 10 -36.5 t24 -24.5t43.5 -15.5t53.5 -10t68 -7.5l39 -4l-19 -51l-354 6l-297 -6l19 51l43 4q35 4 50 6t39.5 7t35.5 11.5t27.5 17.5t26.5 27t21 38.5t21 52.5l98 354l-162 651q-8 33 -12 47t-12.5 38.5t-16.5 34.5t-22.5 25t-32.5 22t-43.5 14t-58.5 10z" />
<glyph unicode="Z" horiz-adv-x="1382" d="M-33 18l1350 1385h-467q-86 0 -152.5 -18t-106.5 -39t-80 -74t-58 -86t-56 -113q-4 -8 -6 -12.5t-5.5 -11.5l-6.5 -13h-53l157 418h1071l7 -14l-1346 -1381h455q82 0 147 9.5t115.5 26t92.5 47.5t73 64.5t61.5 88t53.5 106.5t53 131h53l-76 -313l-43 -217l-1218 -2z" />
<glyph unicode="[" horiz-adv-x="571" d="M-150 -244l672 1850h377l-22 -62q-127 -6 -194.5 -21t-117.5 -53l-573 -1581q22 -34 76 -47.5t180 -25.5l-21 -60h-377z" />
<glyph unicode="\" horiz-adv-x="1247" d="M459 1708h71l453 -1984h-72z" />
<glyph unicode="]" horiz-adv-x="575" d="M-180 -242l22 62q127 6 194.5 21t117.5 53l573 1581q-22 34 -76 47.5t-180 25.5l21 60h376l-671 -1850h-377z" />
<glyph unicode="^" horiz-adv-x="1044" d="M213 713l643 741h82l115 -741h-74l-102 657l-566 -657h-98z" />
<glyph unicode="_" horiz-adv-x="1011" d="M-164 -115l27 74h930l-27 -74h-930z" />
<glyph unicode="`" horiz-adv-x="565" d="M485 1389q0 37 20 61.5t58 24.5q65 0 68 -132l6 -278h-49l-74 199q-29 82 -29 125z" />
<glyph unicode="a" d="M55 260q0 125 56.5 250t142.5 215.5t193.5 147.5t205.5 57q92 0 141.5 -58.5t57.5 -158.5l70 188h135l-256 -727q-21 -72 -21 -94q0 -41 33 -41q40 0 83.5 42t74.5 97l37 -24q-109 -183 -250 -183q-115 0 -115 113q0 41 12 88q-145 -201 -323 -201q-137 0 -207 82 t-70 207zM209 219q0 -95 38 -144.5t105 -49.5q114 0 218 109t178 294l24 72q35 100 35 188q0 87 -35.5 138t-105.5 51q-104 0 -212.5 -106.5t-176.5 -261t-68 -290.5z" />
<glyph unicode="b" horiz-adv-x="1009" d="M94 221q0 101 51 256l254 791q15 44 15 69q0 17 -4.5 29t-16.5 19.5t-21 11.5t-30 6t-31 2h-35h-16l14 49l332 6l-223 -704q38 52 90 92q102 82 209 82q118 0 189 -84t71 -232q0 -128 -49.5 -248t-129.5 -206t-184.5 -137.5t-211.5 -51.5q-132 0 -202.5 63t-70.5 187z M231 186q0 -80 37.5 -125t98.5 -45q102 0 201 101t158.5 248.5t59.5 283.5q0 114 -39 168.5t-108 54.5q-83 0 -179 -94.5t-141 -216.5l-38 -108q-50 -143 -50 -267z" />
<glyph unicode="c" horiz-adv-x="897" d="M74 317q0 162 90 305t229.5 225.5t286.5 82.5q71 0 120.5 -16t71 -42t29.5 -48.5t8 -47.5q0 -42 -24.5 -74t-67.5 -32q-38 0 -61 22.5t-23 59.5q0 10 0.5 30t0 27.5t-1.5 22t-3 20t-7 14t-12 11.5t-17.5 5.5t-24.5 2.5q-81 0 -161.5 -54.5t-140 -138.5t-96.5 -188.5 t-37 -200.5q0 -124 52 -202t159 -78t193 86q44 42 80 102l37 -27q-48 -95 -135 -154t-209 -59q-162 0 -249 94.5t-87 251.5z" />
<glyph unicode="d" horiz-adv-x="1103" d="M55 260q0 125 56.5 250t142.5 215.5t193.5 147.5t205.5 57q86 0 136 -53.5t61 -145.5l172 529q14 43 14 75q0 21 -8 34.5t-17.5 20.5t-31.5 10.5t-34.5 4t-41.5 0.5h-16l14 49l332 6l-420 -1286q-20 -68 -20 -94q0 -41 32 -41q40 0 83.5 42t74.5 97l37 -24 q-109 -183 -250 -183q-115 0 -115 113q0 48 23 119q-153 -232 -346 -232q-137 0 -207 82t-70 207zM209 219q0 -95 38 -144.5t105 -49.5q122 0 232 124t182 330q41 112 41 209q0 87 -35.5 138t-105.5 51q-104 0 -212.5 -106.5t-176.5 -261t-68 -290.5z" />
<glyph unicode="e" horiz-adv-x="856" d="M76 315q0 122 50.5 236.5t129.5 195.5t178.5 130t196.5 49q96 0 152.5 -48t56.5 -128q-3 -118 -111 -188t-303 -91l-172 -16q-25 -92 -25 -181q0 -101 45.5 -175t137.5 -74q73 0 139 47t113 112l34 -28q-132 -185 -313 -185q-79 0 -139.5 28t-97 76.5t-54.5 109 t-18 130.5zM268 498l115 16q83 12 146 37t97.5 53.5t56.5 63.5t28.5 61t7.5 51q0 105 -90 105q-99 0 -202.5 -113.5t-158.5 -273.5z" />
<glyph unicode="f" horiz-adv-x="700" d="M-430 -444q0 41 28.5 68.5t71.5 27.5q33 0 54 -20.5t30.5 -50t17.5 -59.5t22.5 -50.5t39.5 -20.5q99 0 193 289l362 1112h-178l16 49h179l73 229q63 190 167.5 271.5t246.5 81.5q105 0 159 -42t54 -102q0 -46 -23 -77t-71 -31q-84 0 -84 102q0 58 -16 81.5t-56 23.5 q-50 0 -101.5 -43t-84.5 -144l-115 -350h219l-16 -49h-219l-365 -1112q-33 -101 -71 -167t-85 -102.5t-98.5 -50.5t-122.5 -14q-117 0 -172 43.5t-55 106.5z" />
<glyph unicode="g" horiz-adv-x="1093" d="M-96 -303q0 56 31 94.5t75 38.5q42 0 63 -26t21 -58q0 -25 -19.5 -73t-19.5 -76q0 -23 14 -46.5t45 -47t91.5 -38t142.5 -14.5q178 0 278.5 80t100.5 193q0 62 -44.5 109.5t-139.5 60.5l-264 34q-115 15 -175.5 64.5t-60.5 122.5q0 151 225 241q-82 76 -82 201 q0 156 120 263.5t294 107.5q122 0 203 -58q39 49 102.5 79t122.5 30q67 0 108.5 -34.5t41.5 -86.5q0 -33 -23 -58.5t-61 -25.5q-36 0 -61 21t-25 59q0 66 -47 66q-45 0 -123 -78q77 -77 77 -197q0 -102 -57 -188.5t-149 -134.5t-195 -48q-123 0 -205 50q-178 -69 -178 -158 q0 -34 33 -59t104 -33l246 -31q305 -38 305 -270q0 -27 -5 -56.5t-19.5 -66.5t-36.5 -70t-60 -65.5t-86 -56t-117.5 -38t-152.5 -14.5q-87 0 -161.5 19t-124 49t-85 69t-51.5 78t-16 76zM326 512q0 -82 46.5 -135t121.5 -53q55 0 102 24.5t79.5 63.5t55.5 88t34 98t11 94 q0 83 -47 135t-125 52q-83 0 -149 -58.5t-97.5 -141t-31.5 -167.5z" />
<glyph unicode="h" horiz-adv-x="1060" d="M10 0l412 1262q14 43 14 73q0 12 -2.5 21t-5.5 16t-10 12.5t-12 9t-16 6t-17 3.5t-20 1.5t-20.5 0.5h-23h-22.5l14 49l332 6l-8 -22l-240 -736q78 100 177.5 164t211.5 64q178 0 178 -135q0 -53 -22 -117l-185 -514q-18 -53 -18 -84q0 -41 33 -41q40 0 83.5 40.5 t74.5 92.5l36 -25q-107 -176 -249 -176q-115 0 -115 111q0 52 31 143l178 504q14 41 14 72q0 38 -22 58t-56 20q-74 0 -161.5 -59.5t-152.5 -140.5t-91 -153l2 9l-174 -535h-148z" />
<glyph unicode="i" horiz-adv-x="571" d="M90 84q0 56 31 147l178 480q16 46 16 71q0 17 -5 29.5t-16.5 20t-22 12t-31 6t-32 2t-37.5 0.5h-11l14 49l332 6l-258 -733q-21 -72 -21 -94q0 -41 33 -41q40 0 83.5 42t74.5 97l37 -24q-109 -183 -250 -183q-115 0 -115 113zM379 1243q0 44 32.5 76.5t80.5 32.5 q42 0 74 -33t32 -76q0 -44 -31.5 -77t-74.5 -33q-49 0 -81 32.5t-32 77.5z" />
<glyph unicode="j" horiz-adv-x="552" d="M-455 -444q0 41 29 68.5t72 27.5q33 0 54 -20.5t30.5 -50t17.5 -59.5t22.5 -50.5t39.5 -20.5q53 0 96.5 72.5t89.5 216.5l323 997q11 37 11 49q0 16 -5.5 28t-19 19t-24 11.5t-34.5 6t-34 1.5h-39l14 49l332 6l-383 -1177q-57 -177 -142.5 -250.5t-221.5 -73.5 q-117 0 -172.5 43.5t-55.5 106.5zM410 1243q0 44 32 76.5t80 32.5q43 0 75 -33t32 -76q0 -44 -32 -77t-75 -33q-48 0 -80 32.5t-32 77.5z" />
<glyph unicode="k" horiz-adv-x="995" d="M10 0l412 1262q14 43 14 73q0 12 -2.5 21t-5.5 16t-10 12.5t-12 9t-16 6t-17 3.5t-20 1.5t-20.5 0.5h-23h-22.5l14 49l330 6l-285 -876q75 8 124.5 40.5t115.5 102.5l76 80q64 67 104.5 95t89.5 28q38 0 64.5 -13.5t38 -36t16 -40.5t4.5 -37q0 -47 -24.5 -80t-63.5 -33 q-31 0 -53.5 19t-22.5 55q0 62 -10 74q-7 10 -21 10q-20 0 -39.5 -14.5t-50.5 -49.5l-84 -88q-33 -35 -51 -53t-46 -37.5t-58 -30.5q129 -17 176.5 -82t50.5 -214q3 -162 11.5 -201t47.5 -39q29 0 71 34.5t81 98.5l35 -25q-50 -90 -116.5 -133t-131.5 -43q-85 0 -111 62 t-26 237q0 161 -41.5 220.5t-165.5 60.5l-178 -551h-148z" />
<glyph unicode="l" horiz-adv-x="542" d="M70 84q0 59 30 147l336 1029q15 46 15 75q0 21 -8 34.5t-18 20.5t-32 10.5t-34.5 4t-41.5 0.5h-16l14 49l332 6l-420 -1286q-20 -68 -20 -94q0 -41 33 -41q40 0 83 42t74 97l37 -24q-109 -183 -250 -183q-114 0 -114 113z" />
<glyph unicode="m" horiz-adv-x="1593" d="M29 0l254 705q20 53 20 86q0 18 -7 30t-14.5 18.5t-28 9.5t-31 3h-38.5h-20l16 49l301 6l-59 -198q165 221 364 221q170 0 170 -148q0 -28 -6 -63q70 92 162 151.5t195 59.5q92 0 134 -40t42 -106q0 -50 -21 -106l-170 -467q-24 -74 -24 -119q0 -53 37 -53q32 0 73.5 41 t71.5 92l37 -25q-107 -176 -232 -176q-131 0 -131 121q0 66 41 184l166 453q15 44 15 74q0 38 -22 57t-56 19q-100 0 -215.5 -108t-157.5 -224l-199 -547h-151l266 729q14 41 14 72q0 39 -21.5 58.5t-55.5 19.5q-69 0 -150 -58.5t-142.5 -139.5t-88.5 -155l-191 -526h-147z " />
<glyph unicode="n" horiz-adv-x="1097" d="M29 0l254 705q18 50 20.5 79t-14.5 44.5t-44.5 19.5t-80.5 4l16 49l301 6l-65 -219q76 105 177.5 173.5t217.5 68.5q180 0 179 -136q0 -49 -23 -116l-185 -514q-16 -38 -16 -74v-10q2 -41 35 -41q74 0 153 133l37 -25q-107 -176 -250 -176q-114 0 -114 111q0 55 30 143 l179 504q14 37 14 67q0 22 -8 40q-18 42 -76 43q-71 0 -156.5 -58t-150.5 -139t-92 -156l-191 -526h-147z" />
<glyph unicode="o" horiz-adv-x="1052" d="M74 305q0 120 47.5 235t125.5 200.5t184.5 137.5t219.5 52q158 0 244 -94.5t86 -233.5q0 -162 -79.5 -308t-214 -234.5t-286.5 -88.5q-105 0 -181 47t-111 121t-35 166zM219 248q0 -114 46 -173t134 -59q72 0 141 44.5t121 115.5t92.5 156.5t61.5 171t21 155.5 q0 110 -46.5 168t-134.5 58q-72 0 -141 -44t-121 -114.5t-92 -155t-61 -169.5t-21 -154z" />
<glyph unicode="p" horiz-adv-x="1079" d="M-258 -573l16 49h49q47 0 70 21t47 93l367 1117q18 55 18 84q0 11 -2 20.5t-7 15.5t-10 11t-14.5 7.5t-16 4t-20.5 2t-21.5 0.5h-24.5h-25l16 49l275 6l-39 -168q52 67 104 107q111 84 215 84q124 0 198.5 -87.5t74.5 -228.5q0 -126 -50 -246.5t-129 -206.5t-178.5 -138 t-195.5 -52q-79 0 -134.5 50t-72.5 141l-182 -574q-17 -49 -17 -75q0 -8 1 -13q7 -24 55 -24h69l-14 -49h-422zM291 229q0 -97 44.5 -150.5t121.5 -53.5q96 0 190.5 98t152.5 245t58 287q0 111 -40 165t-111 54q-89 0 -187 -92.5t-145 -220.5l-39 -108q-45 -125 -45 -224z " />
<glyph unicode="q" horiz-adv-x="1040" d="M55 260q0 125 56.5 250t142.5 215.5t193.5 147.5t205.5 57q83 0 132 -50t63 -137l47 158h143l-430 -1313q-15 -41 -15 -66q0 -10 2 -18q8 -28 52 -28h70l-15 -49h-462l16 49h61q108 0 146 114l194 586q-143 -205 -325 -205q-137 0 -207 82t-70 207zM209 219 q0 -95 38 -144.5t105 -49.5q121 0 230.5 123.5t183.5 330.5q41 112 41 209q0 87 -35.5 138t-105.5 51q-104 0 -212.5 -106.5t-176.5 -261t-68 -290.5z" />
<glyph unicode="r" horiz-adv-x="798" d="M18 0l254 705q18 51 21 80t-14.5 44t-44 19t-80.5 4l16 49l281 6l-91 -301q76 148 162.5 236t192.5 88q59 0 107 -36t48 -101q0 -36 -22 -64.5t-64 -28.5q-39 0 -60 21.5t-30 66.5q-6 32 -20 47t-41 15q-80 0 -180 -158q-86 -139 -152 -319l-135 -373h-148z" />
<glyph unicode="s" horiz-adv-x="743" d="M-4 190q0 49 26 80t72 31q32 0 52 -20.5t20 -51.5q0 -22 -14.5 -57t-14.5 -59q0 -41 37 -69t94 -28q88 0 140.5 56.5t52.5 124.5q0 46 -16 80t-62 88l-76 79q-90 97 -90 226q0 103 73.5 181.5t205.5 78.5q70 0 121 -15.5t75 -40.5t34.5 -48.5t10.5 -47.5q0 -39 -25 -66.5 t-65 -27.5q-28 0 -50 19.5t-22 56.5q0 4 0.5 20.5t0 24.5t-2 22.5t-7 22.5t-14.5 17.5t-23.5 13.5t-34.5 4q-72 0 -116 -45.5t-44 -108.5q0 -87 69 -162l78 -82q27 -27 41 -43t35 -47t31 -66.5t10 -76.5q0 -109 -91.5 -196t-227.5 -87q-76 0 -133.5 21.5t-88.5 55.5t-46 70 t-15 72z" />
<glyph unicode="t" horiz-adv-x="630" d="M96 86q0 51 31 139l225 627h-133l17 49h135l63 176h137l-61 -176h188l-16 -49h-190l-240 -684q-16 -50 -16 -74q0 -55 49 -55q42 0 85 40t74 93l37 -25q-107 -176 -272 -176q-58 0 -85.5 30.5t-27.5 84.5z" />
<glyph unicode="u" d="M114 48q-15 30 -15 72q0 66 36 161l162 428q16 41 16 75q0 17 -4.5 29t-16 19.5t-20.5 11.5t-30 6t-31 2h-35h-16l14 49l336 6l-246 -686q-24 -61 -24 -106q0 -20 5 -37q15 -55 79 -55q99 0 220 115.5t169 242.5l194 520h135l-256 -727q-20 -68 -20 -94q0 -41 33 -41 q40 0 83 42t74 97l37 -24q-109 -183 -250 -183q-114 0 -114 113q0 40 16 102q-73 -96 -165 -155.5t-195 -59.5q-133 1 -171 77z" />
<glyph unicode="v" horiz-adv-x="989" d="M160 561q0 95 58.5 165t168.5 138l-211 -12l19 49l311 17l10 -35q-32 -15 -47.5 -23t-47 -31t-47.5 -46t-30 -63t-14 -87q0 -54 12 -119.5t25 -114.5t43 -151l43 -137l243 284q140 156 140 264q0 51 -30 109.5t-30 77.5q0 29 27.5 56.5t62.5 27.5q47 0 83 -42.5 t36 -111.5q0 -45 -16 -90t-53 -98t-67.5 -90.5t-90.5 -104.5l-365 -416h-35q-6 26 -12.5 51.5t-16.5 53.5t-16 45.5t-20 49t-18 41.5t-20.5 45.5t-18.5 39.5q-26 56 -39.5 89.5t-25 80.5t-11.5 88z" />
<glyph unicode="w" horiz-adv-x="1490" d="M160 561q0 95 58.5 165t168.5 138l-211 -12l19 49l311 17l10 -35q-77 -39 -108 -66q-78 -69 -78 -184q0 -54 12 -119.5t25 -114.5t43 -151l41 -135l221 272q106 129 106 233q0 44 -19.5 88t-39 79t-19.5 57q0 33 26.5 60.5t59.5 27.5q40 0 72.5 -33.5t42.5 -93.5 q76 83 174 115l17 -33q-31 -14 -50.5 -25t-52 -36.5t-51.5 -53t-34 -71.5t-15 -97q0 -76 18 -145.5t68 -208.5l47 -133l219 270q105 128 105 233q0 44 -18.5 88.5t-37 79t-18.5 54.5q0 32 26.5 61t61.5 29q45 0 79 -45t34 -125q0 -170 -166 -367l-344 -416h-35 q-16 75 -62.5 192.5t-54.5 141.5q-27 80 -33 135q-1 -2 -41 -53l-344 -416h-35q-6 26 -12.5 51.5t-16.5 53.5t-16 45.5t-20 49t-18 41.5t-20.5 45.5t-18.5 39.5q-26 56 -39.5 89.5t-25 80.5t-11.5 88z" />
<glyph unicode="x" horiz-adv-x="1132" d="M-49 133q0 42 26 73.5t70 31.5q40 0 60 -25.5t20 -69.5q0 -7 -0.5 -26.5t-0.5 -28.5t3 -24t9 -22t18 -13t30 -6q53 0 112.5 55t107 141t79 201.5t31.5 228.5q0 31 -1.5 54.5t-5 50.5t-11 46t-19 35t-29.5 24.5t-42 8.5q-68 0 -132.5 -53t-99.5 -131l-33 25 q44 97 122.5 159t178.5 62q170 0 207 -193q74 90 158.5 141.5t167.5 51.5q60 0 104 -16t64.5 -41t29.5 -48t9 -45q0 -49 -26 -79.5t-66 -30.5q-43 0 -63.5 24.5t-20.5 57.5q0 10 0.5 29.5t0.5 29t-1 24t-5 21.5t-10.5 15t-18 11t-26.5 3q-67 0 -143 -90t-129.5 -225 t-61.5 -259q0 -9 -1 -26t-1 -25q0 -221 115 -221q65 0 130.5 51.5t98.5 126.5l35 -24q-46 -95 -122 -155.5t-169 -60.5q-87 0 -140 52.5t-73 140.5q-72 -90 -157.5 -141.5t-171.5 -51.5q-61 0 -105 16t-64.5 42t-29 50t-8.5 48z" />
<glyph unicode="y" horiz-adv-x="985" d="M-272 -487q0 43 31.5 71.5t76.5 28.5q33 0 64.5 -23t62 -46t60.5 -23q40 0 91 34.5t95 96.5l82 115q7 10 29 40t30 42t21 34t17.5 38t4.5 32q0 72 -96 268q-82 168 -103 231q-22 68 -22 117q0 51 16.5 94.5t49.5 80t66.5 62.5t84.5 58l-211 -12l17 49l313 17l10 -35 q-100 -49 -139 -102.5t-39 -129.5q0 -118 90 -397l70 -197l205 287q57 77 89.5 159.5t32.5 141.5q0 41 -16.5 80.5t-33 70.5t-17.5 50q0 31 27.5 57.5t70.5 26.5t79 -46.5t36 -121.5q0 -42 -10.5 -82.5t-34.5 -83.5t-38.5 -65t-45.5 -66l-588 -823q-74 -104 -178.5 -170 t-204.5 -66q-64 0 -104.5 30t-40.5 77z" />
<glyph unicode="z" horiz-adv-x="999" d="M-10 41q0 33 23 57.5t75 46.5q17 7 32.5 15.5t31.5 21.5t25 20.5t28 25.5t26 24l510 455q-30 -5 -39 -5q-81 0 -152.5 19t-122 38t-79.5 19q-129 0 -133 -133l-49 2q7 126 77.5 204.5t168.5 78.5q43 0 82.5 -17.5t70.5 -42t61.5 -49t68 -42t77.5 -17.5q21 0 29.5 6.5 t19.5 26.5q9 14 24.5 43.5t24.5 43.5t23.5 31.5t31.5 25t38 7.5q25 0 44 -16t19 -45q0 -91 -199 -166l-614 -547q62 27 123 27q68 0 180 -43t166 -43q44 0 76.5 38.5t32.5 106.5q0 5 -5 45l56 6q4 -46 4 -65q0 -135 -62 -204t-149 -69q-56 0 -106 26.5t-81 57.5t-72 57.5 t-81 26.5t-70 -17.5t-48.5 -42t-35.5 -49t-39 -42t-49 -17.5t-45 19t-18 51z" />
<glyph unicode="{" horiz-adv-x="770" d="M137 -20q0 52 21 109.5t50.5 107.5t59.5 98t51 97t21 89q0 66 -47.5 111t-122.5 45l16 41q95 0 191 67t127 152q24 65 35.5 168.5t33.5 165.5q30 82 110.5 168t192.5 146.5t214 60.5l-11 -37q-93 0 -188 -62.5t-121 -140.5q-19 -55 -45 -178.5t-53 -198.5 q-45 -125 -164.5 -225t-228.5 -100l-5 -13q81 0 129 -59.5t48 -149.5q0 -66 -21 -131t-51.5 -116.5t-60.5 -100t-51 -99t-21 -95.5q0 -62 49 -108t127 -46l-16 -37q-126 0 -197.5 80.5t-71.5 190.5z" />
<glyph unicode="|" horiz-adv-x="436" d="M-43 -276l643 1984h72l-643 -1984h-72z" />
<glyph unicode="}" horiz-adv-x="774" d="M-190 -291l10 37q93 0 188 62.5t121 140.5q19 55 45 178.5t53 198.5q45 124 165 224.5t229 100.5l4 13q-81 0 -128.5 59t-47.5 149q0 81 32 162.5t70 137t70 122t32 121.5q0 62 -49 108t-127 46l17 37q126 0 197 -80.5t71 -190.5q0 -52 -21 -109.5t-51 -107.5t-59.5 -98 t-50.5 -97t-21 -89q0 -66 47.5 -111t122.5 -45l-16 -41q-95 0 -191 -67t-127 -152q-24 -65 -35.5 -168.5t-33.5 -165.5q-30 -82 -110 -168t-192 -146.5t-214 -60.5z" />
<glyph unicode="~" horiz-adv-x="1531" d="M18 471q9 26 33 65.5t68 90t96 93t124 72t146 29.5q51 0 114 -20.5t103 -41t115 -61.5q72 -39 112 -59t97 -39.5t98 -19.5q101 0 187.5 60.5t142.5 147.5h47q-66 -123 -186.5 -220t-224.5 -97q-56 0 -120 20t-105.5 41t-104.5 58q-69 40 -107 60t-96.5 40.5t-105.5 20.5 q-115 0 -216.5 -61t-173.5 -179h-43z" />
<glyph unicode="&#xa1;" horiz-adv-x="540" d="M70 84q0 27 16 70l377 901l55 -21l-225 -921q-30 -121 -137 -121q-34 2 -60 25.5t-26 66.5zM461 1362q1 51 36 86t85 35q52 -1 86 -36t34 -85q0 -49 -34 -85t-86 -36q-51 0 -86 35.5t-35 85.5z" />
<glyph unicode="&#xa2;" horiz-adv-x="897" d="M74 317q0 115 48.5 224.5t126.5 190t179.5 133.5t206.5 63l78 215h51l-78 -213q56 -1 98.5 -12t65.5 -27.5t37 -38.5t18 -39.5t4 -36.5q0 -42 -24.5 -74t-67.5 -32q-38 0 -61 22.5t-23 59.5q0 10 0.5 30t0.5 27.5t-1 22t-3.5 20t-7 14t-11.5 11.5t-17 5.5t-24 2.5 l-308 -846q37 -16 82 -16q107 0 193 86q44 42 80 102l37 -27q-48 -95 -135 -154t-209 -59q-40 0 -70 6l-78 -213h-51l82 224q-107 32 -163 118t-56 211zM233 303q0 -169 86 -240l297 816q-98 -21 -188 -113.5t-142.5 -218t-52.5 -244.5z" />
<glyph unicode="&#xa3;" horiz-adv-x="1146" d="M-109 20q0 47 51.5 87.5t120.5 63t140 28.5q5 8 9 16.5t8 16t9.5 19t9.5 20t11.5 26t12.5 29.5t15.5 37.5t18.5 43.5t23 54t26 63q16 41 53 117h-196l26 49h195l22 43q43 81 79 144.5t88 145t100 142.5t109 124t120.5 103t130 65.5t141.5 25.5q77 0 130 -38.5t53 -109.5 q0 -55 -37 -91t-88 -36q-36 0 -60 19.5t-24 54.5q0 48 55 86q25 18 25 31q0 33 -66 33q-32 0 -65.5 -13t-63.5 -31.5t-65 -55t-62 -67t-63.5 -84.5t-60.5 -91t-62.5 -103t-59.5 -104t-61 -109l-51 -92h338l-27 -49h-338q-51 -93 -59 -107q-105 -190 -223 -331 q137 -2 264 -43q123 -39 196 -39q89 0 160 51t113 149h45q-54 -151 -158 -246.5t-250 -95.5q-45 0 -90.5 16t-72.5 32t-72 47q-111 79 -170 88q-165 -183 -275 -183q-38 0 -58 14.5t-20 34.5z" />
<glyph unicode="&#xa4;" horiz-adv-x="1144" d="M307 428l103 102q-76 95 -76 220q0 124 76 219l-103 102l51 53l105 -104q95 76 219 76t219 -76l103 102l51 -51l-103 -102q76 -95 76 -219q0 -125 -76 -220l103 -102l-51 -53l-105 104q-92 -76 -217 -76q-126 0 -219 74l-103 -102zM416 750q0 -112 76.5 -188.5 t189.5 -76.5q112 0 188 76t76 189q0 112 -76 188t-188 76q-113 0 -189.5 -76t-76.5 -188z" />
<glyph unicode="&#xa5;" horiz-adv-x="1357" d="M274 342l23 59h346l45 162l-2 12h-350l22 60h312l-144 579q-8 33 -12 47t-12.5 38.5t-16.5 34.5t-22.5 25t-32.5 22t-43.5 14t-58.5 10l-39 4l18 51l268 -6l299 6l-18 -51l-43 -4q-70 -6 -102.5 -35.5t-32.5 -87.5q0 -31 14 -92l139 -543l455 572q53 67 53 108 q0 35 -39 52.5t-120 25.5l-39 4l18 51l262 -6l258 6l-18 -51l-43 -6q-120 -16 -246 -172l-475 -596h330l-23 -60h-348l-49 -174h358l-22 -59h-352l-46 -160q-6 -21 -6 -39q0 -21 10 -36.5t24 -24.5t43.5 -15.5t53.5 -10t68 -7.5l39 -4l-19 -51l-354 6l-297 -6l19 51l43 4 q35 4 50 6t39.5 7t35.5 11.5t27.5 17.5t26.5 27t21 38.5t21 52.5l37 133h-353z" />
<glyph unicode="&#xa6;" horiz-adv-x="436" d="M-43 -276l289 888h71l-288 -888h-72zM311 819l289 889h72l-289 -889h-72z" />
<glyph unicode="&#xa7;" horiz-adv-x="1083" d="M-125 -365q0 46 26.5 77.5t75.5 31.5q47 0 74 -36t27 -99q0 -90 37.5 -118t120.5 -28q120 0 213.5 74.5t93.5 194.5q0 57 -23.5 116t-66.5 105l-91 96q-84 88 -123.5 165.5t-39.5 160.5q0 139 115 245.5t323 124.5l-39 41q-84 89 -124 167t-40 165q0 161 130.5 263 t314.5 102q132 0 224.5 -67t92.5 -171q0 -45 -26.5 -76.5t-71.5 -31.5q-105 0 -105 129q0 72 -43.5 113.5t-113.5 41.5q-104 0 -167 -75.5t-63 -192.5q0 -75 32.5 -138.5t96.5 -131.5l64 -68q80 -87 117.5 -156.5t37.5 -158.5q0 -149 -129.5 -231.5t-355.5 -90.5l94 -100 q81 -87 118.5 -157t37.5 -159q0 -112 -68.5 -196.5t-174 -126t-228.5 -41.5q-179 0 -276 72.5t-97 164.5zM371 422q0 -85 55 -133.5t137 -48.5q89 0 152 70.5t63 174.5q0 48 -17.5 91.5t-60.5 76.5t-104 33q-98 0 -161.5 -78.5t-63.5 -185.5z" />
<glyph unicode="&#xa8;" horiz-adv-x="819" d="M399 1243q0 39 30 68.5t73 29.5q39 0 68.5 -29.5t29.5 -68.5q0 -41 -29 -71.5t-69 -30.5q-44 0 -73.5 30t-29.5 72zM797 1243q0 39 29.5 68.5t72.5 29.5q39 0 68.5 -29.5t29.5 -68.5q0 -41 -29 -71.5t-69 -30.5q-44 0 -73 30t-29 72z" />
<glyph unicode="&#xa9;" horiz-adv-x="1814" d="M256 731q0 154 57 292.5t155.5 239.5t240 160.5t303.5 59.5q160 0 300 -59.5t238 -160.5t154.5 -239.5t56.5 -292.5q0 -156 -53.5 -294t-149.5 -240t-237.5 -161t-308.5 -59q-162 0 -303.5 59.5t-240 160.5t-155.5 240t-57 294zM342 731q0 -136 50.5 -259.5t137.5 -215 t213 -145.5t269 -54q148 0 274 54t210.5 146t131.5 214.5t47 259.5q0 180 -84.5 333.5t-237.5 246t-341 92.5q-191 0 -345.5 -92.5t-239.5 -246t-85 -333.5zM627 733q0 169 114 281t287 112q57 0 106.5 -14t80 -27.5t38.5 -13.5q24 0 29 41h33l-4 -125l4 -125h-39 q-17 99 -79 152t-144 53q-122 0 -191 -95t-69 -239q0 -155 71.5 -243.5t194.5 -88.5q75 0 138 47t89 127l49 -18q-18 -58 -52.5 -101.5t-77.5 -67.5t-87 -35t-90 -11q-185 0 -293 108.5t-108 282.5z" />
<glyph unicode="&#xaa;" horiz-adv-x="907" d="M115 379v49h721v-49h-721zM201 819q0 97 47 193.5t119.5 166.5t162.5 114t172 44q84 0 124.5 -39t50.5 -110l51 131h129l-217 -567q-17 -44 -17 -74q0 -27 21 -27q31 0 68 33.5t65 75.5l33 -27q-91 -139 -205 -139q-109 0 -109 88q0 13 4 41q-109 -129 -268 -129 q-115 0 -173 64t-58 161zM344 786q0 -72 27.5 -109.5t77.5 -37.5q104 0 196 95.5t150 256.5q30 85 30 162q0 65 -28.5 104t-83.5 39q-85 0 -172.5 -82.5t-142 -202t-54.5 -225.5z" />
<glyph unicode="&#xab;" horiz-adv-x="954" d="M115 367q0 78 36.5 154.5t95 134.5t127.5 100t136 61l18 -51q-121 -57 -212 -177t-91 -241q0 -143 119 -207l-18 -51q-102 29 -156.5 107t-54.5 170zM510 367q0 78 36.5 154.5t95 134.5t127.5 100t136 61l19 -51q-121 -57 -212 -177t-91 -241q0 -144 118 -207l-18 -51 q-102 29 -156.5 107t-54.5 170z" />
<glyph unicode="&#xac;" horiz-adv-x="1175" d="M260 823l29 80h930l-29 -80l-115 -317h-80l115 317h-850z" />
<glyph unicode="&#xad;" horiz-adv-x="794" d="M109 401l24 74h547l-25 -74h-546z" />
<glyph unicode="&#xae;" horiz-adv-x="1812" d="M256 731q0 154 57 292.5t155.5 239.5t240 160.5t303.5 59.5q160 0 300 -59.5t238 -160.5t154.5 -239.5t56.5 -292.5q0 -155 -56.5 -294t-154.5 -240t-238 -160.5t-300 -59.5q-162 0 -303.5 59.5t-240 160.5t-155.5 240t-57 294zM342 731q0 -136 50.5 -259.5t137.5 -215 t213 -145.5t269 -54q141 0 265.5 54t211 145.5t136.5 215t50 259.5q0 180 -84.5 333.5t-237.5 246t-341 92.5q-191 0 -345.5 -92.5t-239.5 -246t-85 -333.5zM653 362v39l23 2q64 6 81 21.5t17 81.5l2 461q0 24 -1 39t-7.5 26t-10.5 16.5t-20 9.5t-25 5l-36 4l-23 4l2 37 l168 -4h160q313 0 313 -180q0 -167 -227 -197q91 -6 149 -52t70 -126q15 -73 36 -105.5t50 -29.5l35 4l6 -39q-63 -25 -112 -25q-60 0 -93 37t-41 98q-7 40 -13.5 66.5t-24 60t-42 53.5t-67.5 34.5t-100 15.5h-21v-213q0 -65 19 -81t88 -22l22 -2v-39l-190 5zM901 762h68 q97 0 137.5 37.5t40.5 118.5q0 72 -37.5 108.5t-124.5 36.5h-84v-301z" />
<glyph unicode="&#xaf;" horiz-adv-x="659" d="M367 1190l28 82h465l-29 -82h-464z" />
<glyph unicode="&#xb0;" horiz-adv-x="655" d="M322 1176q0 111 79 189.5t191 78.5q110 0 189 -79t79 -189q0 -112 -79 -191.5t-189 -79.5q-112 0 -191 79t-79 192zM397 1176q0 -82 56.5 -138.5t138.5 -56.5q80 0 136 56.5t56 138.5q0 80 -56 136t-136 56q-82 0 -138.5 -56t-56.5 -136z" />
<glyph unicode="&#xb1;" horiz-adv-x="1224" d="M182 207l29 74h682l-29 -74h-682zM350 680l33 74h299l80 221h78l-80 -221h303l-33 -74h-297l-82 -223h-78l82 223h-305z" />
<glyph unicode="&#xb2;" horiz-adv-x="710" d="M129 608l16 47l328 234q71 50 120 92t93 91t66 101t22 107q0 64 -40.5 99.5t-106.5 35.5q-72 0 -125 -36t-53 -81q0 -19 34 -45q25 -18 25 -53q0 -33 -25 -56.5t-59 -23.5q-44 0 -66 30.5t-22 74.5q0 98 104 170.5t244 72.5q116 0 177 -47.5t61 -130.5q0 -34 -13 -68.5 t-30.5 -63.5t-52 -63.5t-61.5 -58.5t-75 -59t-76.5 -54.5t-81.5 -54.5l-217 -145l228 4q79 1 108.5 17t69.5 75h43l-57 -139l-23 -72h-555z" />
<glyph unicode="&#xb3;" horiz-adv-x="712" d="M147 731q0 40 28 67t69 27q32 0 50.5 -17t18.5 -44q0 -25 -20 -49q-19 -23 -19 -35q0 -45 99 -45q110 0 203.5 82t93.5 192q0 119 -125 119q-61 0 -109 -16l17 45q139 37 230 106.5t91 151.5q0 48 -31 78t-96 30t-111.5 -27t-46.5 -61q0 -8 17 -35q14 -20 14 -43 q0 -33 -20.5 -53t-57.5 -20q-32 0 -53.5 23.5t-21.5 60.5q0 74 87.5 137t215.5 63q116 0 184 -41t68 -120q0 -165 -326 -240q99 -3 154 -48.5t55 -119.5q0 -83 -66.5 -155t-165.5 -111t-198 -39q-103 0 -165.5 36t-62.5 101z" />
<glyph unicode="&#xb4;" horiz-adv-x="446" d="M348 1065l86 295q15 56 36.5 84.5t59.5 28.5q29 0 45.5 -20.5t16.5 -51.5q0 -54 -60 -141l-139 -195h-45z" />
<glyph unicode="&#xb5;" horiz-adv-x="1214" />
<glyph unicode="&#xb6;" horiz-adv-x="1175" d="M270 932q0 143 81 265.5t217 193t290 67.5l186 -4l439 6l-17 -51q-47 -4 -74.5 -7.5t-62.5 -14t-57 -27t-43 -46t-35 -71.5l-539 -1624h-84l580 1765h-184l-580 -1765h-86l346 1055q-182 0 -279.5 66t-97.5 192z" />
<glyph unicode="&#xb7;" horiz-adv-x="464" d="M2 432q0 48 35 83.5t88 35.5q49 0 84 -35.5t35 -83.5q0 -51 -35 -87t-84 -36q-53 0 -88 35.5t-35 87.5z" />
<glyph unicode="&#xb8;" horiz-adv-x="626" d="M-225 -459l53 10q25 -96 109 -96q85 0 158 89.5t73 193.5q0 43 -23 68.5t-69 25.5q-34 0 -77 -23t-79 -59l-33 27q100 106 224 106l45 117h61l-51 -123q51 -14 78.5 -52.5t27.5 -96.5q0 -74 -46.5 -150t-128 -128t-171.5 -52q-70 0 -106 42t-45 101z" />
<glyph unicode="&#xb9;" horiz-adv-x="491" d="M113 604l16 45l43 2q74 3 99.5 24t54.5 103l176 488q14 40 14 53q0 22 -15.5 31t-54.5 12l-61 4l18 47q74 6 108.5 14t121.5 39h72l-250 -688q-25 -70 -25 -86q0 -23 19 -31t65 -10l39 -2l-16 -45l-207 4z" />
<glyph unicode="&#xba;" horiz-adv-x="817" d="M33 379v49h721v-49h-721zM215 848q0 126 67 239t179.5 181.5t238.5 68.5q133 0 205 -73.5t72 -184.5q0 -124 -66.5 -236t-179 -180.5t-239.5 -68.5q-132 0 -204.5 73t-72.5 181zM356 803q0 -78 35 -120t101 -42q70 0 136.5 51t111 125.5t71.5 157.5t27 149q0 84 -34 128 t-99 44q-72 0 -139 -52t-111.5 -128t-71.5 -160.5t-27 -152.5z" />
<glyph unicode="&#xbb;" horiz-adv-x="954" d="M33 141q121 57 212 177t91 241q0 143 -119 207l19 51q102 -29 156 -106.5t54 -169.5q0 -78 -36.5 -154.5t-95 -134.5t-127.5 -100.5t-136 -61.5zM428 141q121 57 212 177t91 241q0 143 -119 207l19 51q102 -29 156.5 -106.5t54.5 -169.5q0 -78 -37 -154.5t-95.5 -134.5 t-127.5 -100.5t-136 -61.5z" />
<glyph unicode="&#xbc;" horiz-adv-x="1695" d="M82 0l1550 1454h80l-1552 -1454h-78zM113 604l16 45l43 2q74 3 99.5 24t54.5 103l176 488q14 40 14 53q0 22 -15.5 31t-54.5 12l-61 4l18 47q74 6 108.5 14t121.5 39h72l-250 -688q-25 -70 -25 -86q0 -23 19 -31t65 -10l39 -2l-16 -45l-207 4zM969 203l8 22 q181 172 508 623h227l-661 -600h284l78 211q50 13 111 55h45l-99 -266h101l-17 -45h-100l-16 -45q-23 -59 -23 -78q0 -23 15 -30.5t53 -10.5l24 -2l-20 -41l-174 4l-219 -4l16 41l45 2q51 2 76 12.5t38 31.5t34 75l16 45h-350z" />
<glyph unicode="&#xbd;" horiz-adv-x="1712" d="M82 0l1550 1454h80l-1552 -1454h-78zM113 604l16 45l43 2q74 3 99.5 24t54.5 103l176 488q14 40 14 53q0 22 -15.5 31t-54.5 12l-61 4l18 47q74 6 108.5 14t121.5 39h72l-250 -688q-25 -70 -25 -86q0 -23 19 -31t65 -10l39 -2l-16 -45l-207 4zM979 0l16 47l328 234 q71 50 120 92t93 91t66 101t22 107q0 64 -40.5 99.5t-106.5 35.5q-72 0 -125.5 -36t-53.5 -81q0 -18 35 -45q25 -18 25 -53q0 -33 -25 -56.5t-59 -23.5q-44 0 -66 30t-22 74q0 98 104 171t244 73q116 0 177 -47.5t61 -130.5q0 -34 -13 -68.5t-30.5 -63.5t-52 -63.5 t-61.5 -58.5t-75 -59t-76.5 -54.5t-81.5 -54.5l-217 -145l228 4q79 1 108.5 17t69.5 75h43l-58 -139l-22 -72h-555z" />
<glyph unicode="&#xbe;" horiz-adv-x="1916" d="M147 731q0 40 28 67t69 27q32 0 50.5 -17t18.5 -44q0 -25 -20 -49q-19 -23 -19 -35q0 -45 99 -45q110 0 203.5 82t93.5 192q0 119 -125 119q-61 0 -109 -16l17 45q139 37 230 106.5t91 151.5q0 48 -31 78t-96 30t-111.5 -27t-46.5 -61q0 -8 17 -35q14 -20 14 -43 q0 -33 -20.5 -53t-57.5 -20q-32 0 -53.5 23.5t-21.5 60.5q0 74 87.5 137t215.5 63q116 0 184 -41t68 -120q0 -165 -326 -240q99 -3 154 -48.5t55 -119.5q0 -83 -66.5 -155t-165.5 -111t-198 -39q-103 0 -165.5 36t-62.5 101zM303 0l1550 1454h80l-1552 -1454h-78zM1190 203 l8 22q181 172 508 623h227l-661 -600h284l78 211q50 13 111 55h45l-98 -266h100l-16 -45h-101l-16 -45q-23 -59 -23 -78q0 -23 15 -30.5t53 -10.5l25 -2l-21 -41l-174 4l-219 -4l16 41l45 2q51 2 76 12.5t38 31.5t34 75l16 45h-350z" />
<glyph unicode="&#xbf;" horiz-adv-x="929" d="M-158 -322q0 124 72.5 241.5t191 191t244.5 73.5q106 0 164 -65l25 338q3 43 26.5 67.5t57.5 24.5q32 0 48.5 -20t16.5 -52q0 -18 -6 -39l-135 -485l-45 -2v33q-2 68 -40.5 106.5t-109.5 38.5t-140 -50.5t-116.5 -126t-76.5 -162t-29 -159.5q0 -75 40.5 -113t112.5 -38 q79 0 116.5 29t35.5 85q-3 59 26 88t76 29q39 0 63.5 -21.5t24.5 -58.5q0 -89 -105 -146.5t-237 -57.5q-130 0 -215.5 67t-85.5 184zM528 801q0 51 35 87t84 36q53 0 88 -35.5t35 -87.5q0 -48 -35 -83.5t-88 -35.5q-49 0 -84 35.5t-35 83.5z" />
<glyph unicode="&#xc0;" horiz-adv-x="1355" d="M-143 -6l16 51l43 4q41 4 76 17t58.5 27.5t48 40.5t38 44.5t35.5 50.5l868 1254l45 -29v-1221q0 -50 3.5 -75.5t18 -51.5t46.5 -38.5t86 -18.5l39 -4l-16 -51l-297 6l-297 -6l16 51l43 4q50 5 82 14t58.5 29.5t38.5 56t12 89.5v290h-469l-209 -301q-45 -65 -45 -104 q0 -62 133 -74l39 -4l-17 -51l-241 6zM485 582h433v626zM981 1925h166l-57 -369h-25z" />
<glyph unicode="&#xc1;" horiz-adv-x="1355" d="M-143 -6l16 51l43 4q41 4 76 17t58.5 27.5t48 40.5t38 44.5t35.5 50.5l868 1254l45 -29v-1221q0 -50 3.5 -75.5t18 -51.5t46.5 -38.5t86 -18.5l39 -4l-16 -51l-297 6l-297 -6l16 51l43 4q50 5 82 14t58.5 29.5t38.5 56t12 89.5v290h-469l-209 -301q-45 -65 -45 -104 q0 -62 133 -74l39 -4l-17 -51l-241 6zM485 582h433v626zM1047 1556l122 369h166l-264 -369h-24z" />
<glyph unicode="&#xc2;" horiz-adv-x="1355" d="M-143 -6l16 51l43 4q41 4 76 17t58.5 27.5t48 40.5t38 44.5t35.5 50.5l868 1254l45 -29v-1221q0 -50 3.5 -75.5t18 -51.5t46.5 -38.5t86 -18.5l39 -4l-16 -51l-297 6l-297 -6l16 51l43 4q50 5 82 14t58.5 29.5t38.5 56t12 89.5v290h-469l-209 -301q-45 -65 -45 -104 q0 -62 133 -74l39 -4l-17 -51l-241 6zM485 582h433v626zM860 1559l291 366h80l33 -366h-60l-59 200l-215 -200h-70z" />
<glyph unicode="&#xc3;" horiz-adv-x="1355" d="M-143 -6l16 51l43 4q41 4 76 17t58.5 27.5t48 40.5t38 44.5t35.5 50.5l868 1254l45 -29v-1221q0 -50 3.5 -75.5t18 -51.5t46.5 -38.5t86 -18.5l39 -4l-16 -51l-297 6l-297 -6l16 51l43 4q50 5 82 14t58.5 29.5t38.5 56t12 89.5v290h-469l-209 -301q-45 -65 -45 -104 q0 -62 133 -74l39 -4l-17 -51l-241 6zM485 582h433v626zM764 1663q25 63 98.5 138t155.5 75q51 0 117 -53l59 -45q52 -39 92 -39q77 0 148 104h39q-44 -91 -111 -147t-129 -56q-51 0 -121 52l-41 32q-24 19 -37.5 28.5t-32 17.5t-36.5 8q-41 0 -88.5 -36.5t-73.5 -78.5h-39z " />
<glyph unicode="&#xc4;" horiz-adv-x="1355" d="M-143 -6l16 51l43 4q41 4 76 17t58.5 27.5t48 40.5t38 44.5t35.5 50.5l868 1254l45 -29v-1221q0 -50 3.5 -75.5t18 -51.5t46.5 -38.5t86 -18.5l39 -4l-16 -51l-297 6l-297 -6l16 51l43 4q50 5 82 14t58.5 29.5t38.5 56t12 89.5v290h-469l-209 -301q-45 -65 -45 -104 q0 -62 133 -74l39 -4l-17 -51l-241 6zM485 582h433v626zM797 1753q0 39 29.5 68.5t72.5 29.5q39 0 68.5 -29.5t29.5 -68.5q0 -41 -29 -71.5t-69 -30.5q-44 0 -73 30t-29 72zM1194 1753q0 39 29.5 68.5t72.5 29.5q40 0 69.5 -29.5t29.5 -68.5q0 -41 -29.5 -71.5t-69.5 -30.5 q-44 0 -73 30t-29 72z" />
<glyph unicode="&#xc5;" horiz-adv-x="1355" d="M-143 -6l16 51l43 4q41 4 76 17t58.5 27.5t48 40.5t38 44.5t35.5 50.5l868 1254l45 -29v-1221q0 -50 3.5 -75.5t18 -51.5t46.5 -38.5t86 -18.5l39 -4l-16 -51l-297 6l-297 -6l16 51l43 4q50 5 82 14t58.5 29.5t38.5 56t12 89.5v290h-469l-209 -301q-45 -65 -45 -104 q0 -62 133 -74l39 -4l-17 -51l-241 6zM485 582h433v626zM932 1780q0 69 47 121.5t127 52.5q83 0 127.5 -54t44.5 -120q0 -85 -51 -129.5t-119 -44.5q-78 0 -127 50t-49 124zM991 1780q0 -55 34 -88t83 -33q46 0 78.5 32t32.5 89q0 56 -33 88.5t-80 32.5q-44 0 -79.5 -31 t-35.5 -90z" />
<glyph unicode="&#xc6;" horiz-adv-x="1933" d="M-145 -6l18 51l43 4q24 2 45 6.5t39 12.5l31.5 14t28.5 19.5t23 20t22.5 25.5t19 25t20 28.5t19.5 28.5l848 1225l878 -2l-4 -123l-2 -252h-53q0 326 -254 326h-455v-608h191q38 0 62.5 7t53 31.5t56 74.5t59.5 132h53l-104 -280l-100 -297h-54q43 119 43 184 q0 94 -88 94h-172v-508v-33t1 -29t3 -27.5t5 -23t9 -21.5t13.5 -16t19 -14t25.5 -9.5t32.5 -7t41.5 -1.5h125q88 0 154 23.5t118 75t90.5 116t81.5 164.5h53l-102 -278l-49 -152h-752l-297 -6l19 51l43 4q102 10 148.5 48t47.5 141l4 290h-514l-204 -301q-45 -65 -45 -102 q0 -64 135 -76l39 -4l-19 -51l-242 6zM479 582h477l11 712z" />
<glyph unicode="&#xc7;" horiz-adv-x="1433" d="M174 467q0 122 31.5 246t87.5 236t137.5 210.5t178 170t213.5 112.5t239 41q82 0 153 -19.5t109.5 -43t71.5 -43t49 -19.5q28 0 76 69h53l-78 -210l-72 -224h-53q8 49 8 103q0 157 -82 241t-219 84q-106 0 -213 -50t-197 -138.5t-160.5 -202t-110.5 -249.5t-40 -271 q0 -217 89 -343t251 -126q158 0 326 139t244 326h53l-102 -289l-58 -217h-53q4 32 4 47q0 43 -29 43q-12 0 -57 -23t-122.5 -50t-162.5 -35l-43 -105q51 -14 79 -52.5t28 -96.5q0 -74 -46.5 -150t-128 -128t-171.5 -52q-70 0 -106.5 42t-45.5 101l53 10q25 -96 109 -96 q85 0 158 89.5t73 193.5q0 43 -23 68.5t-69 25.5q-34 0 -76.5 -23t-78.5 -59l-33 27q100 106 223 106l37 94h-12q-77 0 -147.5 17.5t-133.5 56t-109.5 94.5t-74 138.5t-27.5 183.5z" />
<glyph unicode="&#xc8;" horiz-adv-x="1423" d="M-47 -6l16 51l43 4q112 9 155.5 32t63.5 85l359 1098q14 51 14 67q0 35 -32.5 50.5t-116.5 23.5l-39 4l16 51l301 -6h690v-123l7 -252h-54q-11 324 -266 324h-309l-201 -608h289q37 0 61 7t52 31.5t54 74.5t56 132h53l-96 -280l-88 -297h-53q35 106 35 176q0 102 -91 102 h-288l-133 -403q-33 -101 -33 -156q0 -71 46 -103t140 -30l283 2q70 1 126 17.5t98.5 45.5t80 77.5t66 104t59.5 134.5h53l-92 -278l-45 -152h-975zM958 1925h166l-57 -369h-25z" />
<glyph unicode="&#xc9;" horiz-adv-x="1423" d="M-47 -6l16 51l43 4q112 9 155.5 32t63.5 85l359 1098q14 51 14 67q0 35 -32.5 50.5t-116.5 23.5l-39 4l16 51l301 -6h690v-123l7 -252h-54q-11 324 -266 324h-309l-201 -608h289q37 0 61 7t52 31.5t54 74.5t56 132h53l-96 -280l-88 -297h-53q35 106 35 176q0 102 -91 102 h-288l-133 -403q-33 -101 -33 -156q0 -71 46 -103t140 -30l283 2q70 1 126 17.5t98.5 45.5t80 77.5t66 104t59.5 134.5h53l-92 -278l-45 -152h-975zM1024 1556l123 369h166l-264 -369h-25z" />
<glyph unicode="&#xca;" horiz-adv-x="1423" d="M-47 -6l16 51l43 4q112 9 155.5 32t63.5 85l359 1098q14 51 14 67q0 35 -32.5 50.5t-116.5 23.5l-39 4l16 51l301 -6h690v-123l7 -252h-54q-11 324 -266 324h-309l-201 -608h289q37 0 61 7t52 31.5t54 74.5t56 132h53l-96 -280l-88 -297h-53q35 106 35 176q0 102 -91 102 h-288l-133 -403q-33 -101 -33 -156q0 -71 46 -103t140 -30l283 2q70 1 126 17.5t98.5 45.5t80 77.5t66 104t59.5 134.5h53l-92 -278l-45 -152h-975zM838 1559l290 366h80l33 -366h-59l-60 200l-215 -200h-69z" />
<glyph unicode="&#xcb;" horiz-adv-x="1423" d="M-47 -6l16 51l43 4q112 9 155.5 32t63.5 85l359 1098q14 51 14 67q0 35 -32.5 50.5t-116.5 23.5l-39 4l16 51l301 -6h690v-123l7 -252h-54q-11 324 -266 324h-309l-201 -608h289q37 0 61 7t52 31.5t54 74.5t56 132h53l-96 -280l-88 -297h-53q35 106 35 176q0 102 -91 102 h-288l-133 -403q-33 -101 -33 -156q0 -71 46 -103t140 -30l283 2q70 1 126 17.5t98.5 45.5t80 77.5t66 104t59.5 134.5h53l-92 -278l-45 -152h-975zM774 1753q0 39 30 68.5t73 29.5q39 0 68.5 -29.5t29.5 -68.5q0 -41 -29 -71.5t-69 -30.5q-44 0 -73.5 30t-29.5 72z M1171 1753q0 39 30 68.5t73 29.5q39 0 68.5 -29.5t29.5 -68.5q0 -41 -29 -71.5t-69 -30.5q-44 0 -73.5 30t-29.5 72z" />
<glyph unicode="&#xcc;" horiz-adv-x="786" d="M-47 -6l16 51l43 4q113 11 163 55.5t93 174.5l328 999q8 27 8 53q0 36 -31.5 51t-117.5 23l-39 4l16 51l305 -6l305 6l-16 -51l-43 -4q-79 -7 -122 -27t-74.5 -66t-61.5 -138l-319 -977q-15 -58 -15 -74q0 -36 32 -51t118 -23l39 -4l-17 -51l-305 6zM662 1925h165 l-57 -369h-25z" />
<glyph unicode="&#xcd;" horiz-adv-x="786" d="M-47 -6l16 51l43 4q113 11 163 55.5t93 174.5l328 999q8 27 8 53q0 36 -31.5 51t-117.5 23l-39 4l16 51l305 -6l305 6l-16 -51l-43 -4q-79 -7 -122 -27t-74.5 -66t-61.5 -138l-319 -977q-15 -58 -15 -74q0 -36 32 -51t118 -23l39 -4l-17 -51l-305 6zM727 1556l123 369 h166l-264 -369h-25z" />
<glyph unicode="&#xce;" horiz-adv-x="786" d="M-47 -6l16 51l43 4q113 11 163 55.5t93 174.5l328 999q8 27 8 53q0 36 -31.5 51t-117.5 23l-39 4l16 51l305 -6l305 6l-16 -51l-43 -4q-79 -7 -122 -27t-74.5 -66t-61.5 -138l-319 -977q-15 -58 -15 -74q0 -36 32 -51t118 -23l39 -4l-17 -51l-305 6zM541 1559l290 366h80 l33 -366h-59l-60 200l-215 -200h-69z" />
<glyph unicode="&#xcf;" horiz-adv-x="786" d="M-47 -6l16 51l43 4q113 11 163 55.5t93 174.5l328 999q8 27 8 53q0 36 -31.5 51t-117.5 23l-39 4l16 51l305 -6l305 6l-16 -51l-43 -4q-79 -7 -122 -27t-74.5 -66t-61.5 -138l-319 -977q-15 -58 -15 -74q0 -36 32 -51t118 -23l39 -4l-17 -51l-305 6zM477 1753 q0 39 30 68.5t73 29.5q39 0 68.5 -29.5t29.5 -68.5q0 -41 -29 -71.5t-69 -30.5q-44 0 -73.5 30t-29.5 72zM874 1753q0 39 30 68.5t73 29.5q39 0 68.5 -29.5t29.5 -68.5q0 -41 -29 -71.5t-69 -30.5q-44 0 -73.5 30t-29.5 72z" />
<glyph unicode="&#xd0;" horiz-adv-x="1615" d="M-100 -6l18 51l43 4q118 10 160.5 34.5t68.5 96.5l189 520h-305l20 60h307l183 504q16 46 16 69q0 33 -32 48.5t-115 23.5l-39 4l18 51l301 -6h2l168 6q218 8 381.5 -53t254.5 -186t91 -299q0 -148 -49 -285t-139 -248q-145 -182 -372 -285.5t-486 -103.5h-379zM362 158 q0 -30 11.5 -51.5t25 -31.5t39 -15.5t39 -6t39.5 -0.5h70q147 0 282 48t238.5 133t181 195t118 238.5t40.5 260.5q0 108 -30 192.5t-95.5 150.5t-180 100t-272.5 30l-71 -2l-232 -639h318l-21 -60h-319l-156 -428q-25 -73 -25 -114z" />
<glyph unicode="&#xd1;" horiz-adv-x="1624" d="M-27 -6l19 51l43 4q52 5 83 12.5t58.5 25t45 46.5t32.5 78l340 1083q-26 55 -51.5 80t-65.5 29l-63 6l18 51l240 -6h37l544 -1204l318 1028q10 31 10 59q-1 34 -32 47t-113 21l-39 4l18 51l240 -6l252 6l-19 -51l-43 -4q-54 -5 -83 -11.5t-57.5 -23.5t-46 -47t-32.5 -80 l-389 -1243h-61l-545 1208l-324 -1042q-8 -27 -8 -49q1 -34 32 -47t113 -21l39 -4l-18 -51l-240 6zM850 1663q25 63 98.5 138t155.5 75q51 0 117 -53l59 -45q52 -39 92 -39q77 0 148 104h39q-44 -91 -111 -147t-129 -56q-51 0 -121 52l-41 32q-24 19 -37.5 28.5t-32 17.5 t-36.5 8q-41 0 -88.5 -36.5t-73.5 -78.5h-39z" />
<glyph unicode="&#xd2;" horiz-adv-x="1593" d="M176 494q0 117 32.5 237t91 229t144.5 205t187 166.5t224 111t251 40.5q147 0 262 -60.5t182.5 -180t67.5 -281.5q0 -141 -45.5 -285t-130.5 -269t-196.5 -223.5t-254 -155.5t-291.5 -57q-109 0 -203.5 34t-166.5 98t-113 164.5t-41 226.5zM362 461q0 -202 91 -315 t254 -113q109 0 218 53t199.5 147t160.5 213t109.5 259.5t39.5 279.5q0 207 -88 322.5t-248 115.5q-137 0 -272.5 -84t-236.5 -218t-164 -310t-63 -350zM1073 1925h166l-57 -369h-25z" />
<glyph unicode="&#xd3;" horiz-adv-x="1593" d="M176 494q0 117 32.5 237t91 229t144.5 205t187 166.5t224 111t251 40.5q147 0 262 -60.5t182.5 -180t67.5 -281.5q0 -141 -45.5 -285t-130.5 -269t-196.5 -223.5t-254 -155.5t-291.5 -57q-109 0 -203.5 34t-166.5 98t-113 164.5t-41 226.5zM362 461q0 -202 91 -315 t254 -113q109 0 218 53t199.5 147t160.5 213t109.5 259.5t39.5 279.5q0 207 -88 322.5t-248 115.5q-137 0 -272.5 -84t-236.5 -218t-164 -310t-63 -350zM1139 1556l123 369h165l-264 -369h-24z" />
<glyph unicode="&#xd4;" horiz-adv-x="1593" d="M176 494q0 117 32.5 237t91 229t144.5 205t187 166.5t224 111t251 40.5q147 0 262 -60.5t182.5 -180t67.5 -281.5q0 -141 -45.5 -285t-130.5 -269t-196.5 -223.5t-254 -155.5t-291.5 -57q-109 0 -203.5 34t-166.5 98t-113 164.5t-41 226.5zM362 461q0 -202 91 -315 t254 -113q109 0 218 53t199.5 147t160.5 213t109.5 259.5t39.5 279.5q0 207 -88 322.5t-248 115.5q-137 0 -272.5 -84t-236.5 -218t-164 -310t-63 -350zM952 1559l291 366h80l33 -366h-60l-59 200l-215 -200h-70z" />
<glyph unicode="&#xd5;" horiz-adv-x="1593" d="M176 494q0 117 32.5 237t91 229t144.5 205t187 166.5t224 111t251 40.5q147 0 262 -60.5t182.5 -180t67.5 -281.5q0 -141 -45.5 -285t-130.5 -269t-196.5 -223.5t-254 -155.5t-291.5 -57q-109 0 -203.5 34t-166.5 98t-113 164.5t-41 226.5zM362 461q0 -202 91 -315 t254 -113q109 0 218 53t199.5 147t160.5 213t109.5 259.5t39.5 279.5q0 207 -88 322.5t-248 115.5q-137 0 -272.5 -84t-236.5 -218t-164 -310t-63 -350zM856 1663q25 63 98.5 138t155.5 75q51 0 117 -53l59 -45q52 -39 92 -39q77 0 148 104h39q-44 -91 -111 -147t-129 -56 q-51 0 -121 52l-41 32q-24 19 -37.5 28.5t-32 17.5t-36.5 8q-41 0 -88.5 -36.5t-73.5 -78.5h-39z" />
<glyph unicode="&#xd6;" horiz-adv-x="1593" d="M176 494q0 117 32.5 237t91 229t144.5 205t187 166.5t224 111t251 40.5q147 0 262 -60.5t182.5 -180t67.5 -281.5q0 -141 -45.5 -285t-130.5 -269t-196.5 -223.5t-254 -155.5t-291.5 -57q-109 0 -203.5 34t-166.5 98t-113 164.5t-41 226.5zM362 461q0 -202 91 -315 t254 -113q109 0 218 53t199.5 147t160.5 213t109.5 259.5t39.5 279.5q0 207 -88 322.5t-248 115.5q-137 0 -272.5 -84t-236.5 -218t-164 -310t-63 -350zM889 1753q0 39 29.5 68.5t72.5 29.5q39 0 69 -29.5t30 -68.5q0 -41 -29.5 -71.5t-69.5 -30.5q-44 0 -73 30t-29 72z M1286 1753q0 39 30 68.5t73 29.5q39 0 68.5 -29.5t29.5 -68.5q0 -41 -29 -71.5t-69 -30.5q-44 0 -73.5 30t-29.5 72z" />
<glyph unicode="&#xd7;" horiz-adv-x="1034" d="M43 285l496 364l-224 352l58 48l227 -357l487 359l41 -62l-487 -358l225 -359l-57 -47l-229 361l-496 -363z" />
<glyph unicode="&#xd8;" horiz-adv-x="1593" d="M174 -31l135 156q-133 139 -133 369q0 117 32.5 237t91 229t144.5 205t187 166.5t224 111t251 40.5q179 0 307 -90l80 92h115l-129 -148q139 -139 139 -376q0 -141 -45.5 -285t-130.5 -269t-196.5 -223.5t-254 -155.5t-291.5 -57q-186 0 -325 97l-86 -99h-115zM362 461 q0 -134 41 -230l940 1082q-87 110 -245 110q-137 0 -272.5 -84t-236.5 -218t-164 -310t-63 -350zM449 152q87 -119 258 -119q109 0 218 53t199.5 147t160.5 213t109.5 259.5t39.5 279.5q0 146 -45 248z" />
<glyph unicode="&#xd9;" horiz-adv-x="1552" d="M281 319q0 104 45 244l223 694q14 54 14 74q0 36 -31.5 51t-117.5 23l-39 4l16 51l305 -6l305 6l-16 -51l-43 -4q-60 -6 -96 -16t-66.5 -35.5t-51 -66.5t-42.5 -111l-194 -613q-39 -125 -39 -219q0 -143 80 -225t239 -82q88 0 159.5 26.5t136 87t119 162t101.5 248.5 l232 719q10 38 10 55q0 36 -31 49t-113 21l-38 4l16 51l242 -6l252 6l-17 -51l-43 -4q-57 -5 -85.5 -10.5t-58 -21.5t-47 -44t-32.5 -76l-199 -622q-32 -101 -61 -177t-64 -147.5t-71 -122t-80.5 -93t-96.5 -68t-115 -39t-138 -13.5q-469 0 -469 348zM1106 1925h166 l-58 -369h-24z" />
<glyph unicode="&#xda;" horiz-adv-x="1552" d="M281 319q0 104 45 244l223 694q14 54 14 74q0 36 -31.5 51t-117.5 23l-39 4l16 51l305 -6l305 6l-16 -51l-43 -4q-60 -6 -96 -16t-66.5 -35.5t-51 -66.5t-42.5 -111l-194 -613q-39 -125 -39 -219q0 -143 80 -225t239 -82q88 0 159.5 26.5t136 87t119 162t101.5 248.5 l232 719q10 38 10 55q0 36 -31 49t-113 21l-38 4l16 51l242 -6l252 6l-17 -51l-43 -4q-57 -5 -85.5 -10.5t-58 -21.5t-47 -44t-32.5 -76l-199 -622q-32 -101 -61 -177t-64 -147.5t-71 -122t-80.5 -93t-96.5 -68t-115 -39t-138 -13.5q-469 0 -469 348zM1171 1556l123 369h166 l-264 -369h-25z" />
<glyph unicode="&#xdb;" horiz-adv-x="1552" d="M281 319q0 104 45 244l223 694q14 54 14 74q0 36 -31.5 51t-117.5 23l-39 4l16 51l305 -6l305 6l-16 -51l-43 -4q-60 -6 -96 -16t-66.5 -35.5t-51 -66.5t-42.5 -111l-194 -613q-39 -125 -39 -219q0 -143 80 -225t239 -82q88 0 159.5 26.5t136 87t119 162t101.5 248.5 l232 719q10 38 10 55q0 36 -31 49t-113 21l-38 4l16 51l242 -6l252 6l-17 -51l-43 -4q-57 -5 -85.5 -10.5t-58 -21.5t-47 -44t-32.5 -76l-199 -622q-32 -101 -61 -177t-64 -147.5t-71 -122t-80.5 -93t-96.5 -68t-115 -39t-138 -13.5q-469 0 -469 348zM985 1559l291 366h80 l33 -366h-60l-59 200l-215 -200h-70z" />
<glyph unicode="&#xdc;" horiz-adv-x="1552" d="M281 319q0 104 45 244l223 694q14 54 14 74q0 36 -31.5 51t-117.5 23l-39 4l16 51l305 -6l305 6l-16 -51l-43 -4q-60 -6 -96 -16t-66.5 -35.5t-51 -66.5t-42.5 -111l-194 -613q-39 -125 -39 -219q0 -143 80 -225t239 -82q88 0 159.5 26.5t136 87t119 162t101.5 248.5 l232 719q10 38 10 55q0 36 -31 49t-113 21l-38 4l16 51l242 -6l252 6l-17 -51l-43 -4q-57 -5 -85.5 -10.5t-58 -21.5t-47 -44t-32.5 -76l-199 -622q-32 -101 -61 -177t-64 -147.5t-71 -122t-80.5 -93t-96.5 -68t-115 -39t-138 -13.5q-469 0 -469 348zM922 1753 q0 39 29.5 68.5t72.5 29.5q39 0 68.5 -29.5t29.5 -68.5q0 -41 -29 -71.5t-69 -30.5q-44 0 -73 30t-29 72zM1319 1753q0 39 29.5 68.5t72.5 29.5q39 0 69 -29.5t30 -68.5q0 -41 -29.5 -71.5t-69.5 -30.5q-44 0 -73 30t-29 72z" />
<glyph unicode="&#xdd;" horiz-adv-x="1357" d="M289 1409l18 51l268 -6l299 6l-18 -51l-43 -4q-70 -6 -102.5 -35.5t-32.5 -87.5q0 -31 14 -92l139 -543l455 572q53 67 53 108q0 35 -39 52.5t-120 25.5l-39 4l18 51l262 -6l258 6l-18 -51l-43 -6q-120 -16 -246 -172l-512 -643l-115 -406q-6 -21 -6 -39q0 -21 10 -36.5 t24 -24.5t43.5 -15.5t53.5 -10t68 -7.5l39 -4l-19 -51l-354 6l-297 -6l19 51l43 4q35 4 50 6t39.5 7t35.5 11.5t27.5 17.5t26.5 27t21 38.5t21 52.5l98 354l-162 651q-8 33 -12 47t-12.5 38.5t-16.5 34.5t-22.5 25t-32.5 22t-43.5 14t-58.5 10zM1061 1556l123 369h166 l-265 -369h-24z" />
<glyph unicode="&#xde;" horiz-adv-x="1398" d="M-78 -6l19 51l45 4q110 11 163 56.5t97 168.5l356 983q16 53 16 76q0 35 -34.5 50t-128.5 24l-39 4l18 49l322 -6l305 6l-19 -51l-45 -4q-109 -10 -162.5 -56.5t-97.5 -168.5l-4 -13l141 2q258 3 392.5 -89t134.5 -255q0 -235 -184 -364t-531 -129q-70 0 -147 6l-105 8 l-53 -149q-16 -53 -16 -76q0 -35 34.5 -50t128.5 -24l39 -4l-18 -49l-322 6zM457 403l133 -6q23 -2 67 -2q126 0 226 27.5t162.5 72t104.5 103.5t58.5 117t16.5 119q0 132 -93.5 205t-246.5 73h-172z" />
<glyph unicode="&#xdf;" horiz-adv-x="1214" d="M-104 -6l18 47l33 4q39 5 55.5 8t41.5 11t36 19.5t27.5 34t29.5 53t31 77.5l221 604h-178l16 49h181l43 119q49 132 110 224.5t133 143.5t148 73t168 22q115 0 185.5 -50t70.5 -126q0 -39 -13 -72t-39.5 -61.5t-50.5 -48.5t-63 -49.5t-60 -47.5q-39 -27 -57 -41.5 t-46.5 -43t-41 -59.5t-12.5 -67q0 -12 1 -23t5 -22t6 -19t9 -19.5t10 -16.5t13 -17.5t13 -16l15 -17.5t14 -17q4 -5 25.5 -30.5t28.5 -34t25 -33t25.5 -38.5t20 -39.5t18 -46.5t10 -49t4.5 -56q0 -148 -120.5 -249.5t-305.5 -101.5q-128 0 -204 60.5t-76 140.5q0 57 24.5 93 t75.5 36q32 0 52 -19t20 -49q0 -27 -15.5 -62.5t-15.5 -59.5q0 -40 37.5 -67.5t99.5 -27.5q127 0 204 77.5t77 199.5q0 70 -24.5 124.5t-73.5 110.5q-11 13 -38 41.5t-41 45t-31.5 42.5t-25.5 52t-8 55q0 31 11.5 60t26 50.5t43 47.5t48 41t55.5 41t52 38q48 37 90.5 96.5 t42.5 131.5q0 166 -143 166q-114 0 -198 -85.5t-134 -224.5l-318 -878q-42 -119 -69 -248h-94z" />
<glyph unicode="&#xe0;" d="M55 260q0 125 56.5 250t142.5 215.5t193.5 147.5t205.5 57q92 0 141.5 -58.5t57.5 -158.5l70 188h135l-256 -727q-21 -72 -21 -94q0 -41 33 -41q40 0 83.5 42t74.5 97l37 -24q-109 -183 -250 -183q-115 0 -115 113q0 41 12 88q-145 -201 -323 -201q-137 0 -207 82 t-70 207zM209 219q0 -95 38 -144.5t105 -49.5q114 0 218 109t178 294l24 72q35 100 35 188q0 87 -35.5 138t-105.5 51q-104 0 -212.5 -106.5t-176.5 -261t-68 -290.5zM586 1389q0 37 20 61.5t58 24.5q64 0 67 -132l6 -278h-49l-74 199q-28 79 -28 125z" />
<glyph unicode="&#xe1;" d="M55 260q0 125 56.5 250t142.5 215.5t193.5 147.5t205.5 57q92 0 141.5 -58.5t57.5 -158.5l70 188h135l-256 -727q-21 -72 -21 -94q0 -41 33 -41q40 0 83.5 42t74.5 97l37 -24q-109 -183 -250 -183q-115 0 -115 113q0 41 12 88q-145 -201 -323 -201q-137 0 -207 82 t-70 207zM209 219q0 -95 38 -144.5t105 -49.5q114 0 218 109t178 294l24 72q35 100 35 188q0 87 -35.5 138t-105.5 51q-104 0 -212.5 -106.5t-176.5 -261t-68 -290.5zM672 1065l86 295q15 56 36.5 84.5t59.5 28.5q29 0 45 -20.5t16 -51.5q0 -55 -59 -141l-139 -195h-45z" />
<glyph unicode="&#xe2;" d="M55 260q0 125 56.5 250t142.5 215.5t193.5 147.5t205.5 57q92 0 141.5 -58.5t57.5 -158.5l70 188h135l-256 -727q-21 -72 -21 -94q0 -41 33 -41q40 0 83.5 42t74.5 97l37 -24q-109 -183 -250 -183q-115 0 -115 113q0 41 12 88q-145 -201 -323 -201q-137 0 -207 82 t-70 207zM209 219q0 -95 38 -144.5t105 -49.5q114 0 218 109t178 294l24 72q35 100 35 188q0 87 -35.5 138t-105.5 51q-104 0 -212.5 -106.5t-176.5 -261t-68 -290.5zM487 1067l332 387h80l-8 -387h-60l-30 221l-244 -221h-70z" />
<glyph unicode="&#xe3;" d="M55 260q0 125 56.5 250t142.5 215.5t193.5 147.5t205.5 57q92 0 141.5 -58.5t57.5 -158.5l70 188h135l-256 -727q-21 -72 -21 -94q0 -41 33 -41q40 0 83.5 42t74.5 97l37 -24q-109 -183 -250 -183q-115 0 -115 113q0 41 12 88q-145 -201 -323 -201q-137 0 -207 82 t-70 207zM209 219q0 -95 38 -144.5t105 -49.5q114 0 218 109t178 294l24 72q35 100 35 188q0 87 -35.5 138t-105.5 51q-104 0 -212.5 -106.5t-176.5 -261t-68 -290.5zM418 1155q25 63 98.5 138t155.5 75q50 0 116 -53l60 -45q52 -39 92 -39q76 0 147 104h39 q-44 -91 -110.5 -146.5t-128.5 -55.5q-52 0 -121 51l-41 33q-67 53 -107 53q-41 0 -87.5 -36.5t-73.5 -78.5h-39z" />
<glyph unicode="&#xe4;" d="M55 260q0 125 56.5 250t142.5 215.5t193.5 147.5t205.5 57q92 0 141.5 -58.5t57.5 -158.5l70 188h135l-256 -727q-21 -72 -21 -94q0 -41 33 -41q40 0 83.5 42t74.5 97l37 -24q-109 -183 -250 -183q-115 0 -115 113q0 41 12 88q-145 -201 -323 -201q-137 0 -207 82 t-70 207zM209 219q0 -95 38 -144.5t105 -49.5q114 0 218 109t178 294l24 72q35 100 35 188q0 87 -35.5 138t-105.5 51q-104 0 -212.5 -106.5t-176.5 -261t-68 -290.5zM469 1243q0 39 29.5 68.5t72.5 29.5q39 0 69 -29.5t30 -68.5q0 -41 -29.5 -71.5t-69.5 -30.5 q-44 0 -73 30t-29 72zM866 1243q0 39 30 68.5t73 29.5q39 0 68.5 -29.5t29.5 -68.5q0 -41 -29 -71.5t-69 -30.5q-44 0 -73.5 30t-29.5 72z" />
<glyph unicode="&#xe5;" d="M55 260q0 125 56.5 250t142.5 215.5t193.5 147.5t205.5 57q92 0 141.5 -58.5t57.5 -158.5l70 188h135l-256 -727q-21 -72 -21 -94q0 -41 33 -41q40 0 83.5 42t74.5 97l37 -24q-109 -183 -250 -183q-115 0 -115 113q0 41 12 88q-145 -201 -323 -201q-137 0 -207 82 t-70 207zM209 219q0 -95 38 -144.5t105 -49.5q114 0 218 109t178 294l24 72q35 100 35 188q0 87 -35.5 138t-105.5 51q-104 0 -212.5 -106.5t-176.5 -261t-68 -290.5zM596 1255q0 70 47 122.5t127 52.5q83 0 127.5 -54.5t44.5 -120.5q0 -85 -51 -129.5t-119 -44.5 q-78 0 -127 50t-49 124zM655 1255q0 -55 34 -87.5t83 -32.5q46 0 78.5 31.5t32.5 88.5q0 56 -33 88.5t-80 32.5q-44 0 -79.5 -31t-35.5 -90z" />
<glyph unicode="&#xe6;" horiz-adv-x="1335" d="M53 127q0 59 37.5 115.5t93.5 99t133 82t143.5 65t137.5 46.5q6 19 14 32q31 114 31 185q0 61 -29 97t-92 36q-138 0 -151 -154q-3 -41 -26.5 -67.5t-65.5 -26.5q-41 0 -61.5 24.5t-20.5 63.5q0 33 17 67t52 66t99.5 52t148.5 20q219 0 250 -156q76 71 167 111.5 t179 40.5q96 0 152.5 -48t56.5 -128q-3 -118 -111 -188t-303 -91l-172 -16q-24 -89 -24 -181q0 -64 17 -118t59.5 -92.5t105.5 -38.5q73 0 139 47t113 112l35 -28q-132 -185 -314 -185q-208 0 -282 187q-62 -81 -147.5 -131t-164.5 -50q-98 0 -157.5 39t-59.5 111zM207 154 q0 -47 34 -76t89 -29q54 0 122.5 49t112.5 115q-10 55 -10 102q0 83 25 166q-54 -19 -103 -41t-100 -53.5t-87 -65.5t-59.5 -77.5t-23.5 -89.5zM748 498l114 16q83 12 146 37t97.5 53.5t56.5 63.5t28.5 61t7.5 51q0 105 -90 105q-99 0 -202 -113t-158 -274z" />
<glyph unicode="&#xe7;" horiz-adv-x="897" d="M6 -459l53 10q25 -96 109 -96q85 0 158 89.5t73 193.5q0 43 -23 68.5t-69 25.5q-34 0 -76.5 -23t-78.5 -59l-33 27q100 106 223 106l35 90q-147 9 -225 102t-78 242q0 162 90 305t229.5 225.5t286.5 82.5q71 0 120.5 -16t71 -42t29.5 -48.5t8 -47.5q0 -42 -24.5 -74 t-67.5 -32q-38 0 -61 22.5t-23 59.5q0 10 0.5 30t0 27.5t-1.5 22t-3 20t-7 14t-12 11.5t-17.5 5.5t-24.5 2.5q-81 0 -161.5 -54.5t-140 -138.5t-96.5 -188.5t-37 -200.5q0 -124 52 -202t159 -78t193 86q44 42 80 102l37 -27q-44 -90 -125 -148t-193 -65l-39 -94 q51 -14 79 -52.5t28 -96.5q0 -74 -46.5 -150t-128 -128t-171.5 -52q-70 0 -106.5 42t-45.5 101z" />
<glyph unicode="&#xe8;" horiz-adv-x="856" d="M76 315q0 122 50.5 236.5t129.5 195.5t178.5 130t196.5 49q96 0 152.5 -48t56.5 -128q-3 -118 -111 -188t-303 -91l-172 -16q-25 -92 -25 -181q0 -101 45.5 -175t137.5 -74q73 0 139 47t113 112l34 -28q-132 -185 -313 -185q-79 0 -139.5 28t-97 76.5t-54.5 109 t-18 130.5zM268 498l115 16q83 12 146 37t97.5 53.5t56.5 63.5t28.5 61t7.5 51q0 105 -90 105q-99 0 -202.5 -113.5t-158.5 -273.5zM528 1389q0 37 20 61.5t58 24.5q65 0 68 -132l6 -278h-49l-74 199q-29 82 -29 125z" />
<glyph unicode="&#xe9;" horiz-adv-x="856" d="M76 315q0 122 50.5 236.5t129.5 195.5t178.5 130t196.5 49q96 0 152.5 -48t56.5 -128q-3 -118 -111 -188t-303 -91l-172 -16q-25 -92 -25 -181q0 -101 45.5 -175t137.5 -74q73 0 139 47t113 112l34 -28q-132 -185 -313 -185q-79 0 -139.5 28t-97 76.5t-54.5 109 t-18 130.5zM268 498l115 16q83 12 146 37t97.5 53.5t56.5 63.5t28.5 61t7.5 51q0 105 -90 105q-99 0 -202.5 -113.5t-158.5 -273.5zM614 1065l86 295q15 55 37 84t60 29q29 0 45 -20.5t16 -51.5q0 -55 -59 -141l-140 -195h-45z" />
<glyph unicode="&#xea;" horiz-adv-x="856" d="M76 315q0 122 50.5 236.5t129.5 195.5t178.5 130t196.5 49q96 0 152.5 -48t56.5 -128q-3 -118 -111 -188t-303 -91l-172 -16q-25 -92 -25 -181q0 -101 45.5 -175t137.5 -74q73 0 139 47t113 112l34 -28q-132 -185 -313 -185q-79 0 -139.5 28t-97 76.5t-54.5 109 t-18 130.5zM268 498l115 16q83 12 146 37t97.5 53.5t56.5 63.5t28.5 61t7.5 51q0 105 -90 105q-99 0 -202.5 -113.5t-158.5 -273.5zM430 1067l332 387h80l-8 -387h-60l-31 221l-243 -221h-70z" />
<glyph unicode="&#xeb;" horiz-adv-x="856" d="M76 315q0 122 50.5 236.5t129.5 195.5t178.5 130t196.5 49q96 0 152.5 -48t56.5 -128q-3 -118 -111 -188t-303 -91l-172 -16q-25 -92 -25 -181q0 -101 45.5 -175t137.5 -74q73 0 139 47t113 112l34 -28q-132 -185 -313 -185q-79 0 -139.5 28t-97 76.5t-54.5 109 t-18 130.5zM268 498l115 16q83 12 146 37t97.5 53.5t56.5 63.5t28.5 61t7.5 51q0 105 -90 105q-99 0 -202.5 -113.5t-158.5 -273.5zM412 1243q0 39 29.5 68.5t72.5 29.5q39 0 68.5 -29.5t29.5 -68.5q0 -41 -29 -71.5t-69 -30.5q-44 0 -73 30t-29 72zM809 1243 q0 39 29.5 68.5t72.5 29.5q39 0 69 -29.5t30 -68.5q0 -41 -29.5 -71.5t-69.5 -30.5q-44 0 -73 30t-29 72z" />
<glyph unicode="&#xec;" horiz-adv-x="571" d="M90 84q0 56 31 147l178 480q16 46 16 71q0 17 -5 29.5t-16.5 20t-22 12t-31 6t-32 2t-37.5 0.5h-11l14 49l332 6l-258 -733q-21 -72 -21 -94q0 -41 33 -41q40 0 83.5 42t74.5 97l37 -24q-109 -183 -250 -183q-115 0 -115 113zM332 1389q0 37 20 61.5t58 24.5 q64 0 67 -132l6 -278h-49l-74 199q-28 79 -28 125z" />
<glyph unicode="&#xed;" horiz-adv-x="571" d="M90 84q0 56 31 147l178 480q16 46 16 71q0 17 -5 29.5t-16.5 20t-22 12t-31 6t-32 2t-37.5 0.5h-11l14 49l332 6l-258 -733q-21 -72 -21 -94q0 -41 33 -41q40 0 83.5 42t74.5 97l37 -24q-109 -183 -250 -183q-115 0 -115 113zM418 1065l86 295q15 56 36.5 84.5t59.5 28.5 q29 0 45.5 -20.5t16.5 -51.5q0 -54 -60 -141l-139 -195h-45z" />
<glyph unicode="&#xee;" horiz-adv-x="571" d="M90 84q0 56 31 147l178 480q16 46 16 71q0 17 -5 29.5t-16.5 20t-22 12t-31 6t-32 2t-37.5 0.5h-11l14 49l332 6l-258 -733q-21 -72 -21 -94q0 -41 33 -41q40 0 83.5 42t74.5 97l37 -24q-109 -183 -250 -183q-115 0 -115 113zM233 1067l332 387h80l-8 -387h-59l-31 221 l-244 -221h-70z" />
<glyph unicode="&#xef;" horiz-adv-x="571" d="M90 84q0 56 31 147l178 480q16 46 16 71q0 17 -5 29.5t-16.5 20t-22 12t-31 6t-32 2t-37.5 0.5h-11l14 49l332 6l-258 -733q-21 -72 -21 -94q0 -41 33 -41q40 0 83.5 42t74.5 97l37 -24q-109 -183 -250 -183q-115 0 -115 113zM195 1247q0 39 29.5 69t72.5 30 q39 0 68.5 -30t29.5 -69q0 -41 -29 -71.5t-69 -30.5q-44 0 -73 30t-29 72zM516 1247q0 39 29.5 69t72.5 30q39 0 69 -30t30 -69q0 -41 -29.5 -71.5t-69.5 -30.5q-44 0 -73 30t-29 72z" />
<glyph unicode="&#xf0;" horiz-adv-x="1060" d="M74 305q0 120 47.5 235t125.5 200.5t184.5 137.5t219.5 52q155 0 246 -94q-6 219 -88 376l-256 -45v52l231 41q-60 98 -170 223h45q122 -82 209 -209l244 43v-49l-213 -39q133 -214 133 -443q0 -113 -26.5 -228t-80 -220.5t-127.5 -187t-177 -130.5t-220 -49 q-105 0 -181 47t-111 121t-35 166zM219 248q0 -114 46 -173t134 -59q72 0 141 44.5t121 115.5t92.5 156.5t61.5 171t21 155.5q0 110 -46.5 168t-134.5 58q-72 0 -141 -44t-121 -114.5t-92 -155t-61 -169.5t-21 -154z" />
<glyph unicode="&#xf1;" horiz-adv-x="1097" d="M29 0l254 705q18 50 20.5 79t-14.5 44.5t-44.5 19.5t-80.5 4l16 49l301 6l-65 -219q76 105 177.5 173.5t217.5 68.5q245 0 156 -252l-185 -514q-18 -43 -15.5 -84t34.5 -41q74 0 153 133l37 -25q-107 -176 -250 -176q-114 0 -114 111q0 55 30 143l179 504 q25 65 6.5 107.5t-76.5 42.5q-71 0 -156.5 -58t-150.5 -139t-92 -156l-191 -526h-147zM432 1155q25 63 98.5 138t155.5 75q51 0 117 -53l59 -45q52 -39 92 -39q77 0 148 104h39q-44 -91 -111 -146.5t-129 -55.5q-52 0 -121 51l-41 33q-35 28 -58 40.5t-48 12.5 q-41 0 -88.5 -36.5t-73.5 -78.5h-39z" />
<glyph unicode="&#xf2;" horiz-adv-x="1052" d="M74 305q0 120 47.5 235t125.5 200.5t184.5 137.5t219.5 52q158 0 244 -94.5t86 -233.5q0 -162 -79.5 -308t-214 -234.5t-286.5 -88.5q-105 0 -181 47t-111 121t-35 166zM219 248q0 -114 46 -173t134 -59q72 0 141 44.5t121 115.5t92.5 156.5t61.5 171t21 155.5 q0 110 -46.5 168t-134.5 58q-72 0 -141 -44t-121 -114.5t-92 -155t-61 -169.5t-21 -154zM600 1389q0 37 20 61.5t58 24.5q64 0 67 -132l7 -278h-50l-73 199q-29 82 -29 125z" />
<glyph unicode="&#xf3;" horiz-adv-x="1052" d="M74 305q0 120 47.5 235t125.5 200.5t184.5 137.5t219.5 52q158 0 244 -94.5t86 -233.5q0 -162 -79.5 -308t-214 -234.5t-286.5 -88.5q-105 0 -181 47t-111 121t-35 166zM219 248q0 -114 46 -173t134 -59q72 0 141 44.5t121 115.5t92.5 156.5t61.5 171t21 155.5 q0 110 -46.5 168t-134.5 58q-72 0 -141 -44t-121 -114.5t-92 -155t-61 -169.5t-21 -154zM686 1065l86 295q15 56 36.5 84.5t59.5 28.5q29 0 45.5 -20.5t16.5 -51.5q0 -54 -60 -141l-139 -195h-45z" />
<glyph unicode="&#xf4;" horiz-adv-x="1052" d="M74 305q0 120 47.5 235t125.5 200.5t184.5 137.5t219.5 52q158 0 244 -94.5t86 -233.5q0 -162 -79.5 -308t-214 -234.5t-286.5 -88.5q-105 0 -181 47t-111 121t-35 166zM219 248q0 -114 46 -173t134 -59q72 0 141 44.5t121 115.5t92.5 156.5t61.5 171t21 155.5 q0 110 -46.5 168t-134.5 58q-72 0 -141 -44t-121 -114.5t-92 -155t-61 -169.5t-21 -154zM502 1067l332 387h79l-8 -387h-59l-31 221l-244 -221h-69z" />
<glyph unicode="&#xf5;" horiz-adv-x="1052" d="M74 305q0 120 47.5 235t125.5 200.5t184.5 137.5t219.5 52q158 0 244 -94.5t86 -233.5q0 -162 -79.5 -308t-214 -234.5t-286.5 -88.5q-105 0 -181 47t-111 121t-35 166zM219 248q0 -114 46 -173t134 -59q72 0 141 44.5t121 115.5t92.5 156.5t61.5 171t21 155.5 q0 110 -46.5 168t-134.5 58q-72 0 -141 -44t-121 -114.5t-92 -155t-61 -169.5t-21 -154zM432 1155q25 63 98.5 138t155.5 75q51 0 117 -53l59 -45q52 -39 92 -39q77 0 148 104h39q-44 -91 -111 -146.5t-129 -55.5q-52 0 -121 51l-41 33q-35 28 -58 40.5t-48 12.5 q-41 0 -88.5 -36.5t-73.5 -78.5h-39z" />
<glyph unicode="&#xf6;" horiz-adv-x="1052" d="M74 305q0 120 47.5 235t125.5 200.5t184.5 137.5t219.5 52q158 0 244 -94.5t86 -233.5q0 -162 -79.5 -308t-214 -234.5t-286.5 -88.5q-105 0 -181 47t-111 121t-35 166zM219 248q0 -114 46 -173t134 -59q72 0 141 44.5t121 115.5t92.5 156.5t61.5 171t21 155.5 q0 110 -46.5 168t-134.5 58q-72 0 -141 -44t-121 -114.5t-92 -155t-61 -169.5t-21 -154zM483 1243q0 39 30 68.5t73 29.5q39 0 68.5 -29.5t29.5 -68.5q0 -41 -29 -71.5t-69 -30.5q-44 0 -73.5 30t-29.5 72zM881 1243q0 39 29.5 68.5t72.5 29.5q39 0 68.5 -29.5t29.5 -68.5 q0 -41 -29 -71.5t-69 -30.5q-44 0 -73 30t-29 72z" />
<glyph unicode="&#xf7;" horiz-adv-x="1228" d="M184 614l27 74h893l-27 -74h-893zM446 262q0 44 31.5 77.5t71.5 33.5q38 0 65 -29.5t27 -69.5q0 -44 -31 -76t-71 -32q-38 0 -65.5 28t-27.5 68zM653 967q0 44 31.5 77t71.5 33q38 0 65 -29t27 -69q0 -44 -31.5 -76.5t-71.5 -32.5q-38 0 -65 28.5t-27 68.5z" />
<glyph unicode="&#xf8;" horiz-adv-x="1052" d="M-78 -25l189 164q-37 73 -37 166q0 120 47.5 235t125.5 200.5t184.5 137.5t219.5 52q159 0 252 -103l115 101h115l-189 -164q37 -73 37 -162q0 -162 -79.5 -308t-214 -234.5t-286.5 -88.5q-158 0 -247 103l-115 -99h-117zM219 233l604 525q-38 127 -168 127 q-72 0 -141 -44t-121 -114.5t-92 -155t-61 -169.5t-21 -154v-15zM231 143q38 -127 168 -127q72 0 141 44.5t121 115.5t92.5 156.5t61.5 171t21 155.5v11z" />
<glyph unicode="&#xf9;" d="M114.5 47.5q-38.5 76.5 20.5 233.5l162 428q16 41 16 75q0 17 -4.5 29t-16 19.5t-20.5 11.5t-30 6t-31 2h-35h-16l14 49l336 6l-246 -686q-34 -88 -19 -143t79 -55q99 0 220 115.5t169 242.5l194 520h135l-256 -727q-20 -68 -20 -94q0 -41 33 -41q40 0 83 42t74 97 l37 -24q-109 -183 -250 -183q-114 0 -114 113q0 40 16 102q-73 -96 -165 -155.5t-195 -59.5q-132 0 -170.5 76.5zM573 1389q0 37 20 61.5t58 24.5q65 0 68 -132l6 -278h-49l-74 199q-29 82 -29 125z" />
<glyph unicode="&#xfa;" d="M114.5 47.5q-38.5 76.5 20.5 233.5l162 428q16 41 16 75q0 17 -4.5 29t-16 19.5t-20.5 11.5t-30 6t-31 2h-35h-16l14 49l336 6l-246 -686q-34 -88 -19 -143t79 -55q99 0 220 115.5t169 242.5l194 520h135l-256 -727q-20 -68 -20 -94q0 -41 33 -41q40 0 83 42t74 97 l37 -24q-109 -183 -250 -183q-114 0 -114 113q0 40 16 102q-73 -96 -165 -155.5t-195 -59.5q-132 0 -170.5 76.5zM659 1065l86 295q15 55 37 84t60 29q29 0 45 -20.5t16 -51.5q0 -55 -59 -141l-139 -195h-46z" />
<glyph unicode="&#xfb;" d="M114.5 47.5q-38.5 76.5 20.5 233.5l162 428q16 41 16 75q0 17 -4.5 29t-16 19.5t-20.5 11.5t-30 6t-31 2h-35h-16l14 49l336 6l-246 -686q-34 -88 -19 -143t79 -55q99 0 220 115.5t169 242.5l194 520h135l-256 -727q-20 -68 -20 -94q0 -41 33 -41q40 0 83 42t74 97 l37 -24q-109 -183 -250 -183q-114 0 -114 113q0 40 16 102q-73 -96 -165 -155.5t-195 -59.5q-132 0 -170.5 76.5zM475 1067l332 387h80l-8 -387h-60l-31 221l-243 -221h-70z" />
<glyph unicode="&#xfc;" d="M114.5 47.5q-38.5 76.5 20.5 233.5l162 428q16 41 16 75q0 17 -4.5 29t-16 19.5t-20.5 11.5t-30 6t-31 2h-35h-16l14 49l336 6l-246 -686q-34 -88 -19 -143t79 -55q99 0 220 115.5t169 242.5l194 520h135l-256 -727q-20 -68 -20 -94q0 -41 33 -41q40 0 83 42t74 97 l37 -24q-109 -183 -250 -183q-114 0 -114 113q0 40 16 102q-73 -96 -165 -155.5t-195 -59.5q-132 0 -170.5 76.5zM457 1243q0 39 29.5 68.5t72.5 29.5q39 0 68.5 -29.5t29.5 -68.5q0 -41 -29 -71.5t-69 -30.5q-44 0 -73 30t-29 72zM854 1243q0 39 29.5 68.5t72.5 29.5 q40 0 69.5 -29.5t29.5 -68.5q0 -41 -29.5 -71.5t-69.5 -30.5q-44 0 -73 30t-29 72z" />
<glyph unicode="&#xfd;" horiz-adv-x="985" d="M-272 -487q0 43 31.5 71.5t76.5 28.5q33 0 64.5 -23t62 -46t60.5 -23q40 0 91 34.5t95 96.5l82 115q7 10 29 40t30 42t21 34t17.5 38t4.5 32q0 72 -96 268q-82 168 -103 231q-22 68 -22 117q0 51 16.5 94.5t49.5 80t66.5 62.5t84.5 58l-211 -12l17 49l313 17l10 -35 q-100 -49 -139 -102.5t-39 -129.5q0 -118 90 -397l70 -197l205 287q57 77 89.5 159.5t32.5 141.5q0 41 -16.5 80.5t-33 70.5t-17.5 50q0 31 27.5 57.5t70.5 26.5t79 -46.5t36 -121.5q0 -42 -10.5 -82.5t-34.5 -83.5t-38.5 -65t-45.5 -66l-588 -823q-74 -104 -178.5 -170 t-204.5 -66q-64 0 -104.5 30t-40.5 77zM616 1065l86 295q15 55 37 84t60 29q29 0 45 -20.5t16 -51.5q0 -55 -59 -141l-139 -195h-46z" />
<glyph unicode="&#xfe;" horiz-adv-x="1079" d="M-299 -573l16 49h50q45 0 67 21t49 93l613 1670q16 41 16 75q0 20 -8.5 34t-18.5 21t-33 10.5t-36 4t-42 0.5h-16l15 49l340 6l-262 -684q40 46 73 70q111 84 215 84q124 0 198.5 -87.5t74.5 -228.5q0 -126 -50 -246.5t-129 -206.5t-178.5 -138t-195.5 -52q-85 0 -142 56 t-69 157l-217 -596q-19 -59 -19 -77q0 -21 13 -28t43 -7h69l-14 -49h-422zM291 229q0 -97 44.5 -150.5t121.5 -53.5q96 0 190.5 98t152.5 245t58 287q0 111 -40 165t-111 54q-89 0 -187 -92.5t-145 -220.5l-39 -108q-45 -125 -45 -224z" />
<glyph unicode="&#xff;" horiz-adv-x="985" d="M-272 -487q0 43 31.5 71.5t76.5 28.5q33 0 64.5 -23t62 -46t60.5 -23q40 0 91 34.5t95 96.5l82 115q7 10 29 40t30 42t21 34t17.5 38t4.5 32q0 72 -96 268q-82 168 -103 231q-22 68 -22 117q0 51 16.5 94.5t49.5 80t66.5 62.5t84.5 58l-211 -12l17 49l313 17l10 -35 q-100 -49 -139 -102.5t-39 -129.5q0 -118 90 -397l70 -197l205 287q57 77 89.5 159.5t32.5 141.5q0 41 -16.5 80.5t-33 70.5t-17.5 50q0 31 27.5 57.5t70.5 26.5t79 -46.5t36 -121.5q0 -42 -10.5 -82.5t-34.5 -83.5t-38.5 -65t-45.5 -66l-588 -823q-74 -104 -178.5 -170 t-204.5 -66q-64 0 -104.5 30t-40.5 77zM414 1243q0 39 29.5 68.5t72.5 29.5q39 0 68.5 -29.5t29.5 -68.5q0 -41 -29 -71.5t-69 -30.5q-44 0 -73 30t-29 72zM811 1243q0 39 29.5 68.5t72.5 29.5q39 0 69 -29.5t30 -68.5q0 -41 -29.5 -71.5t-69.5 -30.5q-44 0 -73 30t-29 72z " />
<glyph unicode="&#x152;" horiz-adv-x="2140" d="M162 440q0 124 33.5 250.5t93.5 240.5t148 214t191.5 173t230 115t257.5 42q94 0 174 -21h910l-5 -123l-2 -252h-53q0 326 -254 326l-309 -2l-221 -608h286q37 0 61.5 7t53.5 31.5t57 74.5t60 132h53l-104 -280l-101 -297h-53q43 119 43 182q0 93 -88 96h-287l-141 -387 q-4 -8 -8 -24l-2 -2q-37 -101 -37 -162q0 -63 42 -91t130 -26l283 2q71 1 128 17.5t100.5 45.5t82 77.5t69 104t64.5 134.5h53l-102 -278l-49 -152h-1084q-110 -29 -209 -29q-104 0 -193 29t-157 86t-106.5 147.5t-38.5 206.5zM336 430q0 -189 86.5 -293t243.5 -104 q102 0 190.5 44t120.5 124l385 1063q6 18 6 32q0 56 -73 87.5t-171 31.5q-146 0 -291.5 -87t-253.5 -224.5t-175.5 -317t-67.5 -356.5z" />
<glyph unicode="&#x153;" horiz-adv-x="1562" d="M74 305q0 120 47.5 235t125.5 200.5t184.5 137.5t219.5 52q115 0 192 -51.5t113 -139.5q80 87 181 137t200 50q96 0 152.5 -48t56.5 -128q-3 -119 -111 -188.5t-302 -90.5l-170 -16l-13 -45q-14 -79 -14 -136q0 -64 17 -118t59.5 -92.5t105.5 -38.5q73 0 139 47t113 112 l35 -28q-132 -185 -313 -185q-109 0 -181 51.5t-104 139.5q-80 -89 -186 -140t-220 -51q-105 0 -181 47t-111 121t-35 166zM219 248q0 -114 46 -173t134 -59q66 0 129 36.5t113.5 98t90 135.5t65.5 154q5 34 18 70q21 80 21 149q0 110 -46.5 168t-134.5 58q-72 0 -141 -44 t-121 -114.5t-92 -155t-61 -169.5t-21 -154zM975 498l115 16q83 12 146 37t97.5 53.5t56 63.5t28 61t7.5 51q0 105 -90 105q-99 0 -202 -113t-158 -274z" />
<glyph unicode="&#x178;" horiz-adv-x="1357" d="M289 1409l18 51l268 -6l299 6l-18 -51l-43 -4q-70 -6 -102.5 -35.5t-32.5 -87.5q0 -31 14 -92l139 -543l455 572q53 67 53 108q0 35 -39 52.5t-120 25.5l-39 4l18 51l262 -6l258 6l-18 -51l-43 -6q-120 -16 -246 -172l-512 -643l-115 -406q-6 -21 -6 -39q0 -21 10 -36.5 t24 -24.5t43.5 -15.5t53.5 -10t68 -7.5l39 -4l-19 -51l-354 6l-297 -6l19 51l43 4q35 4 50 6t39.5 7t35.5 11.5t27.5 17.5t26.5 27t21 38.5t21 52.5l98 354l-162 651q-8 33 -12 47t-12.5 38.5t-16.5 34.5t-22.5 25t-32.5 22t-43.5 14t-58.5 10zM811 1753q0 39 29.5 68.5 t72.5 29.5q39 0 69 -29.5t30 -68.5q0 -41 -29.5 -71.5t-69.5 -30.5q-44 0 -73 30t-29 72zM1208 1753q0 39 30 68.5t73 29.5q39 0 68.5 -29.5t29.5 -68.5q0 -41 -29 -71.5t-69 -30.5q-44 0 -73.5 30t-29.5 72z" />
<glyph unicode="&#x2c6;" horiz-adv-x="587" d="M317 1067l332 387h80l-8 -387h-59l-31 221l-244 -221h-70z" />
<glyph unicode="&#x2dc;" horiz-adv-x="804" d="M336 1155q25 63 98.5 138t155.5 75q51 0 117 -53l59 -45q52 -39 92 -39q77 0 148 104h38q-44 -91 -110.5 -146.5t-128.5 -55.5q-52 0 -121 51l-41 33q-35 28 -58 40.5t-48 12.5q-41 0 -88.5 -36.5t-73.5 -78.5h-39z" />
<glyph unicode="&#x2000;" horiz-adv-x="977" />
<glyph unicode="&#x2001;" horiz-adv-x="1954" />
<glyph unicode="&#x2002;" horiz-adv-x="977" />
<glyph unicode="&#x2003;" horiz-adv-x="1954" />
<glyph unicode="&#x2004;" horiz-adv-x="651" />
<glyph unicode="&#x2005;" horiz-adv-x="488" />
<glyph unicode="&#x2006;" horiz-adv-x="325" />
<glyph unicode="&#x2007;" horiz-adv-x="325" />
<glyph unicode="&#x2008;" horiz-adv-x="244" />
<glyph unicode="&#x2009;" horiz-adv-x="390" />
<glyph unicode="&#x200a;" horiz-adv-x="108" />
<glyph unicode="&#x2010;" horiz-adv-x="794" d="M109 401l24 74h547l-25 -74h-546z" />
<glyph unicode="&#x2011;" horiz-adv-x="794" d="M109 401l24 74h547l-25 -74h-546z" />
<glyph unicode="&#x2012;" horiz-adv-x="794" d="M109 401l24 74h547l-25 -74h-546z" />
<glyph unicode="&#x2013;" horiz-adv-x="1011" d="M23 401l26 74h930l-27 -74h-929z" />
<glyph unicode="&#x2014;" horiz-adv-x="1507" d="M29 401l32 74h1424l-33 -74h-1423z" />
<glyph unicode="&#x2018;" horiz-adv-x="473" d="M387 1133q0 56 33 127q52 108 135.5 159t196.5 64l6 -58q-93 -6 -171.5 -51.5t-123.5 -130.5q-25 -48 -25 -82q0 -20 13 -20q7 0 16 22q23 54 82 54q50 0 82.5 -32.5t32.5 -80.5q0 -59 -38 -97t-96 -38q-68 0 -105.5 46t-37.5 118z" />
<glyph unicode="&#x2019;" horiz-adv-x="479" d="M283 1014q93 6 171.5 51.5t123.5 130.5q24 46 24 82q0 20 -12 20q-8 0 -17 -22q-22 -53 -81 -53q-50 0 -82.5 32t-32.5 80q0 59 37.5 97t95.5 38q68 0 105.5 -45.5t37.5 -117.5q0 -58 -32 -127q-52 -108 -135.5 -159.5t-196.5 -64.5z" />
<glyph unicode="&#x201a;" horiz-adv-x="475" d="M-139 -309q48 10 88.5 22.5t85.5 33t79 45.5t63.5 62.5t45.5 82.5q15 47 15 90q0 46 -21 67l-6 -8q4 -8 4 -20q3 -43 -22 -73t-72 -30q-51 0 -85 38.5t-34 92.5q0 52 35.5 88.5t91.5 36.5q64 0 114 -51.5t54 -126.5q7 -97 -43.5 -183t-142.5 -141q-96 -59 -240 -84z" />
<glyph unicode="&#x201c;" horiz-adv-x="913" d="M387 1133q0 56 33 127q52 108 135.5 159t196.5 64l6 -58q-93 -6 -171.5 -51.5t-123.5 -130.5q-25 -48 -25 -82q0 -20 13 -20q7 0 16 22q23 54 82 54q50 0 82.5 -32.5t32.5 -80.5q0 -59 -38 -97t-96 -38q-68 0 -105.5 46t-37.5 118zM827 1133q0 56 33 127 q52 108 135.5 159t196.5 64l6 -58q-93 -6 -171.5 -51.5t-123.5 -130.5q-24 -46 -24 -82q0 -20 12 -20q7 0 16 22q23 54 82 54q50 0 82.5 -32.5t32.5 -80.5q0 -60 -38 -97.5t-95 -37.5q-68 0 -106 46t-38 118z" />
<glyph unicode="&#x201d;" horiz-adv-x="921" d="M287 1022q93 6 171.5 51.5t123.5 130.5q24 46 24 82q0 21 -12 21q-2 0 -3 -0.5t-2.5 -1.5t-2.5 -2.5t-2 -3.5t-1.5 -4t-2 -5.5t-2.5 -5.5q-22 -53 -82 -53q-50 0 -82.5 32t-32.5 80q0 60 38 98t95 38q68 0 105.5 -46t37.5 -118q0 -58 -32 -127q-52 -108 -135.5 -159 t-196.5 -64zM727 1022q93 6 171.5 51.5t123.5 130.5q25 48 25 82q0 21 -13 21q-2 0 -3 -0.5t-2.5 -1.5t-2.5 -2.5t-2 -3.5t-1.5 -4t-2 -5.5t-2.5 -5.5q-22 -53 -82 -53q-50 0 -82.5 32t-32.5 80q0 60 38 98t95 38q68 0 106 -46t38 -118q0 -56 -33 -127q-52 -108 -135.5 -159 t-196.5 -64z" />
<glyph unicode="&#x201e;" horiz-adv-x="880" d="M287 -225q93 6 171.5 51.5t123.5 130.5q24 46 24 82q0 20 -12 20q-7 0 -16 -22q-22 -53 -82 -53q-50 0 -82.5 32t-32.5 80q0 60 37.5 97.5t95.5 37.5q68 0 105.5 -45.5t37.5 -117.5q0 -58 -32 -127q-52 -108 -135.5 -159.5t-196.5 -64.5zM727 -225q93 6 171.5 51.5 t123.5 130.5q25 48 25 82q0 20 -13 20q-7 0 -16 -22q-22 -53 -82 -53q-50 0 -82.5 32t-32.5 80q0 60 37.5 97.5t95.5 37.5q68 0 106 -45.5t38 -117.5q0 -56 -33 -127q-52 -108 -135.5 -159.5t-196.5 -64.5z" />
<glyph unicode="&#x2022;" horiz-adv-x="606" d="M209 657q0 67 49.5 116.5t122.5 49.5q68 0 117 -49.5t49 -116.5q0 -71 -48.5 -120.5t-117.5 -49.5q-74 0 -123 49.5t-49 120.5z" />
<glyph unicode="&#x2026;" horiz-adv-x="1761" d="M2 100q0 48 35 83.5t88 35.5q49 0 84 -35.5t35 -83.5q0 -51 -35 -87t-84 -36q-53 0 -88 35.5t-35 87.5zM633 100q0 48 35 83.5t88 35.5q49 0 83.5 -35.5t34.5 -83.5q0 -51 -34.5 -87t-83.5 -36q-53 0 -88 35.5t-35 87.5zM1262 100q0 49 34.5 84t87.5 35q49 0 84 -35.5 t35 -83.5q0 -51 -35 -87t-84 -36q-53 0 -87.5 35.5t-34.5 87.5z" />
<glyph unicode="&#x202f;" horiz-adv-x="390" />
<glyph unicode="&#x2039;" horiz-adv-x="559" d="M115 367q0 78 36.5 154.5t95 134.5t127.5 100t136 61l18 -51q-121 -57 -212 -177t-91 -241q0 -143 119 -207l-18 -51q-102 29 -156.5 107t-54.5 170z" />
<glyph unicode="&#x203a;" horiz-adv-x="559" d="M33 141q121 57 212 177t91 241q0 143 -119 207l19 51q102 -29 156 -106.5t54 -169.5q0 -78 -36.5 -154.5t-95 -134.5t-127.5 -100.5t-136 -61.5z" />
<glyph unicode="&#x205f;" horiz-adv-x="488" />
<glyph unicode="&#x20ac;" horiz-adv-x="1404" d="M-45 530l22 66h197q16 92 45 176h-176l23 66h178q55 133 141.5 248.5t194.5 202t239.5 136.5t267.5 50q82 0 152.5 -18.5t108 -40t70 -40t48.5 -18.5q23 0 78 69h53l-86 -210l-77 -224h-54q13 70 13 119q0 146 -78.5 223.5t-212.5 77.5q-133 0 -267.5 -76.5t-242.5 -207 t-172 -291.5h704l-51 -66h-676q-28 -80 -41 -176h598l-51 -66h-553q-2 -16 -2 -51q0 -207 79 -322.5t241 -115.5q236 0 434 225q93 103 155 240h54q-21 -53 -65.5 -130t-108.5 -151q-48 -54 -94 -93.5t-108 -77t-140 -57.5t-168 -20q-98 0 -180 28.5t-146.5 84.5t-100.5 149 t-36 214q0 23 4 77h-213z" />
<glyph unicode="&#x2122;" horiz-adv-x="2048" d="M371 1245l67 129l39 84l322 -4h106l324 4l-15 -84l-12 -129l-28 -6q-7 50 -12.5 74t-18.5 49.5t-35 35t-57 9.5h-150l-180 -555q-14 -40 -14 -59q0 -23 20.5 -30.5t75.5 -12.5l24 -2l-14 -39l-199 4l-206 -4l14 39l24 2q77 6 100.5 21t45.5 81l180 555h-143 q-65 0 -108.5 -33t-129.5 -133zM1059 709l14 39l23 2q57 5 76.5 20.5t41.5 81.5l152 463q16 48 16 67t-14.5 25.5t-52.5 9.5l-23 2l8 39l162 -4h86l70 -555l450 555h68l186 4l-8 -41l-22 -2q-64 -5 -88 -21t-45 -79l-152 -463q-12 -38 -12 -64q0 -22 16.5 -28.5t61.5 -9.5 l22 -2l-14 -39l-195 4l-168 -4l15 39l22 2q64 6 84.5 21t42.5 81l164 502l-522 -641h-23l-71 637l-162 -498q-13 -44 -13 -66q0 -20 14 -26.5t54 -9.5l23 -2l-15 -39l-137 4z" />
<glyph unicode="&#x25fc;" horiz-adv-x="931" d="M0 0v932h932v-932h-932z" />
</font>
</defs>
</svg>
