<?xml version="1.0" standalone="no"?>
<!DOCTYPE svg PUBLIC "-//W3C//DTD SVG 1.1//EN" "http://www.w3.org/Graphics/SVG/1.1/DTD/svg11.dtd" >
<svg xmlns="http://www.w3.org/2000/svg" xmlns:xlink="http://www.w3.org/1999/xlink" version="1.1">
<metadata></metadata>
<defs>
<font id="baskervvilleregular" horiz-adv-x="1675" >
<font-face units-per-em="2048" ascent="1454" descent="-594" />
<missing-glyph horiz-adv-x="540" />
<glyph unicode="&#xfb01;" horiz-adv-x="1161" d="M51 842v51h197v139q0 451 389 451q59 0 115.5 -15t104.5 -43t77 -75.5t29 -106.5q0 -52 -27.5 -83.5t-73.5 -31.5q-38 0 -64 23t-26 59q0 26 19.5 50.5t19.5 42.5q0 48 -51.5 88.5t-122.5 40.5q-63 0 -109 -24t-71.5 -60.5t-41 -93.5t-20 -110t-4.5 -122v-129h246 q183 0 324 25v-670q0 -47 2 -78t10.5 -53.5t16 -34t28.5 -19.5t37.5 -11t52.5 -7l33 -4v-47l-252 6l-252 -6v47l33 4q36 4 52.5 7t37.5 11t28.5 19.5t16 34t10.5 53.5t2 78v432q0 81 -26 116.5t-80 45.5h-320v-594q0 -70 4 -107.5t20.5 -58t34 -26t60.5 -11.5l33 -4v-47 l-224 6l-251 -6v47l32 4q31 4 46 6.5t35 7.5t28 14t18 22.5t13 34.5t5.5 49.5t2.5 68.5v594h-197z" />
<glyph unicode="&#xfb02;" horiz-adv-x="1163" d="M51 -6v47l33 4q36 4 52.5 7t37.5 11t28.5 19.5t16 34t10.5 53.5t2 78v594h-176v51h176v100q0 81 11.5 150.5t40.5 133t73.5 108.5t114.5 71.5t160 26.5q125 0 200 -62l132 64v-1237q0 -47 2 -78t10.5 -53.5t16 -34t28.5 -19.5t37.5 -11t52.5 -7l33 -4v-47l-252 6l-227 -6 v47l32 4q29 4 42 7t31 11t24.5 20t14 34t9.5 53t2 78v969q0 116 -55 165.5t-135 49.5q-62 0 -108 -21.5t-73.5 -58t-44 -94t-22.5 -120t-6 -145.5v-100h188v-51h-188v-594q0 -47 2 -78.5t10 -53.5t16 -34t26.5 -20t34 -10.5t46.5 -6.5l33 -4v-47l-240 6z" />
<glyph horiz-adv-x="0" />
<glyph horiz-adv-x="682" />
<glyph unicode=" "  horiz-adv-x="540" />
<glyph unicode="&#x09;" horiz-adv-x="540" />
<glyph unicode="&#xa0;" horiz-adv-x="540" />
<glyph unicode="!" horiz-adv-x="507" d="M123 102q0 54 38.5 92.5t92.5 38.5t92.5 -38.5t38.5 -92.5t-38.5 -92.5t-92.5 -38.5t-92.5 38.5t-38.5 92.5zM154 1317q-7 82 22.5 124t77.5 42q44 0 73 -34.5t29 -102.5q0 -4 -1 -14t-1 -15q-2 -23 -12 -126.5t-13 -137t-11 -122t-11.5 -137t-8.5 -122.5t-7.5 -137.5 t-3.5 -126.5h-66q-8 289 -67 909z" />
<glyph unicode="&#x22;" horiz-adv-x="690" d="M129 1374q0 48 19 78.5t61 30.5t61 -30.5t19 -78.5q0 -25 -2 -39l-54 -374h-49l-53 374q-2 14 -2 39zM401 1374q0 48 19 78.5t61 30.5t61 -30.5t19 -78.5q0 -25 -2 -39l-53 -374h-49l-54 374q-2 14 -2 39z" />
<glyph unicode="#" horiz-adv-x="1445" d="M0 485l18 64h359l106 366h-362l18 66h363l137 473h74l-138 -473h402l137 473h76l-137 -473h393l-19 -66h-393l-106 -366h395l-18 -64h-396l-139 -485h-76l140 485h-402l-139 -485h-76l141 485h-358zM451 549h401l106 366h-401z" />
<glyph unicode="$" horiz-adv-x="1148" d="M123 0l10 242l-6 264h51l23 -96q16 -66 50 -128t83 -114t116 -87t142 -42v623l-39 18l-86 41q-159 76 -231 165.5t-72 225.5q0 163 116 267t298 104h14v217h51v-221q77 -12 166 -58q53 -26 84 -26q19 0 27.5 14.5t11.5 48.5h51l-6 -196l4 -199h-51q-18 146 -98 240.5 t-189 115.5v-577l31 -15q93 -46 153 -85t111 -91t74.5 -117.5t23.5 -150.5q0 -177 -112 -290t-281 -116v-213h-51v216q-101 9 -227 77q-91 49 -127 49q-26 0 -38 -20t-20 -55l-6 -31h-51zM317 1178q0 -57 18.5 -102.5t58 -82.5t84 -64.5t112.5 -60.5h2v557h-4 q-121 0 -196 -69t-75 -178zM643 37q101 3 173.5 69.5t72.5 192.5q0 110 -61 188t-185 148v-598z" />
<glyph unicode="%" d="M92 918q0 129 79 205.5t210 76.5q134 0 213.5 -76.5t79.5 -205.5q0 -130 -79.5 -207.5t-213.5 -77.5q-131 0 -210 77.5t-79 207.5zM217 918q0 -124 39.5 -181t124.5 -57q86 0 126 57t40 181q0 123 -40 179t-126 56q-85 0 -124.5 -56t-39.5 -179zM287 0l968 1178h119 l-968 -1178h-119zM1001 264q0 129 79 206t210 77q134 0 213.5 -77t79.5 -206q0 -130 -79.5 -207t-213.5 -77q-131 0 -210 77t-79 207zM1126 264q0 -124 39.5 -180.5t124.5 -56.5q86 0 126 56.5t40 180.5q0 125 -39.5 180.5t-126.5 55.5q-85 0 -124.5 -56.5t-39.5 -179.5z " />
<glyph unicode="&#x26;" horiz-adv-x="1429" d="M94 344q0 71 24 135t70 117.5t96.5 95.5t118.5 86q-95 135 -130 216.5t-35 168.5q0 151 101.5 236.5t246.5 85.5q88 0 156.5 -23t108.5 -61t60.5 -84t20.5 -96q0 -195 -344 -404q28 -38 90.5 -122.5t89.5 -121.5q115 -154 188 -241q27 40 33 51q82 134 82 199 q0 78 -133 90l-61 6v51l268 -6l223 6v-49l-74 -16q-34 -8 -63.5 -29.5t-57 -60t-49 -75t-53.5 -96.5q-12 -23 -18 -34q-3 -6 -54 -90q181 -209 271 -209q59 0 114 49l33 -39q-37 -48 -94.5 -75.5t-112.5 -27.5q-91 0 -158.5 30t-162.5 132q-158 -162 -367 -162 q-77 0 -153 26t-137.5 72.5t-99.5 117t-38 151.5zM279 342q0 -54 12.5 -103t40.5 -95t81.5 -73.5t127.5 -27.5q152 0 303 147q-66 81 -127 162q-216 292 -266 361q-172 -165 -172 -371zM408 1221q0 -92 33 -169.5t114 -189.5q124 107 168.5 183t44.5 178q0 87 -47.5 141.5 t-124.5 54.5q-88 0 -138 -55t-50 -143z" />
<glyph unicode="'" horiz-adv-x="417" d="M129 1374q0 48 19 78.5t61 30.5t61 -30.5t19 -78.5q0 -25 -2 -39l-54 -374h-49l-53 374q-2 14 -2 39z" />
<glyph unicode="(" horiz-adv-x="753" d="M123 657q0 295 136.5 560.5t361.5 412.5l30 -47q-106 -75 -192 -220.5t-134.5 -331t-48.5 -374.5q0 -286 106.5 -548.5t268.5 -376.5l-30 -47q-225 147 -361.5 412t-136.5 560z" />
<glyph unicode=")" horiz-adv-x="753" d="M102 -268q162 114 268.5 376.5t106.5 548.5q0 189 -48.5 374.5t-134.5 331t-192 220.5l31 47q225 -147 361.5 -412.5t136.5 -560.5t-136.5 -560t-361.5 -412z" />
<glyph unicode="*" horiz-adv-x="940" d="M82 887q0 40 61 78q28 16 127.5 36.5t159.5 53.5q-56 40 -153 69t-123 47q-56 39 -56 78q0 22 19 47q24 35 61 35q31 0 70 -28q23 -17 53.5 -56.5t68.5 -84t81 -75.5q0 69 -32 165t-32 128q0 103 82 103q38 0 59 -28t21 -75q0 -32 -30 -128t-30 -165q43 31 81.5 75.5 t69 84t52.5 56.5q39 28 70 28q37 0 61 -35q19 -25 19 -47q0 -39 -56 -78q-26 -18 -123 -47t-153 -69q60 -33 160 -53.5t127 -36.5q61 -36 61 -76q0 -22 -14 -47q-22 -39 -64 -39q-30 0 -63 20q-27 16 -97.5 89.5t-130.5 107.5q0 -69 28 -165t28 -128q0 -46 -21 -74t-59 -28 q-82 0 -82 102q0 32 34 128t34 165q-60 -34 -130.5 -107.5t-97.5 -89.5q-33 -20 -63 -20q-44 0 -64 39q-14 28 -14 45z" />
<glyph unicode="+" horiz-adv-x="1228" d="M221 590v82h404v405h86v-405h403v-82h-403v-406h-86v406h-404z" />
<glyph unicode="," horiz-adv-x="577" d="M123 115q0 58 38.5 97.5t106.5 39.5q90 0 139.5 -74t49.5 -178q0 -136 -97 -262q-70 -95 -204 -180l-29 55q268 176 268 387q0 47 -13.5 93.5t-41.5 60.5l-6 -11q20 -28 20 -67q0 -40 -27.5 -69.5t-80.5 -29.5q-52 0 -87.5 40.5t-35.5 97.5z" />
<glyph unicode="-" horiz-adv-x="792" d="M123 406v81h547v-81h-547z" />
<glyph unicode="." horiz-adv-x="503" d="M123 109q0 52 37.5 89.5t93.5 37.5q53 0 90 -37.5t37 -89.5q0 -54 -36.5 -93t-90.5 -39q-56 0 -93.5 38.5t-37.5 93.5z" />
<glyph unicode="/" horiz-adv-x="606" d="M0 -276l532 1984h74l-532 -1984h-74z" />
<glyph unicode="0" horiz-adv-x="1003" d="M82 469q0 94 28 181t79.5 157t133 112t179.5 42t179.5 -42t133 -112t79.5 -157t28 -181t-28 -181t-79.5 -157t-133 -112t-179.5 -42t-179.5 42t-133 112t-79.5 157t-28 181zM246 469q0 -98 11.5 -171t38.5 -134t79 -93t127 -32t127 32t79 93t38.5 134t11.5 171t-11.5 171 t-38.5 134t-79 93t-127 32t-127 -32t-79 -93t-38.5 -134t-11.5 -171z" />
<glyph unicode="1" horiz-adv-x="626" d="M61 -6v47l33 4q31 4 46 6.5t35 7.5t28 14t18 22.5t13 34.5t5.5 49.5t2.5 68.5v442q0 108 -39.5 140t-132.5 30v62q76 -3 180 12q89 17 135 39v-725q0 -47 2 -78t10.5 -53.5t16 -34t28.5 -19.5t37.5 -11t52.5 -7l33 -4v-47l-252 6z" />
<glyph unicode="2" horiz-adv-x="874" d="M90 686q0 120 88.5 197.5t222.5 77.5q150 0 237 -84t87 -193q0 -44 -13 -88.5t-42.5 -90t-54 -79t-72 -80t-70 -67.5t-72.5 -66l-92 -82l406 31l-10 -90l-3 -252h-47l-4 33q-4 37 -7 53t-11 37.5t-19.5 28.5t-33.5 15.5t-53 10.5t-78 2h-295v41l122 135q15 16 57 61 t59.5 64.5t51 60t49 69t34.5 67.5t26.5 78.5t7.5 82.5q0 108 -54.5 173t-144.5 65q-100 0 -155 -63.5t-55 -153.5q0 -70 34.5 -121.5t77.5 -66.5l-20 -46q-70 31 -112 95t-42 145z" />
<glyph unicode="3" horiz-adv-x="913" d="M-12 -375q0 50 27 81.5t71 31.5q37 0 62.5 -25t25.5 -63q0 -16 -9 -45t-9 -47q0 -46 37 -75.5t122 -29.5q131 0 209 116.5t78 309.5q0 153 -54.5 231t-146.5 78q-83 0 -153 -38l-21 53q50 22 88 51q244 174 244 416q0 107 -59 167t-154 60q-94 0 -155.5 -63t-61.5 -152 q0 -81 38 -129.5t91 -69.5l-16 -47q-86 35 -130 100t-44 150q0 119 93.5 197t233.5 78q151 0 239.5 -80.5t88.5 -208.5q0 -193 -223 -346l-123 -84q40 4 55 4q148 0 245 -114t97 -271q0 -95 -28.5 -177.5t-82.5 -147t-141.5 -101.5t-197.5 -37q-135 0 -235.5 65t-100.5 162z " />
<glyph unicode="4" horiz-adv-x="1007" d="M-10 434v60l698 901h45v-893h230v-68h-230v-186q0 -40 2.5 -68.5t5.5 -49.5t13 -34.5t18 -22.5t28 -14t35 -7.5t46 -6.5l32 -4v-47l-251 6l-252 -4v47l32 2q28 3 41 5t32 6.5t26.5 10t19 16t15 24t8.5 34t6.5 46.5t1.5 61l2 186h-604zM63 502h531l4 674z" />
<glyph unicode="5" horiz-adv-x="976" d="M96 205q0 58 29 92.5t74 34.5q38 0 61 -24t23 -60q0 -16 -8.5 -46t-8.5 -52q0 -50 40.5 -82.5t99.5 -32.5q85 0 147.5 68.5t91.5 173.5t29 231q0 176 -66.5 265t-156.5 89q-65 0 -114.5 -39t-76.5 -98h-39l53 741h54l-4 -55l82 -2h63q207 0 270 37h21v-21q0 -36 -12 -63 t-37 -45t-55 -29.5t-75 -17.5t-88 -8t-102 -2h-80l-32 -414q81 84 204 84q149 0 255 -113.5t106 -304.5q0 -239 -124.5 -387t-303.5 -148q-147 0 -233.5 69t-86.5 159z" />
<glyph unicode="6" horiz-adv-x="1087" d="M117 653q0 241 60.5 427.5t181 294.5t284.5 108q68 0 124.5 -13.5t96 -46.5t39.5 -80q0 -46 -25.5 -72t-66.5 -28q-30 0 -55.5 15t-32.5 45q-14 62 -42 91t-79 29q-49 0 -96.5 -28.5t-90.5 -89t-74.5 -145t-49 -205t-15.5 -261.5v-14q102 199 312 199q65 0 126.5 -25.5 t115 -76t86 -137.5t32.5 -198q0 -197 -111.5 -331t-297.5 -134q-97 0 -170.5 34.5t-120.5 93.5t-77 146t-42 184.5t-12 217.5zM295 430q0 -184 59 -287.5t168 -103.5q117 0 189.5 110t72.5 302q0 179 -59 271.5t-168 92.5q-106 0 -184 -107t-78 -278z" />
<glyph unicode="7" horiz-adv-x="978" d="M92 549v475h45v-102h731v-33l-393 -1362q-38 -129 -121 -129q-33 0 -52 25t-19 67q0 49 24 107l473 1157h-643v-205h-45z" />
<glyph unicode="8" horiz-adv-x="1005" d="M102 319q0 50 11 95.5t35 87t46 72.5t62 68.5t63 57.5t68 56l-45 35q-195 150 -195 348q0 107 53.5 187t136 118.5t179.5 38.5q154 0 237 -87t83 -214q0 -51 -15 -98t-36.5 -81.5t-56.5 -71t-62.5 -59t-67.5 -51.5l41 -33q46 -35 76.5 -61t69.5 -68.5t62 -82.5 t39.5 -95.5t16.5 -115.5q0 -171 -115 -279.5t-303 -108.5q-185 0 -284 97t-99 245zM178 317q0 -123 79 -198.5t230 -75.5q131 0 207 64.5t76 177.5q0 59 -21 113t-63.5 103t-81 83.5t-98.5 79.5l-68 53q-46 -37 -76 -63.5t-68.5 -67.5t-61 -79t-38.5 -87.5t-16 -102.5z M293 1192q0 -46 16.5 -88.5t48 -78.5t57 -59.5t64.5 -52.5l68 -53q42 31 74 60.5t66.5 70.5t53.5 90t19 101q0 94 -59.5 161.5t-172.5 67.5q-101 0 -168 -61.5t-67 -157.5z" />
<glyph unicode="9" horiz-adv-x="1136" d="M117 449q-5 132 48.5 249.5t156 190t227.5 72.5q87 0 155.5 -25.5t116.5 -74t81.5 -113t52.5 -149t27.5 -174t8.5 -196.5q0 -251 -61 -438t-182 -292t-289 -105q-45 0 -83.5 7t-72.5 22t-54 44t-20 70q0 42 26.5 69t66.5 29q28 0 48.5 -12t41.5 -45q37 -70 59 -95.5 t57 -25.5q60 0 112.5 40.5t95 119.5t66 211t19.5 301q-86 -152 -286 -152q-169 0 -288.5 125.5t-129.5 346.5zM281 457q9 -211 73.5 -314.5t194.5 -103.5q65 0 112.5 23t76 61.5t45.5 99.5t22.5 125.5t5.5 151.5q0 192 -63.5 295.5t-194.5 103.5t-206 -117.5t-66 -324.5z " />
<glyph unicode=":" horiz-adv-x="503" d="M123 109q0 52 37.5 89.5t93.5 37.5q53 0 90 -37.5t37 -89.5q0 -54 -36.5 -93t-90.5 -39q-56 0 -93.5 38.5t-37.5 93.5zM123 760q0 52 37.5 89.5t93.5 37.5q53 0 90 -37.5t37 -89.5q0 -54 -36.5 -92.5t-90.5 -38.5q-56 0 -93.5 38t-37.5 93z" />
<glyph unicode=";" horiz-adv-x="579" d="M123 113q0 58 38.5 97.5t106.5 39.5q90 0 139.5 -74t49.5 -178q0 -136 -97 -262q-70 -95 -204 -180l-29 55q268 176 268 387q0 47 -13.5 93.5t-41.5 60.5l-6 -11q20 -28 20 -67q0 -40 -27.5 -69.5t-80.5 -29.5q-52 0 -87.5 40.5t-35.5 97.5zM123 760q0 52 37.5 89.5 t93.5 37.5q53 0 90 -37.5t37 -89.5q0 -54 -36.5 -92.5t-90.5 -38.5q-56 0 -93.5 38t-37.5 93z" />
<glyph unicode="&#x3c;" horiz-adv-x="1007" d="M205 627v55l700 334v-86l-557 -275l557 -272v-90z" />
<glyph unicode="=" horiz-adv-x="1228" d="M172 453v82h909v-82h-909zM172 721v82h909v-82h-909z" />
<glyph unicode="&#x3e;" horiz-adv-x="1028" d="M205 293v90l557 272l-557 275v86l700 -334v-55z" />
<glyph unicode="?" horiz-adv-x="929" d="M137 1311q1 52 47.5 92.5t113.5 60t138 19.5q104 0 191 -45.5t138.5 -133t47.5 -198.5q-6 -167 -102.5 -274t-235.5 -107q-124 0 -207 70q13 -72 28 -130t32.5 -115.5t23.5 -80.5q13 -49 -8.5 -79t-54.5 -30q-32 0 -55.5 20.5t-24.5 57.5l-25 512v6l43 2 q47 -178 224 -178q56 0 94.5 22.5t60 68t31.5 101.5t12 134q13 324 -217 324q-119 0 -119 -62q0 -11 7.5 -38t7.5 -42q0 -35 -24.5 -62.5t-70.5 -27.5q-41 0 -69 33t-27 80zM168 109q0 52 37 89.5t90 37.5q56 0 93.5 -37.5t37.5 -89.5q0 -55 -37.5 -93.5t-93.5 -38.5 q-54 0 -90.5 39t-36.5 93z" />
<glyph unicode="@" horiz-adv-x="1726" d="M123 420q0 150 46 283t128 233t191.5 173t239.5 110.5t269 37.5q283 0 460 -160t177 -435q0 -86 -19.5 -165.5t-59.5 -148t-96.5 -119t-135.5 -79.5t-172 -29q-180 0 -180 125q0 11 4 35q-115 -160 -254 -160q-77 0 -131.5 40.5t-77.5 98t-23 123.5q0 100 50 197t126 165 t166 110t170 42q66 0 106 -38.5t46 -113.5l51 129h133l-196 -522q-17 -44 -17 -84q0 -41 21 -64.5t59 -23.5q63 0 128.5 36t119 97.5t87.5 153.5t34 195q0 245 -156.5 389.5t-421.5 144.5q-116 0 -226.5 -33.5t-206.5 -100.5t-168.5 -159.5t-114 -218t-41.5 -268.5 q0 -135 42 -250.5t120.5 -201t198.5 -134.5t269 -49q197 0 373 72l23 -52q-78 -39 -189 -62.5t-223 -23.5q-211 0 -375.5 83.5t-259 244.5t-94.5 377zM637 322q0 -150 106 -150q58 0 122.5 57.5t113 133t82.5 157.5q45 106 45 191q0 61 -26.5 98t-78.5 37q-88 0 -173 -75 t-138 -197.5t-53 -251.5z" />
<glyph unicode="A" horiz-adv-x="1525" d="M-31 -6v51l19 2q109 14 163 54.5t99 150.5l495 1202h70l483 -1202q41 -103 89 -149.5t129 -53.5l40 -4v-51l-253 6l-328 -6v51l41 4q71 7 102 29.5t31 64.5q0 39 -29 111l-106 266h-578l-110 -266q-35 -86 -35 -119q0 -39 34 -59.5t111 -26.5l41 -4v-51l-260 6zM463 586 h526l-258 649z" />
<glyph unicode="B" horiz-adv-x="1404" d="M82 -6v51l41 4q34 4 49 6t37.5 7t31.5 11t22.5 17.5t17.5 26t9.5 37.5t7 51t1.5 67v910q0 39 -1.5 67t-7 51t-9.5 37.5t-17.5 26t-22.5 17.5t-31.5 11t-37.5 7t-49 6l-41 4v51l303 -6h250q41 0 69 -0.5t76 -4t83.5 -9.5t81.5 -17.5t79 -28t67.5 -42t56 -58t35 -77 t13.5 -97.5q0 -55 -17 -103.5t-45 -85t-67 -67t-79 -50.5t-85 -36q79 -7 143 -29t119.5 -62.5t86 -110t30.5 -162.5q0 -92 -31 -165t-82 -119t-121.5 -76t-143.5 -42t-154 -12h-365zM465 264q0 -118 40 -162.5t130 -44.5h115q82 0 140.5 15.5t105.5 53.5t70.5 109t23.5 177 q0 83 -18 140.5t-49.5 93.5t-88 55.5t-120 26.5t-159.5 7h-190v-471zM465 793h272q128 0 198.5 82.5t70.5 244.5q0 85 -20 140.5t-62.5 85t-95.5 40.5t-132 11h-231v-604z" />
<glyph unicode="C" horiz-adv-x="1474" d="M127 727q0 159 54.5 300.5t146.5 241t218 157t265 57.5q173 0 328 -76q68 -31 80 -31q47 0 55 78h51l-4 -240l4 -239h-51q-31 214 -148.5 330t-308.5 116q-130 0 -225.5 -54t-150 -151.5t-80 -218.5t-25.5 -270q0 -132 15.5 -237t51 -190.5t91 -142.5t137 -87.5 t186.5 -30.5q191 0 316.5 129t146.5 321h49l-4 -249l6 -240h-49l-6 23q-6 23 -11.5 35.5t-17.5 25t-28 12.5q-20 0 -78 -28q-53 -26 -88.5 -41t-108.5 -32.5t-145 -17.5q-205 0 -358.5 96t-233.5 265.5t-80 388.5z" />
<glyph unicode="D" horiz-adv-x="1622" d="M82 -6v51l41 4q34 4 49 6t38 7t32 11t22.5 17.5t18 26t10 37t7 51t1.5 67.5v910q0 39 -1.5 67t-7 51t-9.5 37.5t-17.5 26t-22.5 17.5t-31.5 11t-37.5 7t-49 6l-41 4v51l303 -6h289q424 0 642 -173.5t218 -547.5q0 -142 -40.5 -262.5t-112 -206.5t-167.5 -146t-207 -89 t-231 -29h-393zM477 299q0 -35 1.5 -59.5t5.5 -54.5t13.5 -50t24 -38t37.5 -27t53 -9h174q259 0 406 167.5t147 500.5q0 160 -32.5 280t-102.5 207.5t-187.5 132t-281.5 44.5h-258v-1094z" />
<glyph unicode="E" horiz-adv-x="1329" d="M82 -6v51l41 4q34 4 49 6t37.5 7t31.5 11t22.5 17.5t17.5 26t9.5 37.5t7 51t1.5 67v910q0 39 -1.5 67t-7 51t-9.5 37.5t-17.5 26t-22.5 17.5t-31.5 11t-37.5 7t-49 6l-41 4v51l303 -6h795l4 -147l16 -189h-49q-10 65 -22 107t-34.5 74.5t-48 50t-72 28.5t-98 14t-133.5 3 h-270v-600h229q67 0 103 51.5t43 193.5h51l-6 -274l6 -303h-51q0 145 -36.5 209.5t-109.5 64.5h-229v-518q0 -97 42 -129.5t161 -32.5h190q94 0 149 13t94.5 55t58 112.5t28.5 192.5h51l-14 -246l-6 -184h-842z" />
<glyph unicode="F" horiz-adv-x="1243" d="M82 -6v51l41 4q34 4 49 6t37.5 7t31.5 11t22.5 17.5t17.5 26t9.5 37.5t7 51t1.5 67v910q0 39 -1.5 67t-7 51t-9.5 37.5t-17.5 26t-22.5 17.5t-31.5 11t-37.5 7t-49 6l-41 4v51l303 -6h823l6 -149l19 -183h-49q-5 56 -22 100.5t-38 72.5t-55.5 48.5t-61.5 30t-69.5 15 t-65.5 6t-63 0.5h-336v-600h229q67 0 103 51.5t43 193.5h51l-6 -274l6 -303h-51q0 145 -36.5 209.5t-109.5 64.5h-229v-465q0 -51 3.5 -86.5t13.5 -60t21 -38t34 -22t44 -11.5t60 -5l70 -4v-51l-332 6h-2z" />
<glyph unicode="G" horiz-adv-x="1607" d="M127 727q0 163 56 305t150 240t220.5 154.5t265.5 56.5q130 0 279 -66q57 -25 77.5 -32t45.5 -7t38 23.5t13 52.5h51l-4 -235l4 -240h-51q-3 101 -44 186t-106.5 140t-145.5 85.5t-163 30.5q-237 0 -357 -178.5t-120 -515.5q0 -346 124.5 -517t358.5 -171 q166 0 279.5 78.5t113.5 181.5v57q0 91 -42 130t-154 49l-88 8v49l340 -8l315 8v-49l-92 -8q-125 -10 -125 -179v-37q0 -74 45 -157l29 -51l-47 -31q-48 74 -97 74q-20 0 -41.5 -9t-34.5 -17.5t-40 -29.5q-38 -27 -62.5 -42t-72 -36.5t-107 -32t-131.5 -10.5 q-141 0 -265.5 53.5t-216 149t-145 237.5t-53.5 310z" />
<glyph unicode="H" horiz-adv-x="1726" d="M82 -6v51l41 4q34 4 49 6t37.5 7t31.5 11t22.5 17.5t17.5 26t9.5 37.5t7 51t1.5 67v910q0 39 -1.5 67t-7 51t-9.5 37.5t-17.5 26t-22.5 17.5t-31.5 11t-37.5 7t-49 6l-41 4v51l303 -6h2l303 6v-51l-41 -4q-34 -4 -49 -6t-37.5 -7t-31.5 -11t-22.5 -17.5t-17.5 -26 t-9.5 -37.5t-7 -51t-1.5 -67v-396h780v396q0 39 -1.5 67t-7 51t-9.5 37.5t-17.5 26t-22.5 17.5t-31.5 11t-37.5 7t-49 6l-41 4v51l303 -6h2l304 6v-51l-41 -4q-30 -3 -43.5 -5t-35 -6t-30.5 -9t-22.5 -13t-18.5 -19t-12 -26.5t-9 -36.5t-4 -47t-2 -61v-910q0 -35 2 -61 t4 -47t9 -36.5t12 -26.5t18.5 -19t22.5 -13t30.5 -9t35 -6t43.5 -5l41 -4v-51l-304 6h-2l-303 -6v51l41 4q34 4 49 6t37.5 7t31.5 11t22.5 17.5t17.5 26t9.5 37.5t7 51t1.5 67v449h-780v-449q0 -39 1.5 -67t7 -51t9.5 -37.5t17.5 -26t22.5 -17.5t31.5 -11t37.5 -7t49 -6 l41 -4v-51l-303 6h-2z" />
<glyph unicode="I" horiz-adv-x="772" d="M82 -6v51l41 4q34 4 49 6t37.5 7t31.5 11t22.5 17.5t17.5 26t9.5 37.5t7 51t1.5 67v910q0 39 -1.5 67t-7 51t-9.5 37.5t-17.5 26t-22.5 17.5t-31.5 11t-37.5 7t-49 6l-41 4v51l303 -6h2l303 6v-51l-41 -4q-34 -4 -49 -6t-37.5 -7t-31.5 -11t-22.5 -17.5t-17.5 -26 t-9.5 -37.5t-7 -51t-1.5 -67v-910q0 -39 1.5 -67t7 -51t9.5 -37.5t17.5 -26t22.5 -17.5t31.5 -11t37.5 -7t49 -6l41 -4v-51l-303 6h-2z" />
<glyph unicode="J" horiz-adv-x="882" d="M31 158q0 45 27.5 76.5t78.5 31.5q39 0 65.5 -24t26.5 -60q0 -27 -12 -55q-10 -27 -10 -43q0 -24 17 -40.5t55 -16.5q151 0 151 225v930q0 39 -1.5 67t-7 51t-9.5 37.5t-17.5 26t-22.5 17.5t-31.5 11t-37.5 7t-49 6l-41 4v51l303 -6h2l303 6v-51l-41 -4q-34 -4 -49 -6 t-37.5 -7t-31.5 -11t-22.5 -17.5t-17.5 -26t-9.5 -37.5t-7 -51t-1.5 -67v-893q0 -80 -21 -138.5t-53 -91t-79.5 -52t-89.5 -25t-95 -5.5q-94 0 -164.5 51t-70.5 130z" />
<glyph unicode="K" horiz-adv-x="1517" d="M82 -6v51l41 4q34 4 49 6t37.5 7t31.5 11t22.5 17.5t17.5 26t9.5 37.5t7 51t1.5 67v910q0 39 -1.5 67t-7 51t-9.5 37.5t-17.5 26t-22.5 17.5t-31.5 11t-37.5 7t-49 6l-41 4v51l303 -6l272 6v-53l-41 -4q-51 -6 -77 -14.5t-44.5 -32.5t-24 -63.5t-5.5 -110.5v-549l471 551 q82 98 82 151q0 56 -94 66l-66 6v53l262 -6l248 6v-51l-70 -8q-58 -7 -112 -46.5t-117 -113.5l-319 -377l393 -514q49 -64 79 -101t69 -78.5t71 -63t71.5 -38t82.5 -20.5l43 -4v-51l-312 6l-303 -6v51l31 2q98 6 98 59q0 42 -55 113l-389 502l-164 -193v-256q0 -52 2 -86 t11.5 -58.5t17.5 -37t31.5 -21.5t41 -12t58.5 -8l37 -4v-51l-277 6h-2z" />
<glyph unicode="L" horiz-adv-x="1333" d="M82 -6v51l41 4q34 4 49 6t37.5 7t31.5 11t22.5 17.5t17.5 26t9.5 37.5t7 51t1.5 67v910q0 39 -1.5 67t-7 51t-9.5 37.5t-17.5 26t-22.5 17.5t-31.5 11t-37.5 7t-49 6l-41 4v51l307 -6l264 6v-47l-32 -4q-31 -4 -46 -6.5t-35 -7.5t-28 -14t-18 -22.5t-13 -34.5t-5.5 -49.5 t-2.5 -68.5v-854q0 -45 1 -71.5t4 -59.5t10 -51.5t18.5 -39.5t29 -32t42.5 -21t58.5 -14t76.5 -4h153q173 0 254 91.5t97 279.5h45l-21 -436l-856 6z" />
<glyph unicode="M" horiz-adv-x="2007" d="M72 -6v51l41 4q34 4 49 6t37.5 7t31.5 11t22.5 17.5t17.5 26t9.5 37.5t7 51t1.5 67v910q0 39 -1.5 67t-7 51t-9.5 37.5t-17.5 26t-22.5 17.5t-31.5 11t-37.5 7t-49 6l-41 4v51l303 -6h114l488 -1182l539 1182h122l287 6v-51l-41 -4q-34 -4 -49 -6t-37.5 -7t-31.5 -11 t-22.5 -17.5t-17.5 -26t-9.5 -37.5t-7 -51t-1.5 -67v-910q0 -52 2.5 -86t12.5 -59t19.5 -37.5t34 -21.5t44.5 -12t63 -7l41 -4v-51l-303 6l-305 -6v51l41 4q43 4 63 7t44.5 12t34 21.5t19.5 37.5t12.5 59t2.5 86v1053l-606 -1325h-39l-529 1305v-1090q0 -95 35.5 -125 t141.5 -41l41 -4v-51l-261 6z" />
<glyph unicode="N" horiz-adv-x="1599" d="M72 1407v53l397 -6q107 -147 392 -523t399 -523v774q0 39 -1.5 67.5t-7 51t-10 37.5t-17.5 26.5t-22.5 17.5t-31.5 11t-38.5 7t-48.5 5l-41 4v51l267 -6l250 6v-51l-41 -4q-30 -3 -43.5 -5t-35 -6t-30.5 -9t-22.5 -13t-18.5 -19t-12 -26.5t-9 -36.5t-4 -47t-2 -61v-1182 h-61q-90 181 -395 592.5t-506 648.5v-969q0 -53 2.5 -87t12.5 -59t19.5 -38t34 -22t44.5 -12t63 -7l41 -4v-51l-262 8l-254 -8v51l41 4q43 4 63 7t44.5 12t34 22t19.5 38t12.5 59t2.5 87v1057q-63 78 -164 78h-61z" />
<glyph unicode="O" d="M127 731q0 217 92 389t254 267.5t365 95.5q152 0 283.5 -56t225.5 -154.5t147.5 -238.5t53.5 -303t-53.5 -303.5t-147.5 -239.5t-225.5 -155t-283.5 -56q-203 0 -365 95.5t-254 268t-92 390.5zM336 731q0 -692 502 -692q501 0 501 692q0 690 -501 690q-502 0 -502 -690z " />
<glyph unicode="P" horiz-adv-x="1300" d="M82 -6v51l41 4q34 4 49 6t37.5 7t31.5 11t22.5 17.5t17.5 26t9.5 37.5t7 51t1.5 67v910q0 39 -1.5 67t-7 51t-9.5 37.5t-17.5 26t-22.5 17.5t-31.5 11t-37.5 7t-49 6l-41 4v51l303 -6h279q107 0 188.5 -9t159 -34.5t127.5 -69t80 -116.5t30 -172q0 -187 -139.5 -297.5 t-396.5 -110.5h-240v-373q0 -31 1 -55t5 -44.5t7 -35t12.5 -27t15.5 -20t22 -14.5t25.5 -10.5t33.5 -7t38.5 -5t46.5 -4.5l45 -4v-51l-346 6zM473 707h240q104 0 172.5 22.5t105 70t50.5 107t14 146.5q0 89 -21 154.5t-51.5 101t-75.5 56.5t-82 26.5t-82 5.5h-270v-690z" />
<glyph unicode="Q" horiz-adv-x="1646" d="M127 731q0 217 92 389t254 267.5t365 95.5q152 0 283.5 -56t225.5 -154.5t147.5 -238.5t53.5 -303q0 -154 -47.5 -287.5t-132 -231t-202.5 -158t-257 -72.5l-245 -115h14q118 0 205.5 -42.5t189.5 -125.5q88 -72 162 -112t145 -40q176 0 205 199h41q-15 -172 -84.5 -260 t-204.5 -88q-36 0 -70 5.5t-60.5 12.5t-57 21.5t-48.5 24.5t-46.5 31t-40 30t-39.5 33l-35 30q-127 105 -224 154t-210 55q-87 -54 -137 -104q-70 -70 -127 -70q-27 0 -43.5 17.5t-16.5 50.5q0 73 86.5 113t227.5 40l297 138q-192 10 -343.5 107.5t-237 265.5t-85.5 378z M336 731q0 -692 502 -692q501 0 501 692q0 690 -501 690q-502 0 -502 -690z" />
<glyph unicode="R" horiz-adv-x="1423" d="M82 -6v51l41 4q34 4 49 6t37.5 7t31.5 11t22.5 17.5t17.5 26t9.5 37.5t7 51t1.5 67v910q0 39 -1.5 67t-7 51t-9.5 37.5t-17.5 26t-22.5 17.5t-31.5 11t-37.5 7t-49 6l-41 4v51l303 -6h287q87 0 161 -10.5t142 -36.5t115.5 -65.5t75.5 -102.5t28 -143q0 -88 -31 -156 t-87 -111t-122.5 -68.5t-148.5 -37.5q151 -9 245 -104t121 -273q45 -295 177 -295q34 0 82 25l14 -51q-36 -19 -92 -33.5t-109 -14.5q-202 0 -237 267q-7 54 -15 95t-23.5 92t-36.5 88.5t-54.5 75t-76.5 61t-104 38.5t-135 15h-88v-437q0 -39 1.5 -67t7 -51t9.5 -37.5 t17.5 -26t22.5 -17.5t31.5 -11t37.5 -7t49 -6l41 -4v-51l-303 6h-2zM473 764h172q192 0 273 77.5t81 241.5q0 158 -75 238t-248 80h-203v-637z" />
<glyph unicode="S" horiz-adv-x="1148" d="M123 0l10 242l-6 264h51l23 -96q16 -70 54 -135.5t92 -119t128.5 -86t157.5 -32.5q49 0 93 15.5t81.5 46t59.5 82.5t22 118q0 67 -22 121.5t-68 100t-104 82.5t-142 77l-86 41q-159 76 -231 165.5t-72 225.5q0 163 116 267t298 104q115 0 231 -62q53 -26 84 -26 q19 0 27.5 14.5t11.5 48.5h51l-6 -196l4 -199h-51q-20 165 -118 263.5t-224 98.5q-121 0 -196 -69t-75 -178q0 -57 18.5 -102.5t58 -82.5t84 -64.5t112.5 -60.5l84 -41q93 -46 153 -85t111 -91t74.5 -117.5t23.5 -150.5q0 -180 -115.5 -293t-287.5 -113q-117 0 -268 80 q-91 49 -127 49q-26 0 -38 -20t-20 -55l-6 -31h-51z" />
<glyph unicode="T" horiz-adv-x="1523" d="M6 1044l51 252l23 164l584 -6h194l586 6l22 -164l52 -252l-45 -12q-22 57 -34 85t-31 72t-32 65t-33 50t-38 42.5t-42 28t-51.5 19.5t-60.5 5h-303v-1127q0 -31 1 -55t5 -44.5t7 -35t12.5 -27t15.5 -20t22 -14.5t25.5 -10.5t33.5 -7t38.5 -5t46.5 -4.5l45 -4v-51l-334 6 l-344 -6v51l45 4q32 3 46.5 4.5t38.5 5t33.5 7t25.5 10.5t22 14.5t15.5 20t12.5 27t7 35t5 44.5t1 55v1127h-289q-28 0 -52 -2.5t-45.5 -10.5t-38 -15t-33.5 -24t-29.5 -30t-28 -40t-25.5 -46.5t-26.5 -57t-27 -64t-30.5 -75.5z" />
<glyph unicode="U" horiz-adv-x="1536" d="M51 1409v51l303 -6h2l303 6v-51l-41 -4q-34 -4 -49 -6t-37.5 -7t-31.5 -11t-22.5 -17.5t-17.5 -26t-9.5 -37.5t-7 -51t-1.5 -67v-725q0 -201 109.5 -306.5t294.5 -105.5q200 0 295.5 110.5t95.5 313.5v713q0 39 -1.5 67t-7 51t-9.5 37.5t-17.5 26t-22.5 17.5t-31.5 11 t-37.5 7t-49 6l-41 4v51l303 -4l203 4v-51l-41 -4q-34 -4 -49 -6t-37.5 -7t-31.5 -11t-22.5 -17.5t-17.5 -26t-9.5 -37.5t-7 -51t-1.5 -67v-713q0 -240 -126 -366t-376 -126q-264 0 -401.5 115.5t-137.5 364.5v725q0 39 -1.5 67t-7 51t-9.5 37.5t-17.5 26t-22.5 17.5 t-31.5 11t-37.5 7t-49 6z" />
<glyph unicode="V" horiz-adv-x="1501" d="M-31 1409v51l305 -6l306 6v-51l-62 -6q-139 -13 -139 -109q0 -37 22 -92l414 -981l397 983q23 56 23 94q0 90 -123 103l-72 8v51l287 -6l205 6v-49l-47 -10q-75 -17 -118.5 -62t-80.5 -137l-491 -1222h-66l-536 1263q-28 67 -69.5 105.5t-113.5 52.5z" />
<glyph unicode="W" horiz-adv-x="2148" d="M-31 1409v51l307 -6l304 6v-51l-58 -6q-33 -4 -55.5 -9t-47 -16t-36.5 -31.5t-12 -50.5t14 -71l313 -967l357 969q12 37 12 61q0 88 -129 107l-82 12l8 53l86 -10q149 -15 180 -90q15 29 38.5 48.5t54.5 29t55.5 13t58.5 5.5l76 4l4 -53l-78 -6q-133 -9 -133 -113 q0 -40 21 -96l342 -928l301 985q10 38 10 60q0 42 -29.5 62t-91.5 28l-67 8v53l270 -6l217 6v-53l-49 -8q-149 -23 -180 -127l-394 -1290h-65l-414 1103l-407 -1103h-66l-401 1235q-27 84 -72 126t-115 56z" />
<glyph unicode="X" horiz-adv-x="1447" d="M-20 -6v51l43 6q37 6 62.5 13.5t62.5 28t77.5 61.5t85.5 104l332 455l-336 504q-65 100 -117.5 133.5t-140.5 50.5l-41 8v51l338 -6l318 6v-51l-86 -10q-107 -12 -107 -74q0 -52 61 -143l230 -344l280 391q37 52 37 94q0 67 -90 78l-67 8v51l270 -6l238 6v-51l-44 -4 q-141 -14 -282 -211l-301 -416l356 -534q62 -92 120.5 -135t127.5 -54l61 -10v-51l-305 6l-350 -6v51l84 8q96 9 96 78q0 53 -53 133l-258 389l-309 -430q-33 -46 -33 -96q0 -31 18.5 -51t51.5 -23l77 -8v-51l-254 6z" />
<glyph unicode="Y" horiz-adv-x="1355" d="M-41 1409v51l311 -6l308 6v-51l-66 -6q-113 -10 -113 -86q0 -48 45 -125l299 -520l297 520q45 80 45 127q0 74 -116 84l-60 6v51l271 -10l217 10v-51l-56 -10q-65 -12 -107 -47t-85 -111l-373 -651v-318q0 -39 1.5 -67t7 -51t9.5 -37.5t17.5 -26t22.5 -17.5t31.5 -11 t37.5 -7t49 -6l41 -4v-51l-303 6h-2l-303 -6v51l41 4q34 4 49 6t37.5 7t31.5 11t22.5 17.5t17.5 26t9.5 37.5t7 51t1.5 67v316l-358 626q-49 86 -97 126t-129 57z" />
<glyph unicode="Z" horiz-adv-x="1308" d="M61 0v53l932 1340l-401 -4q-71 -1 -124.5 -4.5t-96 -13.5t-72 -20.5t-52 -32t-36 -41t-24 -54.5t-16.5 -65.5t-13 -80.5h-49l22 273l4 108l604 -4l459 6v-69l-924 -1330l500 5q66 0 117.5 11.5t90 30t68 51.5t49 68t35 89.5t25 105.5t19.5 125h49l-21 -342v-211l-422 6 h-723z" />
<glyph unicode="[" horiz-adv-x="602" d="M123 -291v1897h377v-84h-285v-1729h285v-84h-377z" />
<glyph unicode="\" horiz-adv-x="759" d="M154 1708h73l533 -1984h-74z" />
<glyph unicode="]" horiz-adv-x="602" d="M102 -207h285v1729h-285v84h377v-1897h-377v84z" />
<glyph unicode="^" horiz-adv-x="1044" d="M102 713l373 741h82l385 -741h-102l-324 626l-311 -626h-103z" />
<glyph unicode="_" horiz-adv-x="1134" d="M102 -25h930v-90h-930v90z" />
<glyph unicode="`" horiz-adv-x="432" d="M98 1409q0 35 18.5 54.5t45.5 19.5q57 0 88 -115l80 -303h-45l-152 244q-35 58 -35 100z" />
<glyph unicode="a" horiz-adv-x="1003" d="M102 168q0 44 21 84.5t61 77t83 65.5t102 62q94 52 297 133v65q0 117 -44 170.5t-157 53.5q-65 0 -113.5 -16.5t-48.5 -51.5q0 -15 8 -39q11 -29 11 -55q0 -37 -27.5 -59.5t-67.5 -22.5q-36 0 -61 27.5t-25 66.5q0 52 33 92.5t86.5 63t113 34t120.5 11.5q165 0 240 -76.5 t75 -247.5v-368q0 -99 15 -144t59 -45q29 0 51.5 21t32.5 51l37 -15q-37 -129 -175 -129q-85 0 -120.5 48.5t-40.5 142.5q-56 -93 -144.5 -142t-193.5 -49q-101 0 -164.5 51t-63.5 140zM262 178q0 -58 34 -91.5t99 -33.5q86 0 163 59t108 138v299q-76 -32 -140.5 -68 t-127.5 -83t-99.5 -104t-36.5 -116z" />
<glyph unicode="b" horiz-adv-x="1099" d="M-16 1413v47q182 0 323 25v-684q119 129 285 129q176 0 296 -138.5t120 -340.5q0 -131 -54.5 -239.5t-152 -171.5t-217.5 -63q-82 0 -155.5 34.5t-123.5 86.5l-108 -121h-33v1270q0 99 -40.5 132.5t-125.5 33.5h-14zM307 178q37 -57 107.5 -98t150.5 -41 q136 0 207.5 114.5t71.5 297.5q0 186 -70.5 301.5t-202.5 115.5q-154 0 -264 -137v-553z" />
<glyph unicode="c" horiz-adv-x="972" d="M92 432q0 215 137.5 356.5t343.5 141.5q69 0 136 -20t116 -63t49 -99q0 -45 -29 -75t-69 -30q-50 0 -78 28.5t-28 63.5q0 23 8 51t8 45q0 25 -37.5 36.5t-77.5 11.5q-142 0 -228.5 -120t-86.5 -317q0 -171 84.5 -287t234.5 -116q94 0 169 51.5t108 161.5l49 -16 q-36 -133 -132.5 -196t-223.5 -63q-204 0 -328.5 128t-124.5 327z" />
<glyph unicode="d" horiz-adv-x="1116" d="M92 457q0 199 121 336t303 137q81 0 154 -33.5t123 -83.5v434q0 99 -40.5 132.5t-125.5 33.5h-15v47q183 0 324 25v-1262q0 -57 10.5 -92.5t34 -53.5t51.5 -24t74 -6v-47h-84q-102 0 -184 -16l-27 143q-126 -150 -303 -150q-176 0 -296 139t-120 341zM256 457 q0 -186 70 -302t202 -116q155 0 265 137v553q-37 57 -107.5 98t-150.5 41q-136 0 -207.5 -114t-71.5 -297z" />
<glyph unicode="e" horiz-adv-x="987" d="M102 434q0 140 61.5 254t165.5 178t228 64q155 0 245.5 -100t90.5 -265q0 -39 -6 -63h-619q-2 -18 -2 -58q0 -112 34.5 -202t107 -146.5t172.5 -56.5q97 0 171 54.5t115 160.5l49 -18q-86 -259 -364 -259q-201 0 -325 127.5t-124 329.5zM272 549h260q124 0 174 40t50 97 q0 86 -60 139.5t-139 53.5q-123 0 -195 -88t-90 -242z" />
<glyph unicode="f" horiz-adv-x="694" d="M51 -6v47l33 4q36 4 52.5 7t37.5 11t28.5 19.5t16 34t10.5 53.5t2 78v594h-176v51h176v233q0 185 82 271t246 86q108 0 176 -43.5t68 -122.5q0 -52 -29 -80.5t-72 -28.5q-37 0 -63.5 26.5t-26.5 59.5q0 27 13 62q6 15 6 26q0 24 -21.5 37t-50.5 13q-56 0 -94 -23t-57 -68 t-26 -95.5t-7 -119.5v-233h211v-51h-211v-594q0 -47 2 -78t10.5 -53.5t16 -34t28.5 -19.5t37.5 -11t52.5 -7l33 -4v-47l-252 6z" />
<glyph unicode="g" horiz-adv-x="1134" d="M20 -276q0 66 31.5 108.5t83.5 42.5q36 0 60 -20.5t24 -57.5q0 -35 -25.5 -78.5t-25.5 -78.5q0 -67 49 -111.5t124 -62t175 -17.5q107 0 193.5 30t141 92.5t54.5 147.5q0 91 -71.5 134t-225.5 51l-209 10q-45 2 -79.5 6t-77 16t-70 30.5t-47 51t-19.5 76.5q0 75 64 135.5 t152 85.5q-85 42 -135 117.5t-50 167.5q0 139 109.5 234.5t269.5 95.5q120 0 219 -60q41 56 101.5 83.5t126.5 27.5q65 0 110 -33t45 -84q0 -41 -26.5 -65.5t-61.5 -24.5t-59.5 23t-32.5 63q-11 58 -57 58q-57 0 -107 -74q121 -100 121 -244q0 -138 -110 -234t-269 -96 q-60 0 -135 21q-64 -14 -108 -44.5t-44 -76.5q0 -31 16.5 -51.5t50.5 -31t66.5 -14.5t83.5 -7l91 -5q61 -3 106.5 -7t96.5 -13.5t87 -23t70.5 -36t55.5 -52t33.5 -72t12.5 -95.5q0 -112 -69 -196.5t-177 -126t-237 -41.5q-133 0 -242.5 33.5t-181.5 109t-72 183.5zM295 600 q0 -127 53.5 -202.5t167.5 -75.5t167.5 75.5t53.5 202.5t-53.5 203t-167.5 76t-167.5 -76t-53.5 -203z" />
<glyph unicode="h" horiz-adv-x="1191" d="M31 -6v47l32 4q31 4 46 6.5t35 7.5t28 14t18 22.5t13 34.5t5.5 49.5t2.5 68.5v999q0 99 -40.5 132.5t-125.5 33.5h-14v47q182 0 323 25v-733q52 76 139 127t195 51q141 0 221 -71.5t80 -201.5v-409q0 -40 2.5 -68.5t5.5 -49.5t13 -34.5t18 -22.5t28 -14t35 -7.5t46 -6.5 l32 -4v-47l-251 6l-252 -6v47l32 4q31 4 46 6.5t35 7.5t28 14t18 22.5t13 34.5t5.5 49.5t2.5 68.5v409q0 102 -53 156.5t-150 54.5q-103 0 -180.5 -65.5t-108.5 -145.5v-409q0 -40 2.5 -68.5t5.5 -49.5t13 -34.5t18 -22.5t28 -14t35 -7.5t46 -6.5l33 -4v-47l-252 6z" />
<glyph unicode="i" horiz-adv-x="581" d="M57 -6v47l33 4q31 4 46 6.5t35 7.5t28 14t18 22.5t13 34.5t5.5 49.5t2.5 68.5v432q0 99 -40.5 132.5t-125.5 33.5h-15v47q183 0 324 25v-670q0 -47 2 -78t10.5 -53.5t16 -34t28.5 -19.5t37.5 -11t52.5 -7l33 -4v-47l-252 6zM170 1282q0 54 31 89.5t84 35.5q56 0 85 -35 t29 -90t-29 -90t-85 -35q-53 0 -84 35.5t-31 89.5z" />
<glyph unicode="j" horiz-adv-x="565" d="M-96 -457q0 49 28.5 82t79.5 33q42 0 65 -25t23 -57q0 -15 -8 -39t-8 -41q0 -27 16 -41t41 -14q103 0 103 248v997q0 43 -8.5 73t-22.5 47t-39 26t-49 11.5t-62 2.5v47q149 0 324 31v-1235q0 -129 -79 -210t-202 -81q-96 0 -149 39t-53 106zM184 1270q0 54 31 89.5 t84 35.5q56 0 85.5 -35t29.5 -90t-29.5 -90t-85.5 -35q-53 0 -84 35.5t-31 89.5z" />
<glyph unicode="k" horiz-adv-x="1073" d="M31 -6v47l32 4q31 4 46 6.5t35 7.5t28 14t18 22.5t13 34.5t5.5 49.5t2.5 68.5v999q0 99 -40.5 132.5t-125.5 33.5h-14v47q182 0 323 25v-1096l303 363q27 34 27 57q0 31 -49 37l-33 4v47l197 -4l172 4v-47l-33 -4q-86 -11 -148.5 -51.5t-119.5 -108.5l-119 -141l348 -389 q30 -34 45.5 -51t44 -37.5t51.5 -22.5l33 -4v-47l-227 6l-387 436l-105 -125v-63q0 -40 2.5 -68.5t5.5 -49.5t13 -34.5t18 -22.5t28 -14t35 -7.5t46 -6.5l33 -4v-47l-252 6z" />
<glyph unicode="l" horiz-adv-x="555" d="M31 -6v47l32 4q31 4 46 6.5t35 7.5t28 14t18 22.5t13 34.5t5.5 49.5t2.5 68.5v999q0 99 -40.5 132.5t-125.5 33.5h-14v47q182 0 323 25v-1237q0 -40 2.5 -68.5t5.5 -49.5t13 -34.5t18 -22.5t28 -14t35 -7.5t46 -6.5l33 -4v-47l-252 6z" />
<glyph unicode="m" horiz-adv-x="1789" d="M57 -6v47l33 4q31 4 46 6.5t35 7.5t28 14t18 22.5t13 34.5t5.5 49.5t2.5 68.5v432q0 54 -12 88t-38 50.5t-55.5 22t-75.5 5.5v47q183 0 324 25v-160q48 74 130.5 123t182.5 49q110 0 182.5 -47.5t96.5 -143.5q47 82 132.5 136.5t192.5 54.5q137 0 214 -72.5t77 -218.5 v-391q0 -47 2 -77t9.5 -52.5t15.5 -34.5t28 -20.5t38 -11.5t53 -7l32 -4v-47l-249 6l-232 -6v47l33 4q30 4 45 6.5t32.5 10.5t24.5 20t14 34.5t9 53.5t2 78v426q0 91 -50 142.5t-139 51.5q-100 0 -171.5 -64.5t-100.5 -146.5v-18v-391q0 -35 1 -61t5 -46.5t7 -34t12.5 -24 t16 -16t23 -10t27.5 -6.5t35 -5l33 -4v-47l-232 6l-231 -6v47l33 4q24 3 35 5t27.5 6.5t23 10t16 16t12.5 24t7 34t5 46.5t1 61v426q0 91 -50 142.5t-139 51.5q-100 0 -171.5 -64.5t-100.5 -146.5v-409q0 -35 1 -61t5 -46.5t7 -34t12.5 -24t16 -16t23 -10t27.5 -6.5t35 -5 l33 -4v-47l-232 6z" />
<glyph unicode="n" horiz-adv-x="1218" d="M57 -6v47l33 4q31 4 46 6.5t35 7.5t28 14t18 22.5t13 34.5t5.5 49.5t2.5 68.5v432q0 99 -40.5 132.5t-125.5 33.5h-15v47q183 0 324 25v-166q52 76 139 127t195 51q141 0 221 -71.5t80 -201.5v-409q0 -47 2 -78t10.5 -53.5t16 -34t28.5 -19.5t37.5 -11t52.5 -7l33 -4v-47 l-252 6l-252 -6v47l33 4q36 4 52.5 7t37.5 11t28.5 19.5t16 34t10.5 53.5t2 78v409q0 102 -52.5 156.5t-149.5 54.5q-103 0 -180.5 -65.5t-108.5 -145.5v-409q0 -47 2 -78t10.5 -53.5t16 -34t28.5 -19.5t37.5 -11t52.5 -7l33 -4v-47l-252 6z" />
<glyph unicode="o" horiz-adv-x="1126" d="M92 451q0 201 136.5 340t334.5 139t334.5 -139t136.5 -340q0 -197 -137 -335.5t-334 -138.5t-334 138.5t-137 335.5zM256 451q0 -191 75 -306.5t232 -115.5t232 115.5t75 306.5q0 94 -17.5 170t-53 135t-95.5 91t-141 32t-141 -32t-95.5 -91t-53 -135t-17.5 -170z" />
<glyph unicode="p" horiz-adv-x="1153" d="M37 -532l33 4q37 4 53 7t37.5 11t28.5 19.5t15.5 33.5t10.5 53t2 78v1012q0 54 -11.5 87t-38 48.5t-54.5 20t-76 4.5v47q148 0 323 31l-14 -140q129 146 299 146q176 0 296 -138.5t120 -340.5q0 -131 -54.5 -239.5t-152 -171.5t-217.5 -63q-81 0 -154 33.5t-123 83.5 v-420q0 -47 2 -78t10.5 -53t16 -33.5t29 -19.5t37.5 -11t53 -7l33 -4v-48l-252 7l-252 -7v48zM360 178q37 -57 107.5 -98t150.5 -41q136 0 207.5 114.5t71.5 297.5q0 122 -29.5 214t-93 147.5t-153.5 55.5q-151 0 -261 -137v-553z" />
<glyph unicode="q" horiz-adv-x="1095" d="M92 457q0 199 121 336t303 137q84 0 158.5 -35.5t124.5 -89.5l106 115h31v-1246q0 -47 2 -78t10.5 -53t15.5 -33.5t28.5 -19.5t37.5 -11t53 -7l33 -4v-48l-252 7l-252 -7v48l33 4q37 4 53 7t37.5 11t29 19.5t16 33.5t10.5 53t2 78v432q-119 -129 -285 -129 q-176 0 -296 139t-120 341zM256 457q0 -186 70 -302t202 -116q155 0 265 137v553q-37 57 -107.5 98t-150.5 41q-136 0 -207.5 -114t-71.5 -297z" />
<glyph unicode="r" horiz-adv-x="802" d="M57 -6v47l33 4q31 4 46 6.5t35 7.5t28 14t18 22.5t13 34.5t5.5 49.5t2.5 68.5v426q0 58 -11.5 94t-38.5 52.5t-55 21t-76 4.5v47q147 0 324 25l-23 -236h9q80 248 251 248q78 0 111 -37.5t33 -85.5q0 -45 -27 -73.5t-71 -28.5q-41 0 -65 19.5t-24 47.5q0 15 5.5 39 t5.5 29q0 20 -29 20t-60.5 -27t-54.5 -73q-41 -84 -61 -189v-323q0 -47 2 -78t10.5 -53.5t16 -34t28.5 -19.5t37.5 -11t52.5 -7l33 -4v-47l-252 6z" />
<glyph unicode="s" horiz-adv-x="825" d="M104 0l9 135l6 174h45l2 -35q5 -93 81 -171t187 -78q84 0 135.5 43.5t51.5 117.5q0 63 -49.5 108.5t-147.5 82.5l-74 29q-110 42 -162.5 103.5t-52.5 156.5q0 117 80.5 190.5t192.5 73.5q71 0 147 -37q20 -10 35 -10q21 0 33 43l45 -2l-9 -133v-144h-47q-15 104 -69 171 t-144 67q-68 0 -113.5 -43t-45.5 -109q0 -62 45 -104t135 -76l80 -31q121 -46 171 -111t50 -161q0 -114 -77 -193.5t-210 -79.5q-103 0 -217 50q-32 16 -41 16t-13.5 -7.5t-10.5 -35.5h-48z" />
<glyph unicode="t" horiz-adv-x="694" d="M61 842v51l56 4q83 6 127.5 67t58.5 177h53v-248h262v-51h-262v-615q0 -180 127 -180q49 0 83 32t63 93l45 -22q-21 -55 -64 -101q-66 -72 -172 -72q-105 0 -165 63t-60 196v606h-152z" />
<glyph unicode="u" horiz-adv-x="1169" d="M20 846v47l252 -6l72 2v-639q0 -100 51 -153.5t140 -53.5q104 0 181.5 66.5t119.5 162.5v367q0 40 -2.5 68.5t-5.5 49.5t-13 34.5t-18 22.5t-28 14t-35 7.5t-46 6.5l-33 4v47l252 -6l72 2v-662q0 -110 39 -144t131 -34v-47q-194 0 -313 -20v188q-16 -27 -43 -57 q-122 -136 -306 -136q-135 0 -210.5 68t-75.5 197v397q0 40 -2.5 68.5t-5.5 49.5t-13 34.5t-18 22.5t-28 14t-35 7.5t-46 6.5z" />
<glyph unicode="v" horiz-adv-x="1038" d="M-27 846v47l211 -6l209 6v-47l-33 -4q-44 -6 -62.5 -21.5t-18.5 -42.5q0 -21 16 -61l258 -570l240 562q18 41 18 67q0 29 -22 44.5t-72 21.5l-35 4v47l184 -6l172 6v-47l-47 -6q-55 -7 -85.5 -40.5t-63.5 -111.5l-295 -688h-78l-334 737q-22 47 -49 73.5t-76 31.5z" />
<glyph unicode="w" horiz-adv-x="1572" d="M-27 846v47l217 -6l201 6v-47l-20 -2q-103 -9 -103 -78q0 -25 11 -57l198 -551l228 514q24 57 24 84q0 85 -84 88l-63 2v47h71q72 0 111 -62q12 31 52.5 46.5t80.5 15.5h94v-47l-30 -2q-70 -6 -70 -70q0 -26 16 -69l213 -545l213 540q19 57 19 68q0 33 -24.5 50.5 t-76.5 23.5l-32 4v47l192 -6l162 6v-47l-33 -4q-34 -4 -59.5 -17t-43.5 -36.5t-27.5 -42t-23.5 -52.5l-274 -694h-78l-266 686l-301 -686h-78l-252 694q-26 71 -59 108.5t-82 41.5z" />
<glyph unicode="x" horiz-adv-x="1075" d="M0 -6v47l27 4q58 8 111 37.5t81.5 57t71.5 75.5l180 203l-289 317q-55 60 -85 82.5t-70 26.5l-19 2v47l230 -6l229 6v-47l-33 -6q-84 -19 -84 -58q0 -25 35 -65l186 -205l183 205q28 32 28 61q0 24 -29.5 42t-72.5 24l-12 2v47l237 -6l156 6v-47l-23 -2q-53 -5 -104 -33 t-82 -57.5t-76 -79.5l-174 -197l248 -272q41 -46 67 -72t67.5 -53.5t78.5 -34.5l22 -4v-45l-202 4l-254 -4v47l33 4q79 9 79 45q0 28 -26 58l-213 233l-183 -211q-32 -36 -32 -66q0 -51 71 -59l33 -4v-49l-192 6z" />
<glyph unicode="y" horiz-adv-x="1071" d="M-61 -494q0 40 30 68.5t74 28.5q39 0 76 -29q42 -33 76 -33q42 0 80.5 32t78.5 116l135 291l-339 745q-13 28 -22 43.5t-23.5 33t-32.5 26.5t-43 12l-47 6v47l213 -6l206 6v-47l-28 -4q-46 -6 -66 -21t-20 -43q0 -24 22 -73l256 -562l256 551q23 54 23 80q0 30 -24 46 t-77 22l-32 4v47l196 -6l164 6v-47l-31 -4q-36 -5 -62.5 -18.5t-47 -39t-32.5 -47t-30 -61.5l-462 -1010q-27 -58 -56 -102t-68.5 -84t-91 -61t-112.5 -21q-67 0 -103 31.5t-36 76.5z" />
<glyph unicode="z" horiz-adv-x="954" d="M72 41l620 803h-149q-93 0 -156.5 -11.5t-117.5 -41.5t-86.5 -86t-49.5 -142h-47l45 185l23 145h708l15 -39l-623 -803h221q76 0 128.5 10t101.5 37.5t79 83.5t41 142h47l-24 -215l-2 -109h-760z" />
<glyph unicode="{" horiz-adv-x="798" d="M123 633v47q94 0 165.5 66.5t71.5 150.5q0 65 -25.5 168.5t-25.5 165.5q0 155 111 265t276 110v-47q-103 0 -171 -50.5t-68 -142.5q0 -57 19.5 -180.5t19.5 -196.5q0 -125 -83 -225t-192 -100v-13q109 0 192 -100t83 -225q0 -73 -19.5 -196.5t-19.5 -180.5 q0 -92 68 -142.5t171 -50.5v-47q-165 0 -276 110t-111 265q0 62 25.5 165.5t25.5 168.5q0 84 -71.5 149.5t-165.5 65.5z" />
<glyph unicode="|" horiz-adv-x="376" d="M152 -276v1984h71v-1984h-71z" />
<glyph unicode="}" horiz-adv-x="798" d="M102 -244q103 0 171.5 50.5t68.5 142.5q0 57 -19.5 180.5t-19.5 196.5q0 125 83 225t192 100v13q-109 0 -192 100t-83 225q0 73 19.5 196.5t19.5 180.5q0 92 -68.5 142.5t-171.5 50.5v47q165 0 276 -110t111 -265q0 -62 -25.5 -165.5t-25.5 -168.5q0 -84 72 -150.5 t166 -66.5v-47q-95 0 -166.5 -65.5t-71.5 -149.5q0 -65 25.5 -168.5t25.5 -165.5q0 -155 -111 -265t-276 -110v47z" />
<glyph unicode="~" horiz-adv-x="1531" d="M82 471q0 27 10 66t36 89.5t64 93t102 72t142 29.5t182 -36.5t188.5 -80t180 -80t158.5 -36.5q100 0 163.5 58t90.5 142h51q-24 -127 -114 -222t-216 -95q-70 0 -146 23.5t-143 57.5t-132.5 67.5t-136 57t-132.5 23.5q-233 0 -297 -229h-51z" />
<glyph unicode="&#xa1;" horiz-adv-x="483" d="M123 799q0 54 38.5 92.5t92.5 38.5t92.5 -38.5t38.5 -92.5t-38.5 -92.5t-92.5 -38.5t-92.5 38.5t-38.5 92.5zM154 -416q59 620 67 910h66q1 -63 3.5 -126.5t7.5 -138.5t8.5 -122t11.5 -137.5t11 -122t13 -138t12 -125.5q0 -5 1 -14.5t1 -13.5q0 -68 -29 -103t-73 -35 q-48 0 -77.5 42t-22.5 124z" />
<glyph unicode="&#xa2;" horiz-adv-x="972" d="M92 432q0 197 117.5 334.5t300.5 159.5v217h51v-213h12q69 0 136 -20t116 -63t49 -99q0 -45 -29 -75t-69 -30q-50 0 -78 28.5t-28 63.5q0 23 8 51t8 45q0 25 -37.5 36.5t-77.5 11.5h-10v-840h14q94 0 169 51.5t108 161.5l49 -16q-35 -129 -126.5 -192.5t-213.5 -66.5 v-213h-51v216q-190 10 -304 135.5t-114 316.5zM256 442q0 -151 67 -261.5t187 -135.5v827q-117 -26 -185.5 -141t-68.5 -289z" />
<glyph unicode="&#xa3;" horiz-adv-x="1146" d="M63 47q0 45 39 79t92.5 50t118.5 23q19 88 27 303l4 22q0 54 6 107h-192l8 51h190l6 51q14 81 27 144.5t35.5 145t47.5 142.5t62.5 124t81 103t102.5 65.5t128 25.5q106 0 175 -40t69 -122q0 -55 -28.5 -84t-72.5 -29q-38 0 -64 28t-26 67q0 23 9.5 46.5t9.5 32.5 q0 24 -21.5 37t-50.5 13q-44 0 -81 -20.5t-63.5 -52t-50 -84t-38 -100.5t-30 -120t-24 -123.5t-21 -129t-20.5 -120.5h344l-8 -51h-346q-1 -3 -2 -9.5t-2 -9.5l-19 -86l-4 -22q-45 -195 -90 -301q106 -1 260 -40.5t228 -39.5q89 0 142 48t60 142h45q0 -71 -15.5 -130 t-48.5 -106t-89 -73.5t-131 -26.5q-62 0 -127.5 23.5t-114 52.5t-112.5 59.5t-119 41.5q-89 -177 -236 -177q-39 0 -54.5 21.5t-15.5 48.5z" />
<glyph unicode="&#xa4;" horiz-adv-x="911" d="M82 428l102 102q-75 94 -75 220q0 125 75 219l-102 102l51 53l105 -104q95 76 219 76t219 -76l102 102l51 -51l-102 -102q76 -95 76 -219q0 -125 -76 -220l102 -102l-51 -53l-104 104q-92 -76 -217 -76q-126 0 -219 74l-103 -102zM190 750q0 -112 77 -188.5t190 -76.5 q112 0 188 76t76 189q0 112 -75.5 188t-188.5 76t-190 -76t-77 -188z" />
<glyph unicode="&#xa5;" horiz-adv-x="1355" d="M-41 1409v51l311 -6l308 6v-51l-66 -6q-113 -10 -113 -86q0 -48 45 -125l299 -520l297 520q45 80 45 127q0 74 -116 84l-60 6v51l271 -10l217 10v-51l-56 -10q-65 -12 -107 -47t-85 -111l-346 -604h305v-66h-332v-168h332v-65h-332v-66q0 -39 1.5 -67t7 -51t9.5 -37.5 t17.5 -26t22.5 -17.5t31.5 -11t37.5 -7t49 -6l41 -4v-51l-303 6h-2l-303 -6v51l41 4q34 4 49 6t37.5 7t31.5 11t22.5 17.5t17.5 26t9.5 37.5t7 51t1.5 67v66h-346v65h346v168h-346v66h317l-329 577q-49 86 -97 126t-129 57z" />
<glyph unicode="&#xa6;" horiz-adv-x="1134" d="M152 -276v888h71v-888h-71zM152 819v889h71v-889h-71z" />
<glyph unicode="&#xa7;" horiz-adv-x="888" d="M123 1149q0 150 97.5 242t252.5 92q130 0 227 -66t97 -160q0 -46 -28.5 -80t-72.5 -34q-43 0 -69.5 24t-26.5 64q0 27 15.5 54t15.5 46q0 41 -41.5 70t-116.5 29q-97 0 -161 -58.5t-64 -144.5q0 -43 15 -83t50.5 -82.5t58.5 -65t75 -69.5q15 -13 22 -20l121 -108 q101 -89 149.5 -166t48.5 -166q0 -126 -85.5 -208t-200.5 -87l8 -6q140 -99 218.5 -211t78.5 -217q0 -153 -96 -246.5t-244 -93.5q-134 0 -233 67t-99 158q0 57 30 93t77 36q40 0 65 -25.5t25 -66.5q0 -24 -16.5 -55t-16.5 -54q0 -45 47 -72.5t117 -27.5q98 0 159.5 64 t61.5 145q0 45 -14 84t-47 78t-57.5 62t-76.5 66.5t-73 61.5q-147 132 -211 220t-64 196q0 121 86 200t209 81l-69 55q-125 101 -184.5 194t-59.5 191zM266 487q0 -107 72.5 -184.5t167.5 -77.5q67 0 112.5 48t45.5 135q0 94 -72 170.5t-156 76.5q-72 0 -121 -43.5 t-49 -124.5z" />
<glyph unicode="&#xa8;" horiz-adv-x="905" d="M139 1278q0 49 28.5 82t76.5 33q50 0 76 -32.5t26 -82.5q0 -52 -26 -84.5t-76 -32.5q-48 0 -76.5 33t-28.5 84zM528 1278q0 49 28.5 82t76.5 33q50 0 76 -32.5t26 -82.5q0 -52 -26 -84.5t-76 -32.5q-48 0 -76.5 33t-28.5 84z" />
<glyph unicode="&#xa9;" horiz-adv-x="1759" d="M127 731q0 154 57 292.5t155.5 239.5t240 160.5t303.5 59.5q160 0 300 -59.5t238 -160.5t154.5 -239.5t56.5 -292.5q0 -156 -53.5 -294t-149.5 -240t-237.5 -161t-308.5 -59q-162 0 -303.5 59.5t-240 160.5t-155.5 240t-57 294zM213 731q0 -136 50.5 -259.5t137.5 -215 t213 -145.5t269 -54q148 0 274 54t210.5 146t131.5 214.5t47 259.5q0 180 -84.5 333.5t-237.5 246t-341 92.5q-191 0 -345.5 -92.5t-239.5 -246t-85 -333.5zM498 733q0 169 114 281t287 112q57 0 106.5 -14t80 -27.5t38.5 -13.5q24 0 29 41h33l-4 -125l4 -125h-39 q-17 99 -79 152t-144 53q-122 0 -191 -95t-69 -239q0 -155 71.5 -243.5t194.5 -88.5q75 0 138 47t89 127l49 -18q-18 -58 -52.5 -101.5t-77.5 -67.5t-87 -35t-90 -11q-185 0 -293 108.5t-108 282.5z" />
<glyph unicode="&#xaa;" horiz-adv-x="815" d="M72 741q0 161 473 328v29q0 34 -2 56.5t-10 49.5t-22.5 43.5t-42 27.5t-65.5 11q-64 0 -108 -12t-49 -29q-4 -11 4 -30t8 -41q0 -30 -21.5 -54t-52.5 -24t-53 19t-22 46q0 58 48 98.5t111 57t131 16.5q87 0 143.5 -14.5t86 -45t40.5 -68t11 -93.5q0 -9 -1 -33.5t-1 -38.5 v-243q0 -91 17 -121q17 -28 48 -29q35 0 66 53l37 -20q-44 -90 -154 -90q-80 0 -112.5 38t-34.5 111q-35 -64 -111.5 -106.5t-154.5 -42.5q-95 0 -151 38t-56 113zM74 379v49h721v-49h-721zM221 748q0 -42 31 -67.5t78 -25.5q59 0 124.5 47.5t90.5 106.5v217 q-324 -129 -324 -278z" />
<glyph unicode="&#xab;" horiz-adv-x="876" d="M102 446q0 139 74.5 239t208.5 132l21 -61q-99 -28 -145 -110.5t-46 -199.5t46 -199t145 -110l-21 -61q-134 32 -208.5 132t-74.5 238zM440 446q0 139 74.5 239t208.5 132l20 -61q-99 -28 -144.5 -110.5t-45.5 -199.5t45.5 -199t144.5 -110l-20 -61q-134 32 -208.5 132 t-74.5 238z" />
<glyph unicode="&#xac;" horiz-adv-x="1134" d="M102 813v80h930v-397h-80v317h-850z" />
<glyph unicode="&#xad;" horiz-adv-x="1228" d="M123 406v81h547v-81h-547z" />
<glyph unicode="&#xae;" horiz-adv-x="1759" d="M127 731q0 154 57 292.5t155.5 239.5t240 160.5t303.5 59.5q160 0 300 -59.5t238 -160.5t154.5 -239.5t56.5 -292.5q0 -155 -56.5 -294t-154.5 -240t-238 -160.5t-300 -59.5q-162 0 -303.5 59.5t-240 160.5t-155.5 240t-57 294zM213 731q0 -136 50.5 -259.5t137.5 -215 t213 -145.5t269 -54q141 0 265.5 54t211 145.5t136.5 215t50 259.5q0 180 -84.5 333.5t-237.5 246t-341 92.5q-191 0 -345.5 -92.5t-239.5 -246t-85 -333.5zM524 362v39l23 2q64 6 81 21.5t17 81.5l2 461q0 24 -1 39t-7.5 26t-10.5 16.5t-20 9.5t-25 5l-36 4l-23 4l2 37 l168 -4h160q313 0 313 -180q0 -167 -227 -197q91 -6 149 -52t70 -126q15 -73 36 -105.5t50 -29.5l35 4l6 -39q-63 -25 -112 -25q-60 0 -93 37t-41 98q-7 40 -13.5 66.5t-24 60t-42 53.5t-67.5 34.5t-100 15.5h-21v-213q0 -65 19 -81t88 -22l22 -2v-39l-190 5zM772 762h68 q97 0 137.5 37.5t40.5 118.5q0 72 -37.5 108.5t-124.5 36.5h-84v-301z" />
<glyph unicode="&#xaf;" horiz-adv-x="669" d="M102 1231v82h465v-82h-465z" />
<glyph unicode="&#xb0;" horiz-adv-x="620" d="M41 1176q0 111 79 189.5t191 78.5q110 0 189.5 -79t79.5 -189q0 -112 -79 -191.5t-190 -79.5q-112 0 -191 79t-79 192zM117 1176q0 -82 56 -138.5t138 -56.5q80 0 136.5 57t56.5 138q0 79 -56.5 135.5t-136.5 56.5q-81 0 -137.5 -56t-56.5 -136z" />
<glyph unicode="&#xb1;" horiz-adv-x="1224" d="M322 207v82h682v-82h-682zM322 672v90h290v213h99v-213h290v-90h-290v-215h-99v215h-290z" />
<glyph unicode="&#xb2;" horiz-adv-x="712" d="M61 1241q0 84 79.5 155.5t207.5 71.5q126 0 201.5 -67.5t75.5 -181.5q0 -85 -58.5 -161.5t-185.5 -189.5l-160 -141l219 4q55 1 80.5 8t39.5 23.5t28 56.5h43l-4 -176v-35h-555v47l241 234q86 89 123 162t37 157q0 97 -42 152t-124 55q-64 0 -107.5 -31.5t-43.5 -80.5 q0 -8 1.5 -14.5t3 -10t6 -7.5t6.5 -5t8.5 -4.5t8.5 -4.5q46 -24 46 -73q0 -28 -21 -47t-53 -19q-50 0 -75.5 34t-25.5 89z" />
<glyph unicode="&#xb3;" horiz-adv-x="712" d="M51 739q0 35 25 58.5t65 23.5q31 0 48.5 -17.5t17.5 -43.5q0 -18 -7 -39t-7 -33q0 -59 102 -59q53 0 92.5 23t61.5 61t32.5 81.5t10.5 90.5q0 81 -38 119t-118 38q-40 0 -103 -20l-12 45q133 37 182.5 88t49.5 139q0 57 -37.5 93t-112.5 36q-52 0 -87.5 -21t-35.5 -56 q0 -27 23 -46q1 -1 4.5 -3.5t5 -3.5t4.5 -3.5t4.5 -4t4 -4.5t3.5 -5t2.5 -5.5t2.5 -6.5t1.5 -7t0.5 -8q0 -29 -20 -47t-56 -18q-40 0 -65 31.5t-25 78.5q0 73 76 123.5t186 50.5q126 0 199 -46.5t73 -127.5q0 -130 -233 -211h8q122 -2 192 -62.5t70 -164.5 q0 -121 -94.5 -190.5t-259.5 -69.5q-100 0 -168 37.5t-68 105.5z" />
<glyph unicode="&#xb4;" horiz-adv-x="432" d="M102 1065l80 303q31 115 88 115q27 0 45.5 -19.5t18.5 -54.5q0 -42 -35 -100l-152 -244h-45z" />
<glyph unicode="&#xb5;" horiz-adv-x="1173" />
<glyph unicode="&#xb6;" horiz-adv-x="1228" d="M129 1069q0 167 115 275t321 114l187 -4l397 4v-55q-91 0 -137.5 -19t-46.5 -71v-1694h-84v1765h-185v-1765h-86v1055q-226 0 -353.5 102t-127.5 293z" />
<glyph unicode="&#xb7;" horiz-adv-x="464" d="M123 440q0 52 37.5 89.5t93.5 37.5q53 0 90 -37.5t37 -89.5q0 -54 -36.5 -92.5t-90.5 -38.5q-56 0 -93.5 38t-37.5 93z" />
<glyph unicode="&#xb8;" horiz-adv-x="626" d="M111 -430l45 14q10 -51 51.5 -88t101.5 -37q68 0 107 60.5t39 140.5q0 74 -37.5 123t-102.5 49q-34 0 -68.5 -23t-58.5 -59l-41 27q29 51 77.5 78.5t105.5 27.5l39 117h61l-43 -123q76 -19 124 -80t48 -143q0 -111 -69.5 -181.5t-167.5 -70.5q-86 0 -141 50t-70 118z" />
<glyph unicode="&#xb9;" horiz-adv-x="493" d="M31 1366v47q73 6 105 14t108 39h73v-688q0 -80 17 -101t88 -24l41 -2v-47l-213 4l-215 -4v47l41 2q73 3 90.5 24t17.5 101v488q0 55 -18.5 74t-73.5 22z" />
<glyph unicode="&#xba;" horiz-adv-x="905" d="M61 961q0 157 114 264.5t278 107.5t277.5 -107.5t113.5 -264.5q0 -154 -113.5 -262.5t-277.5 -108.5t-278 108.5t-114 262.5zM92 379v49h723v-49h-723zM211 961q0 -146 59 -234t183 -88q125 0 184 87.5t59 234.5q0 148 -59 236.5t-184 88.5q-124 0 -183 -88.5t-59 -236.5 z" />
<glyph unicode="&#xbb;" horiz-adv-x="876" d="M133 137q99 28 145 110t46 199t-46 199.5t-145 110.5l21 61q134 -32 208 -132t74 -239q0 -138 -74 -238t-208 -132zM471 137q99 28 145 110t46 199t-46 199.5t-145 110.5l21 61q134 -32 208 -132t74 -239q0 -138 -74 -238t-208 -132z" />
<glyph unicode="&#xbc;" horiz-adv-x="1650" d="M31 1366v47q73 6 105 14t108 39h73v-688q0 -80 17 -101t88 -24l41 -2v-47l-213 4l-215 -4v47l41 2q73 3 90.5 24t17.5 101v488q0 55 -18.5 74t-73.5 22zM268 0l1006 1479h108l-1005 -1479h-109zM987 203v22q39 45 80 106t86 140t72 128.5t73.5 140.5t55.5 108h217v-17 l-510 -583h301v211q44 11 94 55h45v-266h101v-45h-101v-45q0 -69 13.5 -87t70.5 -22l25 -2l-2 -51l-174 4l-220 -4l-2 51l45 2q72 6 88.5 23t16.5 86v45h-375z" />
<glyph unicode="&#xbd;" horiz-adv-x="1802" d="M31 1366v47q73 6 105 14t108 39h73v-688q0 -80 17 -101t88 -24l41 -2v-47l-213 4l-215 -4v47l41 2q73 3 90.5 24t17.5 101v488q0 55 -18.5 74t-73.5 22zM268 0l1006 1479h108l-1005 -1479h-109zM1151 633q0 84 79.5 155.5t207.5 71.5q126 0 201 -68t75 -182 q0 -84 -58 -160.5t-186 -189.5l-159 -141l219 4q78 1 102 16t45 72h43l-4 -176v-35h-555v47l242 234q86 89 123 162t37 157q0 97 -42 152t-124 55q-64 0 -108 -32t-44 -81q0 -10 1.5 -16.5t6 -11t7 -6.5t10.5 -6l10 -5q45 -23 45 -74q0 -28 -21 -46.5t-53 -18.5 q-50 0 -75 33.5t-25 89.5z" />
<glyph unicode="&#xbe;" horiz-adv-x="1869" d="M51 739q0 35 25 58.5t65 23.5q31 0 48.5 -17.5t17.5 -43.5q0 -18 -7 -39t-7 -33q0 -59 102 -59q53 0 92.5 23t61.5 61t32.5 81.5t10.5 90.5q0 81 -38 119t-118 38q-40 0 -103 -20l-12 45q133 37 182.5 88t49.5 139q0 57 -37.5 93t-112.5 36q-52 0 -87.5 -21t-35.5 -56 q0 -27 23 -46q1 -1 4.5 -3.5t5 -3.5t4.5 -3.5t4.5 -4t4 -4.5t3.5 -5t2.5 -5.5t2.5 -6.5t1.5 -7t0.5 -8q0 -29 -20 -47t-56 -18q-40 0 -65 31.5t-25 78.5q0 73 76 123.5t186 50.5q126 0 199 -46.5t73 -127.5q0 -130 -233 -211h8q122 -2 192 -62.5t70 -164.5 q0 -121 -94.5 -190.5t-259.5 -69.5q-100 0 -168 37.5t-68 105.5zM487 0l1006 1479h109l-1006 -1479h-109zM1206 203v22q39 45 80 106t86 140t72 128.5t73.5 140.5t55.5 108h217v-17l-510 -583h301v211q44 11 94 55h45v-266h101v-45h-101v-45q0 -69 13.5 -87t70.5 -22l25 -2 l-2 -51l-174 4l-219 -4l-2 51l45 2q72 6 88 23t16 86v45h-375z" />
<glyph unicode="&#xbf;" horiz-adv-x="929" d="M102 -205q6 167 102.5 274t235.5 107q124 0 207 -70q-13 72 -28 130t-32.5 115.5t-23.5 80.5q-13 49 9 79t55 30q32 0 55.5 -20.5t24.5 -57.5l24 -512v-6l-43 -2q-47 178 -223 178q-108 0 -151 -82.5t-48 -243.5q-6 -159 46 -241t171 -82t119 61q0 11 -7 38t-7 42 q0 35 24 62.5t70 27.5q41 0 69 -33t27 -80q-1 -52 -47.5 -92.5t-113.5 -60t-138 -19.5q-104 0 -191 45.5t-138.5 133t-47.5 198.5zM489 793q0 55 38 93t94 38q54 0 90.5 -38.5t36.5 -92.5q0 -52 -37 -89.5t-90 -37.5q-56 0 -94 37.5t-38 89.5z" />
<glyph unicode="&#xc0;" horiz-adv-x="1525" d="M-31 -6v51l19 2q109 14 163 54.5t99 150.5l495 1202h70l483 -1202q41 -103 89 -149.5t129 -53.5l40 -4v-51l-253 6l-328 -6v51l41 4q71 7 102 29.5t31 64.5q0 39 -29 111l-106 266h-578l-110 -266q-35 -86 -35 -119q0 -39 34 -59.5t111 -26.5l41 -4v-51l-260 6zM463 586 h526l-258 649zM559 1925h166l53 -369h-24z" />
<glyph unicode="&#xc1;" horiz-adv-x="1525" d="M-31 -6v51l19 2q109 14 163 54.5t99 150.5l495 1202h70l483 -1202q41 -103 89 -149.5t129 -53.5l40 -4v-51l-253 6l-328 -6v51l41 4q71 7 102 29.5t31 64.5q0 39 -29 111l-106 266h-578l-110 -266q-35 -86 -35 -119q0 -39 34 -59.5t111 -26.5l41 -4v-51l-260 6zM463 586 h526l-258 649zM756 1556l53 369h166l-195 -369h-24z" />
<glyph unicode="&#xc2;" horiz-adv-x="1525" d="M-31 -6v51l19 2q109 14 163 54.5t99 150.5l495 1202h70l483 -1202q41 -103 89 -149.5t129 -53.5l40 -4v-51l-253 6l-328 -6v51l41 4q71 7 102 29.5t31 64.5q0 39 -29 111l-106 266h-578l-110 -266q-35 -86 -35 -119q0 -39 34 -59.5t111 -26.5l41 -4v-51l-260 6zM463 586 h526l-258 649zM549 1559l192 366h45l193 -366h-49l-160 188h-12l-160 -188h-49z" />
<glyph unicode="&#xc3;" horiz-adv-x="1525" d="M-31 -6v51l19 2q109 14 163 54.5t99 150.5l495 1202h70l483 -1202q41 -103 89 -149.5t129 -53.5l40 -4v-51l-253 6l-328 -6v51l41 4q71 7 102 29.5t31 64.5q0 39 -29 111l-106 266h-578l-110 -266q-35 -86 -35 -119q0 -39 34 -59.5t111 -26.5l41 -4v-51l-260 6zM442 1663 q0 25 10.5 59t30 69.5t55.5 60t80 24.5q49 0 138 -53l75 -45q65 -39 105 -39q39 0 68 29t43 75h38q-10 -91 -56.5 -147t-108.5 -56q-49 0 -140 52l-53 32q-85 54 -125 54q-41 0 -76 -37t-45 -78h-39zM463 586h526l-258 649z" />
<glyph unicode="&#xc4;" horiz-adv-x="1525" d="M-31 -6v51l19 2q109 14 163 54.5t99 150.5l495 1202h70l483 -1202q41 -103 89 -149.5t129 -53.5l40 -4v-51l-253 6l-328 -6v51l41 4q71 7 102 29.5t31 64.5q0 39 -29 111l-106 266h-578l-110 -266q-35 -86 -35 -119q0 -39 34 -59.5t111 -26.5l41 -4v-51l-260 6zM463 586 h526l-258 649zM475 1800q0 49 28.5 82t76.5 33q50 0 76 -32.5t26 -82.5q0 -52 -26 -84.5t-76 -32.5q-48 0 -76.5 33t-28.5 84zM864 1800q0 49 28.5 82t76.5 33q50 0 76 -32.5t26 -82.5q0 -52 -26 -84.5t-76 -32.5q-48 0 -76.5 33t-28.5 84z" />
<glyph unicode="&#xc5;" horiz-adv-x="1525" d="M-31 -6v51l19 2q109 14 163 54.5t99 150.5l495 1202h70l483 -1202q41 -103 89 -149.5t129 -53.5l40 -4v-51l-253 6l-328 -6v51l41 4q71 7 102 29.5t31 64.5q0 39 -29 111l-106 266h-578l-110 -266q-35 -86 -35 -119q0 -39 34 -59.5t111 -26.5l41 -4v-51l-260 6zM463 586 h526l-258 649zM594 1743q0 69 47 121.5t127 52.5q83 0 127.5 -54t44.5 -120q0 -85 -51 -129.5t-119 -44.5q-78 0 -127 50t-49 124zM662 1743q0 -51 31.5 -81t76.5 -30q41 0 71.5 29.5t30.5 81.5q0 51 -30.5 80.5t-73.5 29.5q-41 0 -73.5 -28t-32.5 -82z" />
<glyph unicode="&#xc6;" horiz-adv-x="2082" d="M-31 -6v45l54 6q44 5 69.5 11.5t61 26.5t70.5 61t75 108l592 983q59 98 59 131q0 40 -65 43l-74 4v47l223 -6h879l4 -147l16 -189h-49q-10 66 -22 109t-34 76t-48 50.5t-72.5 28.5t-97.5 14t-133 3h-267v-606h226q32 0 55 10t43 36t31.5 76t15.5 125h51l-6 -274l6 -303 h-51q0 147 -36 212.5t-109 65.5h-226v-522q0 -86 43.5 -127t155.5 -41h190q68 0 114 5.5t85.5 21t63 41t42.5 69.5t29 101t17 141h51l-14 -246l-7 -184h-909l-317 -6v41l147 14q55 5 80.5 30t38 99.5t12.5 229.5v227h-436l-227 -379q-43 -68 -43 -119q0 -81 110 -92l64 -6 v-45q-94 6 -260 6q-163 0 -271 -6zM629 688h403v672z" />
<glyph unicode="&#xc7;" horiz-adv-x="1474" d="M127 727q0 159 54.5 300.5t146.5 241t218 157t265 57.5q173 0 328 -76q68 -31 80 -31q47 0 55 78h51l-4 -240l4 -239h-51q-31 214 -148.5 330t-308.5 116q-130 0 -225.5 -54t-150 -151.5t-80 -218.5t-25.5 -270q0 -132 15.5 -237t51 -190.5t91 -142.5t137 -87.5 t186.5 -30.5q191 0 316.5 129t146.5 321h49l-4 -249l6 -240h-49l-6 23q-6 23 -11.5 35.5t-17.5 25t-28 12.5q-20 0 -78 -28q-178 -89 -334 -91l-35 -100q76 -19 124 -80t48 -143q0 -111 -69.5 -181.5t-167.5 -70.5q-86 0 -141 50t-70 118l45 14q10 -51 51.5 -88t101.5 -37 q68 0 107 60.5t39 140.5q0 74 -37.5 123t-102.5 49q-34 0 -68.5 -23t-58.5 -59l-41 27q29 51 77.5 78.5t105.5 27.5l33 97q-287 19 -454 223.5t-167 523.5z" />
<glyph unicode="&#xc8;" horiz-adv-x="1329" d="M82 -6v51l41 4q34 4 49 6t37.5 7t31.5 11t22.5 17.5t17.5 26t9.5 37.5t7 51t1.5 67v910q0 39 -1.5 67t-7 51t-9.5 37.5t-17.5 26t-22.5 17.5t-31.5 11t-37.5 7t-49 6l-41 4v51l303 -6h795l4 -147l16 -189h-49q-10 65 -22 107t-34.5 74.5t-48 50t-72 28.5t-98 14t-133.5 3 h-270v-600h229q67 0 103 51.5t43 193.5h51l-6 -274l6 -303h-51q0 145 -36.5 209.5t-109.5 64.5h-229v-518q0 -97 42 -129.5t161 -32.5h190q94 0 149 13t94.5 55t58 112.5t28.5 192.5h51l-14 -246l-6 -184h-842zM537 1925h165l54 -369h-25z" />
<glyph unicode="&#xc9;" horiz-adv-x="1329" d="M82 -6v51l41 4q34 4 49 6t37.5 7t31.5 11t22.5 17.5t17.5 26t9.5 37.5t7 51t1.5 67v910q0 39 -1.5 67t-7 51t-9.5 37.5t-17.5 26t-22.5 17.5t-31.5 11t-37.5 7t-49 6l-41 4v51l303 -6h795l4 -147l16 -189h-49q-10 65 -22 107t-34.5 74.5t-48 50t-72 28.5t-98 14t-133.5 3 h-270v-600h229q67 0 103 51.5t43 193.5h51l-6 -274l6 -303h-51q0 145 -36.5 209.5t-109.5 64.5h-229v-518q0 -97 42 -129.5t161 -32.5h190q94 0 149 13t94.5 55t58 112.5t28.5 192.5h51l-14 -246l-6 -184h-842zM733 1556l53 369h166l-194 -369h-25z" />
<glyph unicode="&#xca;" horiz-adv-x="1329" d="M82 -6v51l41 4q34 4 49 6t37.5 7t31.5 11t22.5 17.5t17.5 26t9.5 37.5t7 51t1.5 67v910q0 39 -1.5 67t-7 51t-9.5 37.5t-17.5 26t-22.5 17.5t-31.5 11t-37.5 7t-49 6l-41 4v51l303 -6h795l4 -147l16 -189h-49q-10 65 -22 107t-34.5 74.5t-48 50t-72 28.5t-98 14t-133.5 3 h-270v-600h229q67 0 103 51.5t43 193.5h51l-6 -274l6 -303h-51q0 145 -36.5 209.5t-109.5 64.5h-229v-518q0 -97 42 -129.5t161 -32.5h190q94 0 149 13t94.5 55t58 112.5t28.5 192.5h51l-14 -246l-6 -184h-842zM526 1559l193 366h45l192 -366h-49l-159 188h-13l-160 -188 h-49z" />
<glyph unicode="&#xcb;" horiz-adv-x="1329" d="M82 -6v51l41 4q34 4 49 6t37.5 7t31.5 11t22.5 17.5t17.5 26t9.5 37.5t7 51t1.5 67v910q0 39 -1.5 67t-7 51t-9.5 37.5t-17.5 26t-22.5 17.5t-31.5 11t-37.5 7t-49 6l-41 4v51l303 -6h795l4 -147l16 -189h-49q-10 65 -22 107t-34.5 74.5t-48 50t-72 28.5t-98 14t-133.5 3 h-270v-600h229q67 0 103 51.5t43 193.5h51l-6 -274l6 -303h-51q0 145 -36.5 209.5t-109.5 64.5h-229v-518q0 -97 42 -129.5t161 -32.5h190q94 0 149 13t94.5 55t58 112.5t28.5 192.5h51l-14 -246l-6 -184h-842zM453 1800q0 49 28 82t76 33q50 0 76 -32.5t26 -82.5 q0 -52 -26 -84.5t-76 -32.5q-48 0 -76 33t-28 84zM842 1800q0 49 28 82t76 33q50 0 76.5 -32.5t26.5 -82.5q0 -52 -26.5 -84.5t-76.5 -32.5q-48 0 -76 33t-28 84z" />
<glyph unicode="&#xcc;" horiz-adv-x="772" d="M82 -6v51l41 4q34 4 49 6t37.5 7t31.5 11t22.5 17.5t17.5 26t9.5 37.5t7 51t1.5 67v910q0 39 -1.5 67t-7 51t-9.5 37.5t-17.5 26t-22.5 17.5t-31.5 11t-37.5 7t-49 6l-41 4v51l303 -6h2l303 6v-51l-41 -4q-34 -4 -49 -6t-37.5 -7t-31.5 -11t-22.5 -17.5t-17.5 -26 t-9.5 -37.5t-7 -51t-1.5 -67v-910q0 -39 1.5 -67t7 -51t9.5 -37.5t17.5 -26t22.5 -17.5t31.5 -11t37.5 -7t49 -6l41 -4v-51l-303 6h-2zM176 1925h166l53 -369h-24z" />
<glyph unicode="&#xcd;" horiz-adv-x="772" d="M82 -6v51l41 4q34 4 49 6t37.5 7t31.5 11t22.5 17.5t17.5 26t9.5 37.5t7 51t1.5 67v910q0 39 -1.5 67t-7 51t-9.5 37.5t-17.5 26t-22.5 17.5t-31.5 11t-37.5 7t-49 6l-41 4v51l303 -6h2l303 6v-51l-41 -4q-34 -4 -49 -6t-37.5 -7t-31.5 -11t-22.5 -17.5t-17.5 -26 t-9.5 -37.5t-7 -51t-1.5 -67v-910q0 -39 1.5 -67t7 -51t9.5 -37.5t17.5 -26t22.5 -17.5t31.5 -11t37.5 -7t49 -6l41 -4v-51l-303 6h-2zM373 1556l53 369h166l-195 -369h-24z" />
<glyph unicode="&#xce;" horiz-adv-x="772" d="M82 -6v51l41 4q34 4 49 6t37.5 7t31.5 11t22.5 17.5t17.5 26t9.5 37.5t7 51t1.5 67v910q0 39 -1.5 67t-7 51t-9.5 37.5t-17.5 26t-22.5 17.5t-31.5 11t-37.5 7t-49 6l-41 4v51l303 -6h2l303 6v-51l-41 -4q-34 -4 -49 -6t-37.5 -7t-31.5 -11t-22.5 -17.5t-17.5 -26 t-9.5 -37.5t-7 -51t-1.5 -67v-910q0 -39 1.5 -67t7 -51t9.5 -37.5t17.5 -26t22.5 -17.5t31.5 -11t37.5 -7t49 -6l41 -4v-51l-303 6h-2zM166 1559l192 366h45l193 -366h-49l-160 188h-12l-160 -188h-49z" />
<glyph unicode="&#xcf;" horiz-adv-x="772" d="M82 -6v51l41 4q34 4 49 6t37.5 7t31.5 11t22.5 17.5t17.5 26t9.5 37.5t7 51t1.5 67v910q0 39 -1.5 67t-7 51t-9.5 37.5t-17.5 26t-22.5 17.5t-31.5 11t-37.5 7t-49 6l-41 4v51l303 -6h2l303 6v-51l-41 -4q-34 -4 -49 -6t-37.5 -7t-31.5 -11t-22.5 -17.5t-17.5 -26 t-9.5 -37.5t-7 -51t-1.5 -67v-910q0 -39 1.5 -67t7 -51t9.5 -37.5t17.5 -26t22.5 -17.5t31.5 -11t37.5 -7t49 -6l41 -4v-51l-303 6h-2zM92 1800q0 49 28.5 82t76.5 33q50 0 76 -32.5t26 -82.5q0 -52 -26 -84.5t-76 -32.5q-48 0 -76.5 33t-28.5 84zM481 1800q0 49 28.5 82 t76.5 33q50 0 76 -32.5t26 -82.5q0 -52 -26 -84.5t-76 -32.5q-48 0 -76.5 33t-28.5 84z" />
<glyph unicode="&#xd0;" horiz-adv-x="1622" d="M82 -6v51l41 4q34 4 49 6t38 7t32 11t22.5 17.5t18 26t10 37t7 51t1.5 67.5v447h-219v65h219v398q0 39 -1.5 67t-7 51t-9.5 37.5t-17.5 26t-22.5 17.5t-31.5 11t-37.5 7t-49 6l-41 4v51l303 -6h289q424 0 642 -173.5t218 -547.5q0 -142 -40.5 -262.5t-112 -206.5 t-167.5 -146t-207 -89t-231 -29h-393zM477 299q0 -35 1.5 -59.5t5.5 -54.5t13.5 -50t24 -38t37.5 -27t53 -9h174q259 0 406 167.5t147 500.5q0 160 -32.5 280t-102.5 207.5t-187.5 132t-281.5 44.5h-258v-609h379v-65h-379v-420z" />
<glyph unicode="&#xd1;" horiz-adv-x="1599" d="M72 1407v53l397 -6q107 -147 392 -523t399 -523v774q0 39 -1.5 67.5t-7 51t-10 37.5t-17.5 26.5t-22.5 17.5t-31.5 11t-38.5 7t-48.5 5l-41 4v51l267 -6l250 6v-51l-41 -4q-30 -3 -43.5 -5t-35 -6t-30.5 -9t-22.5 -13t-18.5 -19t-12 -26.5t-9 -36.5t-4 -47t-2 -61v-1182 h-61q-90 181 -395 592.5t-506 648.5v-969q0 -53 2.5 -87t12.5 -59t19.5 -38t34 -22t44.5 -12t63 -7l41 -4v-51l-262 8l-254 -8v51l41 4q43 4 63 7t44.5 12t34 22t19.5 38t12.5 59t2.5 87v1057q-63 78 -164 78h-61zM500 1663q0 25 10.5 59t30 69.5t55.5 60t80 24.5 q48 0 137 -53l76 -45q65 -39 104 -39t68 29t43 75h39q-10 -91 -57 -147t-109 -56q-48 0 -139 52l-54 32q-85 54 -125 54q-41 0 -75.5 -37t-44.5 -78h-39z" />
<glyph unicode="&#xd2;" d="M127 731q0 217 92 389t254 267.5t365 95.5q152 0 283.5 -56t225.5 -154.5t147.5 -238.5t53.5 -303t-53.5 -303.5t-147.5 -239.5t-225.5 -155t-283.5 -56q-203 0 -365 95.5t-254 268t-92 390.5zM336 731q0 -692 502 -692q501 0 501 692q0 690 -501 690q-502 0 -502 -690z M631 1925h166l53 -369h-25z" />
<glyph unicode="&#xd3;" d="M127 731q0 217 92 389t254 267.5t365 95.5q152 0 283.5 -56t225.5 -154.5t147.5 -238.5t53.5 -303t-53.5 -303.5t-147.5 -239.5t-225.5 -155t-283.5 -56q-203 0 -365 95.5t-254 268t-92 390.5zM336 731q0 -692 502 -692q501 0 501 692q0 690 -501 690q-502 0 -502 -690z M827 1556l54 369h166l-195 -369h-25z" />
<glyph unicode="&#xd4;" d="M127 731q0 217 92 389t254 267.5t365 95.5q152 0 283.5 -56t225.5 -154.5t147.5 -238.5t53.5 -303t-53.5 -303.5t-147.5 -239.5t-225.5 -155t-283.5 -56q-203 0 -365 95.5t-254 268t-92 390.5zM336 731q0 -692 502 -692q501 0 501 692q0 690 -501 690q-502 0 -502 -690z M621 1559l192 366h45l193 -366h-50l-159 188h-13l-159 -188h-49z" />
<glyph unicode="&#xd5;" d="M127 731q0 217 92 389t254 267.5t365 95.5q152 0 283.5 -56t225.5 -154.5t147.5 -238.5t53.5 -303t-53.5 -303.5t-147.5 -239.5t-225.5 -155t-283.5 -56q-203 0 -365 95.5t-254 268t-92 390.5zM336 731q0 -692 502 -692q501 0 501 692q0 690 -501 690q-502 0 -502 -690z M514 1663q0 25 10.5 59t30 69.5t55.5 60t80 24.5q48 0 137 -53l76 -45q65 -39 105 -39q39 0 67 29t43 75h39q-10 -91 -57 -147t-109 -56q-48 0 -139 52l-53 32q-85 54 -125 54q-41 0 -76 -37t-45 -78h-39z" />
<glyph unicode="&#xd6;" d="M127 731q0 217 92 389t254 267.5t365 95.5q152 0 283.5 -56t225.5 -154.5t147.5 -238.5t53.5 -303t-53.5 -303.5t-147.5 -239.5t-225.5 -155t-283.5 -56q-203 0 -365 95.5t-254 268t-92 390.5zM336 731q0 -692 502 -692q501 0 501 692q0 690 -501 690q-502 0 -502 -690z M547 1800q0 49 28 82t76 33q50 0 76.5 -32.5t26.5 -82.5q0 -52 -26.5 -84.5t-76.5 -32.5q-48 0 -76 33t-28 84zM936 1800q0 49 28 82t76 33q50 0 76.5 -32.5t26.5 -82.5q0 -52 -26.5 -84.5t-76.5 -32.5q-48 0 -76 33t-28 84z" />
<glyph unicode="&#xd7;" horiz-adv-x="1228" d="M250 272l358 359l-358 358l59 60l359 -359l358 359l59 -60l-358 -358l358 -359l-59 -59l-358 358l-359 -358z" />
<glyph unicode="&#xd8;" d="M127 731q0 217 92 389t254 267.5t365 95.5q270 0 462 -168l148 170h115l-201 -230q186 -211 186 -524q0 -163 -53.5 -303.5t-147.5 -239.5t-225.5 -155t-283.5 -56q-258 0 -451 156l-143 -164h-115l195 224q-94 102 -145.5 239.5t-51.5 298.5zM336 731q0 -267 78 -436 l813 934q-126 192 -389 192q-502 0 -502 -690zM459 217q127 -178 379 -178q501 0 501 692q0 255 -69 418z" />
<glyph unicode="&#xd9;" horiz-adv-x="1536" d="M51 1409v51l303 -6h2l303 6v-51l-41 -4q-34 -4 -49 -6t-37.5 -7t-31.5 -11t-22.5 -17.5t-17.5 -26t-9.5 -37.5t-7 -51t-1.5 -67v-725q0 -201 109.5 -306.5t294.5 -105.5q200 0 295.5 110.5t95.5 313.5v713q0 39 -1.5 67t-7 51t-9.5 37.5t-17.5 26t-22.5 17.5t-31.5 11 t-37.5 7t-49 6l-41 4v51l303 -4l203 4v-51l-41 -4q-34 -4 -49 -6t-37.5 -7t-31.5 -11t-22.5 -17.5t-17.5 -26t-9.5 -37.5t-7 -51t-1.5 -67v-713q0 -240 -126 -366t-376 -126q-264 0 -401.5 115.5t-137.5 364.5v725q0 39 -1.5 67t-7 51t-9.5 37.5t-17.5 26t-22.5 17.5 t-31.5 11t-37.5 7t-49 6zM631 1925h166l53 -369h-25z" />
<glyph unicode="&#xda;" horiz-adv-x="1536" d="M51 1409v51l303 -6h2l303 6v-51l-41 -4q-34 -4 -49 -6t-37.5 -7t-31.5 -11t-22.5 -17.5t-17.5 -26t-9.5 -37.5t-7 -51t-1.5 -67v-725q0 -201 109.5 -306.5t294.5 -105.5q200 0 295.5 110.5t95.5 313.5v713q0 39 -1.5 67t-7 51t-9.5 37.5t-17.5 26t-22.5 17.5t-31.5 11 t-37.5 7t-49 6l-41 4v51l303 -4l203 4v-51l-41 -4q-34 -4 -49 -6t-37.5 -7t-31.5 -11t-22.5 -17.5t-17.5 -26t-9.5 -37.5t-7 -51t-1.5 -67v-713q0 -240 -126 -366t-376 -126q-264 0 -401.5 115.5t-137.5 364.5v725q0 39 -1.5 67t-7 51t-9.5 37.5t-17.5 26t-22.5 17.5 t-31.5 11t-37.5 7t-49 6zM827 1556l54 369h166l-195 -369h-25z" />
<glyph unicode="&#xdb;" horiz-adv-x="1536" d="M51 1409v51l303 -6h2l303 6v-51l-41 -4q-34 -4 -49 -6t-37.5 -7t-31.5 -11t-22.5 -17.5t-17.5 -26t-9.5 -37.5t-7 -51t-1.5 -67v-725q0 -201 109.5 -306.5t294.5 -105.5q200 0 295.5 110.5t95.5 313.5v713q0 39 -1.5 67t-7 51t-9.5 37.5t-17.5 26t-22.5 17.5t-31.5 11 t-37.5 7t-49 6l-41 4v51l303 -4l203 4v-51l-41 -4q-34 -4 -49 -6t-37.5 -7t-31.5 -11t-22.5 -17.5t-17.5 -26t-9.5 -37.5t-7 -51t-1.5 -67v-713q0 -240 -126 -366t-376 -126q-264 0 -401.5 115.5t-137.5 364.5v725q0 39 -1.5 67t-7 51t-9.5 37.5t-17.5 26t-22.5 17.5 t-31.5 11t-37.5 7t-49 6zM621 1559l192 366h45l193 -366h-50l-159 188h-13l-159 -188h-49z" />
<glyph unicode="&#xdc;" horiz-adv-x="1536" d="M51 1409v51l303 -6h2l303 6v-51l-41 -4q-34 -4 -49 -6t-37.5 -7t-31.5 -11t-22.5 -17.5t-17.5 -26t-9.5 -37.5t-7 -51t-1.5 -67v-725q0 -201 109.5 -306.5t294.5 -105.5q200 0 295.5 110.5t95.5 313.5v713q0 39 -1.5 67t-7 51t-9.5 37.5t-17.5 26t-22.5 17.5t-31.5 11 t-37.5 7t-49 6l-41 4v51l303 -4l203 4v-51l-41 -4q-34 -4 -49 -6t-37.5 -7t-31.5 -11t-22.5 -17.5t-17.5 -26t-9.5 -37.5t-7 -51t-1.5 -67v-713q0 -240 -126 -366t-376 -126q-264 0 -401.5 115.5t-137.5 364.5v725q0 39 -1.5 67t-7 51t-9.5 37.5t-17.5 26t-22.5 17.5 t-31.5 11t-37.5 7t-49 6zM547 1800q0 49 28 82t76 33q50 0 76.5 -32.5t26.5 -82.5q0 -52 -26.5 -84.5t-76.5 -32.5q-48 0 -76 33t-28 84zM936 1800q0 49 28 82t76 33q50 0 76.5 -32.5t26.5 -82.5q0 -52 -26.5 -84.5t-76.5 -32.5q-48 0 -76 33t-28 84z" />
<glyph unicode="&#xdd;" horiz-adv-x="1355" d="M-41 1409v51l311 -6l308 6v-51l-66 -6q-113 -10 -113 -86q0 -48 45 -125l299 -520l297 520q45 80 45 127q0 74 -116 84l-60 6v51l271 -10l217 10v-51l-56 -10q-65 -12 -107 -47t-85 -111l-373 -651v-318q0 -39 1.5 -67t7 -51t9.5 -37.5t17.5 -26t22.5 -17.5t31.5 -11 t37.5 -7t49 -6l41 -4v-51l-303 6h-2l-303 -6v51l41 4q34 4 49 6t37.5 7t31.5 11t22.5 17.5t17.5 26t9.5 37.5t7 51t1.5 67v316l-358 626q-49 86 -97 126t-129 57zM696 1626l80 303q31 115 88 115q27 0 45.5 -19.5t18.5 -54.5q0 -42 -35 -100l-152 -244h-45z" />
<glyph unicode="&#xde;" horiz-adv-x="1136" d="M82 1409v51l301 -6l297 6v-51l-41 -4q-34 -4 -49 -6t-37.5 -7t-31.5 -11t-22.5 -17.5t-17.5 -26t-9.5 -37.5t-7 -51t-1.5 -67v-43h178q53 0 98 -3t100 -12.5t98 -25.5t85.5 -45t71 -68t46 -97t17.5 -130q0 -178 -144.5 -284.5t-402.5 -106.5h-147v-95q0 -39 1.5 -67.5 t7 -51t10 -37t18 -26t22.5 -17.5t32 -11t38 -7t49 -6l41 -4v-51l-291 6l-307 -6v51l41 4q27 3 39.5 4.5t32.5 5t28 7t21.5 10.5t18.5 14.5t13 20t10.5 27t6 35t4 44.5t0.5 55v910q0 39 -1.5 67t-7 51t-9.5 37.5t-17.5 26t-22.5 17.5t-31.5 11t-37.5 7t-49 6zM463 420h147 q104 0 172.5 22t105 68.5t50.5 104.5t14 143q0 184 -68.5 256.5t-242.5 72.5h-178v-667z" />
<glyph unicode="&#xdf;" horiz-adv-x="1214" d="M51 -6v47l33 4q36 4 52.5 7t37.5 11t28.5 19.5t16 34t10.5 53.5t2 78v598h-176v47h176v127q0 106 18.5 186.5t52 133t83.5 85t107.5 45.5t130.5 13q146 0 244 -69.5t98 -168.5q0 -48 -27.5 -90t-77.5 -90q-42 -40 -66.5 -66t-46.5 -62.5t-22 -64.5q0 -46 48 -104.5 t134 -116.5q44 -30 68.5 -48t68 -57t67.5 -73t43.5 -84t19.5 -102q0 -113 -105 -211.5t-248 -98.5q-158 0 -242.5 66t-84.5 147q0 52 26.5 83.5t71.5 31.5q37 0 65.5 -24.5t28.5 -61.5q0 -21 -8 -49q-6 -27 -6 -49q0 -44 33 -68t96 -24q99 0 156 64.5t57 158.5 q0 41 -13 78.5t-32 66t-50.5 59t-59 51t-68.5 48.5q-201 135 -201 242q0 45 23 79.5t73 84.5q45 45 80 109t35 130q0 115 -58.5 173.5t-148.5 58.5q-114 0 -165.5 -84t-51.5 -222v-878q0 -151 20 -248h-94z" />
<glyph unicode="&#xe0;" horiz-adv-x="1003" d="M102 168q0 44 21 84.5t61 77t83 65.5t102 62q94 52 297 133v65q0 117 -44 170.5t-157 53.5q-65 0 -113.5 -16.5t-48.5 -51.5q0 -15 8 -39q11 -29 11 -55q0 -37 -27.5 -59.5t-67.5 -22.5q-36 0 -61 27.5t-25 66.5q0 52 33 92.5t86.5 63t113 34t120.5 11.5q165 0 240 -76.5 t75 -247.5v-368q0 -99 15 -144t59 -45q29 0 51.5 21t32.5 51l37 -15q-37 -129 -175 -129q-85 0 -120.5 48.5t-40.5 142.5q-56 -93 -144.5 -142t-193.5 -49q-101 0 -164.5 51t-63.5 140zM262 178q0 -58 34 -91.5t99 -33.5q86 0 163 59t108 138v299q-76 -32 -140.5 -68 t-127.5 -83t-99.5 -104t-36.5 -116zM330 1403q0 35 18.5 54.5t44.5 19.5q57 0 88 -115l80 -303h-45l-151 244q-35 58 -35 100z" />
<glyph unicode="&#xe1;" horiz-adv-x="1003" d="M102 168q0 44 21 84.5t61 77t83 65.5t102 62q94 52 297 133v65q0 117 -44 170.5t-157 53.5q-65 0 -113.5 -16.5t-48.5 -51.5q0 -15 8 -39q11 -29 11 -55q0 -37 -27.5 -59.5t-67.5 -22.5q-36 0 -61 27.5t-25 66.5q0 52 33 92.5t86.5 63t113 34t120.5 11.5q165 0 240 -76.5 t75 -247.5v-368q0 -99 15 -144t59 -45q29 0 51.5 21t32.5 51l37 -15q-37 -129 -175 -129q-85 0 -120.5 48.5t-40.5 142.5q-56 -93 -144.5 -142t-193.5 -49q-101 0 -164.5 51t-63.5 140zM262 178q0 -58 34 -91.5t99 -33.5q86 0 163 59t108 138v299q-76 -32 -140.5 -68 t-127.5 -83t-99.5 -104t-36.5 -116zM422 1059l80 303q31 115 88 115q26 0 44.5 -19.5t18.5 -54.5q0 -42 -35 -100l-151 -244h-45z" />
<glyph unicode="&#xe2;" horiz-adv-x="1003" d="M102 168q0 44 21 84.5t61 77t83 65.5t102 62q94 52 297 133v65q0 117 -44 170.5t-157 53.5q-65 0 -113.5 -16.5t-48.5 -51.5q0 -15 8 -39q11 -29 11 -55q0 -37 -27.5 -59.5t-67.5 -22.5q-36 0 -61 27.5t-25 66.5q0 52 33 92.5t86.5 63t113 34t120.5 11.5q165 0 240 -76.5 t75 -247.5v-368q0 -99 15 -144t59 -45q29 0 51.5 21t32.5 51l37 -15q-37 -129 -175 -129q-85 0 -120.5 48.5t-40.5 142.5q-56 -93 -144.5 -142t-193.5 -49q-101 0 -164.5 51t-63.5 140zM262 178q0 -58 34 -91.5t99 -33.5q86 0 163 59t108 138v299q-76 -32 -140.5 -68 t-127.5 -83t-99.5 -104t-36.5 -116zM279 1059l192 389h45l193 -389h-50l-159 201h-13l-159 -201h-49z" />
<glyph unicode="&#xe3;" horiz-adv-x="1003" d="M102 168q0 44 21 84.5t61 77t83 65.5t102 62q94 52 297 133v65q0 117 -44 170.5t-157 53.5q-65 0 -113.5 -16.5t-48.5 -51.5q0 -15 8 -39q11 -29 11 -55q0 -37 -27.5 -59.5t-67.5 -22.5q-36 0 -61 27.5t-25 66.5q0 52 33 92.5t86.5 63t113 34t120.5 11.5q165 0 240 -76.5 t75 -247.5v-368q0 -99 15 -144t59 -45q29 0 51.5 21t32.5 51l37 -15q-37 -129 -175 -129q-85 0 -120.5 48.5t-40.5 142.5q-56 -93 -144.5 -142t-193.5 -49q-101 0 -164.5 51t-63.5 140zM172 1149q0 25 10.5 59t30 69.5t55.5 60t80 24.5q48 0 137 -53l76 -45q65 -39 105 -39 q39 0 67 29t43 75h39q-10 -91 -57 -147t-109 -56q-48 0 -139 52l-53 32q-85 54 -125 54q-41 0 -76 -37t-45 -78h-39zM262 178q0 -58 34 -91.5t99 -33.5q86 0 163 59t108 138v299q-76 -32 -140.5 -68t-127.5 -83t-99.5 -104t-36.5 -116z" />
<glyph unicode="&#xe4;" horiz-adv-x="1003" d="M102 168q0 44 21 84.5t61 77t83 65.5t102 62q94 52 297 133v65q0 117 -44 170.5t-157 53.5q-65 0 -113.5 -16.5t-48.5 -51.5q0 -15 8 -39q11 -29 11 -55q0 -37 -27.5 -59.5t-67.5 -22.5q-36 0 -61 27.5t-25 66.5q0 52 33 92.5t86.5 63t113 34t120.5 11.5q165 0 240 -76.5 t75 -247.5v-368q0 -99 15 -144t59 -45q29 0 51.5 21t32.5 51l37 -15q-37 -129 -175 -129q-85 0 -120.5 48.5t-40.5 142.5q-56 -93 -144.5 -142t-193.5 -49q-101 0 -164.5 51t-63.5 140zM190 1272q0 49 28.5 81.5t76.5 32.5q50 0 76 -32t26 -82q0 -52 -26 -84.5t-76 -32.5 q-48 0 -76.5 33t-28.5 84zM262 178q0 -58 34 -91.5t99 -33.5q86 0 163 59t108 138v299q-76 -32 -140.5 -68t-127.5 -83t-99.5 -104t-36.5 -116zM580 1272q0 49 28 81.5t76 32.5q50 0 76 -32t26 -82q0 -52 -26 -84.5t-76 -32.5q-48 0 -76 33t-28 84z" />
<glyph unicode="&#xe5;" horiz-adv-x="1003" d="M102 168q0 44 21 84.5t61 77t83 65.5t102 62q94 52 297 133v65q0 117 -44 170.5t-157 53.5q-65 0 -113.5 -16.5t-48.5 -51.5q0 -15 8 -39q11 -29 11 -55q0 -37 -27.5 -59.5t-67.5 -22.5q-36 0 -61 27.5t-25 66.5q0 52 33 92.5t86.5 63t113 34t120.5 11.5q165 0 240 -76.5 t75 -247.5v-368q0 -99 15 -144t59 -45q29 0 51.5 21t32.5 51l37 -15q-37 -129 -175 -129q-85 0 -120.5 48.5t-40.5 142.5q-56 -93 -144.5 -142t-193.5 -49q-101 0 -164.5 51t-63.5 140zM262 178q0 -58 34 -91.5t99 -33.5q86 0 163 59t108 138v299q-76 -32 -140.5 -68 t-127.5 -83t-99.5 -104t-36.5 -116zM315 1253q0 69 47 121.5t127 52.5q83 0 128 -54t45 -120q0 -85 -51 -129.5t-119 -44.5q-78 0 -127.5 50.5t-49.5 123.5zM383 1253q0 -50 32 -80t77 -30q42 0 72 29t30 81q0 51 -31 81t-74 30q-41 0 -73.5 -28.5t-32.5 -82.5z" />
<glyph unicode="&#xe6;" horiz-adv-x="1548" d="M102 170q0 207 564 420v37q0 59 -5.5 98.5t-23 77.5t-55 57t-95.5 19q-68 0 -126 -16.5t-58 -51.5q0 -15 8 -39q11 -29 11 -55q0 -37 -28 -59.5t-69 -22.5q-36 0 -60 25t-24 63q0 52 33 93t86.5 65t114.5 36.5t123 12.5q216 0 282 -154q122 154 322 154 q153 0 244.5 -100.5t91.5 -266.5q0 -28 -11 -61h-618v-47q0 -183 85.5 -297.5t231.5 -114.5q93 0 167.5 54t113.5 157l49 -14q-85 -263 -358 -263q-134 0 -238 57.5t-170 155.5q-60 -99 -154 -156t-190 -57q-111 0 -177.5 48.5t-66.5 144.5zM262 178q0 -58 41.5 -93.5 t104.5 -35.5q71 0 149.5 61.5t108.5 137.5v301q-76 -32 -140.5 -68t-127.5 -83t-99.5 -104t-36.5 -116zM811 549h262q128 0 179 40t51 97q0 85 -62 139t-139 54q-119 0 -199 -94t-92 -236z" />
<glyph unicode="&#xe7;" horiz-adv-x="972" d="M92 432q0 215 137.5 356.5t343.5 141.5q69 0 136 -20t116 -63t49 -99q0 -45 -29 -75t-69 -30q-50 0 -78 28.5t-28 63.5q0 23 8 51t8 45q0 25 -37.5 36.5t-77.5 11.5q-142 0 -228.5 -120t-86.5 -317q0 -171 84.5 -287t234.5 -116q94 0 169 51.5t108 161.5l49 -16 q-35 -129 -127 -192.5t-215 -66.5l-35 -100q76 -19 124 -80t48 -143q0 -111 -69.5 -181.5t-167.5 -70.5q-86 0 -141 50t-70 118l45 14q10 -51 51.5 -88t101.5 -37q68 0 107 60.5t39 140.5q0 74 -37 123t-102 49q-34 0 -68.5 -23t-58.5 -59l-41 27q29 51 77 78.5t105 27.5 l33 97q-186 15 -297 139.5t-111 312.5z" />
<glyph unicode="&#xe8;" horiz-adv-x="987" d="M102 434q0 140 61.5 254t165.5 178t228 64q155 0 245.5 -100t90.5 -265q0 -39 -6 -63h-619q-2 -18 -2 -58q0 -112 34.5 -202t107 -146.5t172.5 -56.5q97 0 171 54.5t115 160.5l49 -18q-86 -259 -364 -259q-201 0 -325 127.5t-124 329.5zM272 549h260q124 0 174 40t50 97 q0 86 -60 139.5t-139 53.5q-123 0 -195 -88t-90 -242zM391 1409q0 35 18.5 54.5t45.5 19.5q57 0 88 -115l80 -303h-45l-152 244q-35 58 -35 100z" />
<glyph unicode="&#xe9;" horiz-adv-x="987" d="M102 434q0 140 61.5 254t165.5 178t228 64q155 0 245.5 -100t90.5 -265q0 -39 -6 -63h-619q-2 -18 -2 -58q0 -112 34.5 -202t107 -146.5t172.5 -56.5q97 0 171 54.5t115 160.5l49 -18q-86 -259 -364 -259q-201 0 -325 127.5t-124 329.5zM272 549h260q124 0 174 40t50 97 q0 86 -60 139.5t-139 53.5q-123 0 -195 -88t-90 -242zM483 1065l80 303q31 115 88 115q27 0 45.5 -19.5t18.5 -54.5q0 -42 -35 -100l-152 -244h-45z" />
<glyph unicode="&#xea;" horiz-adv-x="987" d="M102 434q0 140 61.5 254t165.5 178t228 64q155 0 245.5 -100t90.5 -265q0 -39 -6 -63h-619q-2 -18 -2 -58q0 -112 34.5 -202t107 -146.5t172.5 -56.5q97 0 171 54.5t115 160.5l49 -18q-86 -259 -364 -259q-201 0 -325 127.5t-124 329.5zM272 549h260q124 0 174 40t50 97 q0 86 -60 139.5t-139 53.5q-123 0 -195 -88t-90 -242zM340 1065l192 389h46l192 -389h-49l-160 201h-12l-160 -201h-49z" />
<glyph unicode="&#xeb;" horiz-adv-x="987" d="M102 434q0 140 61.5 254t165.5 178t228 64q155 0 245.5 -100t90.5 -265q0 -39 -6 -63h-619q-2 -18 -2 -58q0 -112 34.5 -202t107 -146.5t172.5 -56.5q97 0 171 54.5t115 160.5l49 -18q-86 -259 -364 -259q-201 0 -325 127.5t-124 329.5zM252 1278q0 49 28 82t76 33 q50 0 76.5 -32.5t26.5 -82.5q0 -52 -26.5 -84.5t-76.5 -32.5q-48 0 -76 33t-28 84zM272 549h260q124 0 174 40t50 97q0 86 -60 139.5t-139 53.5q-123 0 -195 -88t-90 -242zM641 1278q0 49 28 82t76 33q50 0 76.5 -32.5t26.5 -82.5q0 -52 -26.5 -84.5t-76.5 -32.5 q-48 0 -76 33t-28 84z" />
<glyph unicode="&#xec;" horiz-adv-x="612" d="M57 -6v47l33 4q31 4 46 6.5t35 7.5t28 14t18 22.5t13 34.5t5.5 49.5t2.5 68.5v432q0 99 -40.5 132.5t-125.5 33.5h-15v47q183 0 324 25v-670q0 -47 2 -78t10.5 -53.5t16 -34t28.5 -19.5t37.5 -11t52.5 -7l33 -4v-47l-252 6zM127 1409q0 35 18.5 54.5t44.5 19.5 q58 0 89 -115l79 -303h-45l-151 244q-35 58 -35 100z" />
<glyph unicode="&#xed;" horiz-adv-x="612" d="M57 -6v47l33 4q31 4 46 6.5t35 7.5t28 14t18 22.5t13 34.5t5.5 49.5t2.5 68.5v432q0 99 -40.5 132.5t-125.5 33.5h-15v47q183 0 324 25v-670q0 -47 2 -78t10.5 -53.5t16 -34t28.5 -19.5t37.5 -11t52.5 -7l33 -4v-47l-252 6zM219 1065l80 303q31 115 88 115 q27 0 45.5 -19.5t18.5 -54.5q0 -42 -35 -100l-152 -244h-45z" />
<glyph unicode="&#xee;" horiz-adv-x="612" d="M57 -6v47l33 4q31 4 46 6.5t35 7.5t28 14t18 22.5t13 34.5t5.5 49.5t2.5 68.5v432q0 99 -40.5 132.5t-125.5 33.5h-15v47q183 0 324 25v-670q0 -47 2 -78t10.5 -53.5t16 -34t28.5 -19.5t37.5 -11t52.5 -7l33 -4v-47l-252 6zM76 1065l192 389h45l193 -389h-49l-160 201 h-12l-160 -201h-49z" />
<glyph unicode="&#xef;" horiz-adv-x="612" d="M29 1274q0 49 28 82t76 33q50 0 76.5 -32.5t26.5 -82.5q0 -52 -26.5 -84.5t-76.5 -32.5q-48 0 -76 33t-28 84zM57 -6v47l33 4q31 4 46 6.5t35 7.5t28 14t18 22.5t13 34.5t5.5 49.5t2.5 68.5v432q0 99 -40.5 132.5t-125.5 33.5h-15v47q183 0 324 25v-670q0 -47 2 -78 t10.5 -53.5t16 -34t28.5 -19.5t37.5 -11t52.5 -7l33 -4v-47l-252 6zM336 1274q0 49 28 82t76 33q50 0 76.5 -32.5t26.5 -82.5q0 -52 -26.5 -84.5t-76.5 -32.5q-48 0 -76 33t-28 84z" />
<glyph unicode="&#xf0;" horiz-adv-x="1126" d="M92 451q0 201 136.5 340t334.5 139q130 0 244 -68q-89 216 -258 375l-266 -100l-17 47l240 90q-115 100 -258 164l20 45q183 -65 324 -176l248 94l18 -47l-221 -84q187 -158 292 -370t105 -415q0 -221 -135.5 -364.5t-335.5 -143.5q-197 0 -334 138.5t-137 335.5z M256 451q0 -191 75 -306.5t232 -115.5t232 115.5t75 306.5q0 94 -17.5 170t-53 135t-95.5 91t-141 32t-141 -32t-95.5 -91t-53 -135t-17.5 -170z" />
<glyph unicode="&#xf1;" horiz-adv-x="1218" d="M57 -6v47l33 4q31 4 46 6.5t35 7.5t28 14t18 22.5t13 34.5t5.5 49.5t2.5 68.5v432q0 99 -40.5 132.5t-125.5 33.5h-15v47q183 0 324 25v-166q52 76 139 127t195 51q141 0 221 -71.5t80 -201.5v-409q0 -47 2 -78t10.5 -53.5t16 -34t28.5 -19.5t37.5 -11t52.5 -7l33 -4v-47 l-252 6l-252 -6v47l33 4q36 4 52.5 7t37.5 11t28.5 19.5t16 34t10.5 53.5t2 78v409q0 102 -52.5 156.5t-149.5 54.5q-103 0 -180.5 -65.5t-108.5 -145.5v-409q0 -47 2 -78t10.5 -53.5t16 -34t28.5 -19.5t37.5 -11t52.5 -7l33 -4v-47l-252 6zM295 1155q0 25 10.5 59t30 69.5 t55.5 60t80 24.5q48 0 137 -53l76 -45q65 -39 104 -39t68 29t43 75h39q-10 -91 -57 -146.5t-109 -55.5q-50 0 -139 51l-53 33q-84 53 -125 53t-76 -37t-45 -78h-39z" />
<glyph unicode="&#xf2;" horiz-adv-x="1126" d="M92 451q0 201 136.5 340t334.5 139t334.5 -139t136.5 -340q0 -197 -137 -335.5t-334 -138.5t-334 138.5t-137 335.5zM256 451q0 -191 75 -306.5t232 -115.5t232 115.5t75 306.5q0 94 -17.5 170t-53 135t-95.5 91t-141 32t-141 -32t-95.5 -91t-53 -135t-17.5 -170z M399 1395q0 35 18.5 54t45.5 19q58 0 88 -114l80 -303h-45l-152 243q-35 58 -35 101z" />
<glyph unicode="&#xf3;" horiz-adv-x="1126" d="M92 451q0 201 136.5 340t334.5 139t334.5 -139t136.5 -340q0 -197 -137 -335.5t-334 -138.5t-334 138.5t-137 335.5zM256 451q0 -191 75 -306.5t232 -115.5t232 115.5t75 306.5q0 94 -17.5 170t-53 135t-95.5 91t-141 32t-141 -32t-95.5 -91t-53 -135t-17.5 -170z M492 1051l79 303q30 114 88 114q27 0 45.5 -19t18.5 -54q0 -43 -35 -101l-151 -243h-45z" />
<glyph unicode="&#xf4;" horiz-adv-x="1126" d="M92 451q0 201 136.5 340t334.5 139t334.5 -139t136.5 -340q0 -197 -137 -335.5t-334 -138.5t-334 138.5t-137 335.5zM256 451q0 -191 75 -306.5t232 -115.5t232 115.5t75 306.5q0 94 -17.5 170t-53 135t-95.5 91t-141 32t-141 -32t-95.5 -91t-53 -135t-17.5 -170z M348 1051l193 389h45l192 -389h-49l-160 200h-12l-160 -200h-49z" />
<glyph unicode="&#xf5;" horiz-adv-x="1126" d="M92 451q0 201 136.5 340t334.5 139t334.5 -139t136.5 -340q0 -197 -137 -335.5t-334 -138.5t-334 138.5t-137 335.5zM242 1141q0 25 10.5 59t30 69.5t55.5 60t80 24.5q46 0 137 -54l76 -45q63 -38 104 -38q39 0 68 29t43 75h39q-10 -91 -57 -147t-109 -56q-50 0 -139 51 l-54 33q-84 53 -125 53t-75.5 -36.5t-44.5 -77.5h-39zM256 451q0 -191 75 -306.5t232 -115.5t232 115.5t75 306.5q0 94 -17.5 170t-53 135t-95.5 91t-141 32t-141 -32t-95.5 -91t-53 -135t-17.5 -170z" />
<glyph unicode="&#xf6;" horiz-adv-x="1126" d="M92 451q0 201 136.5 340t334.5 139t334.5 -139t136.5 -340q0 -197 -137 -335.5t-334 -138.5t-334 138.5t-137 335.5zM256 451q0 -191 75 -306.5t232 -115.5t232 115.5t75 306.5q0 94 -17.5 170t-53 135t-95.5 91t-141 32t-141 -32t-95.5 -91t-53 -135t-17.5 -170z M260 1264q0 49 28.5 81.5t76.5 32.5q50 0 76 -32t26 -82q0 -52 -26 -84.5t-76 -32.5q-48 0 -76.5 33t-28.5 84zM649 1264q0 49 28.5 81.5t76.5 32.5q50 0 76 -32t26 -82q0 -52 -26 -84.5t-76 -32.5q-48 0 -76.5 33t-28.5 84z" />
<glyph unicode="&#xf7;" horiz-adv-x="1228" d="M160 602v82h893v-82h-893zM510 262q0 44 31 77.5t71 33.5t68 -31t25 -72q-1 -42 -32.5 -73t-70.5 -31q-38 0 -65 28t-27 68zM510 967q0 44 31 77t71 33t68 -30.5t25 -71.5q-1 -42 -32.5 -73.5t-70.5 -31.5q-38 0 -65 28.5t-27 68.5z" />
<glyph unicode="&#xf8;" horiz-adv-x="1126" d="M70 -29l145 160q-123 136 -123 320q0 201 136.5 340t334.5 139q163 0 291 -101l86 95h115l-140 -152q119 -138 119 -321q0 -197 -137 -335.5t-334 -138.5q-158 0 -284 95l-93 -101h-116zM256 451q0 -136 37 -234l502 547q-78 115 -232 115q-81 0 -141 -32t-95.5 -91 t-53 -135t-17.5 -170zM336 135q79 -106 227 -106q157 0 232 115.5t75 306.5q0 141 -34 233z" />
<glyph unicode="&#xf9;" horiz-adv-x="1169" d="M20 846v47l252 -6l72 2v-639q0 -100 51 -153.5t140 -53.5q104 0 181.5 66.5t119.5 162.5v367q0 40 -2.5 68.5t-5.5 49.5t-13 34.5t-18 22.5t-28 14t-35 7.5t-46 6.5l-33 4v47l252 -6l72 2v-662q0 -110 39 -144t131 -34v-47q-194 0 -313 -20v188q-16 -27 -43 -57 q-122 -136 -306 -136q-135 0 -210.5 68t-75.5 197v397q0 40 -2.5 68.5t-5.5 49.5t-13 34.5t-18 22.5t-28 14t-35 7.5t-46 6.5zM369 1405q0 35 18.5 54.5t44.5 19.5q57 0 88 -115l80 -303h-45l-152 244q-34 56 -34 100z" />
<glyph unicode="&#xfa;" horiz-adv-x="1169" d="M20 846v47l252 -6l72 2v-639q0 -100 51 -153.5t140 -53.5q104 0 181.5 66.5t119.5 162.5v367q0 40 -2.5 68.5t-5.5 49.5t-13 34.5t-18 22.5t-28 14t-35 7.5t-46 6.5l-33 4v47l252 -6l72 2v-662q0 -110 39 -144t131 -34v-47q-194 0 -313 -20v188q-16 -27 -43 -57 q-122 -136 -306 -136q-135 0 -210.5 68t-75.5 197v397q0 40 -2.5 68.5t-5.5 49.5t-13 34.5t-18 22.5t-28 14t-35 7.5t-46 6.5zM461 1061l80 303q31 115 88 115q26 0 44.5 -19.5t18.5 -54.5q0 -42 -35 -100l-151 -244h-45z" />
<glyph unicode="&#xfb;" horiz-adv-x="1169" d="M20 846v47l252 -6l72 2v-639q0 -100 51 -153.5t140 -53.5q104 0 181.5 66.5t119.5 162.5v367q0 40 -2.5 68.5t-5.5 49.5t-13 34.5t-18 22.5t-28 14t-35 7.5t-46 6.5l-33 4v47l252 -6l72 2v-662q0 -110 39 -144t131 -34v-47q-194 0 -313 -20v188q-16 -27 -43 -57 q-122 -136 -306 -136q-135 0 -210.5 68t-75.5 197v397q0 40 -2.5 68.5t-5.5 49.5t-13 34.5t-18 22.5t-28 14t-35 7.5t-46 6.5zM317 1061l193 389h45l193 -389h-50l-159 201h-13l-159 -201h-50z" />
<glyph unicode="&#xfc;" horiz-adv-x="1169" d="M20 846v47l252 -6l72 2v-639q0 -100 51 -153.5t140 -53.5q104 0 181.5 66.5t119.5 162.5v367q0 40 -2.5 68.5t-5.5 49.5t-13 34.5t-18 22.5t-28 14t-35 7.5t-46 6.5l-33 4v47l252 -6l72 2v-662q0 -110 39 -144t131 -34v-47q-194 0 -313 -20v188q-16 -27 -43 -57 q-122 -136 -306 -136q-135 0 -210.5 68t-75.5 197v397q0 40 -2.5 68.5t-5.5 49.5t-13 34.5t-18 22.5t-28 14t-35 7.5t-46 6.5zM229 1274q0 49 28.5 82t76.5 33q50 0 76 -32.5t26 -82.5q0 -52 -26 -84.5t-76 -32.5q-48 0 -76.5 33t-28.5 84zM618 1274q0 49 28.5 82t76.5 33 q50 0 76 -32.5t26 -82.5q0 -52 -26 -84.5t-76 -32.5q-48 0 -76.5 33t-28.5 84z" />
<glyph unicode="&#xfd;" horiz-adv-x="1071" d="M-61 -494q0 40 30 68.5t74 28.5q39 0 76 -29q42 -33 76 -33q42 0 80.5 32t78.5 116l135 291l-339 745q-13 28 -22 43.5t-23.5 33t-32.5 26.5t-43 12l-47 6v47l213 -6l206 6v-47l-28 -4q-46 -6 -66 -21t-20 -43q0 -24 22 -73l256 -562l256 551q23 54 23 80q0 30 -24 46 t-77 22l-32 4v47l196 -6l164 6v-47l-31 -4q-36 -5 -62.5 -18.5t-47 -39t-32.5 -47t-30 -61.5l-462 -1010q-27 -58 -56 -102t-68.5 -84t-91 -61t-112.5 -21q-67 0 -103 31.5t-36 76.5zM492 1065l79 303q31 115 88 115q27 0 45.5 -19.5t18.5 -54.5q0 -42 -35 -100l-151 -244 h-45z" />
<glyph unicode="&#xfe;" horiz-adv-x="1228" d="M51 -532l33 4q37 4 53 7t37.5 11t28.5 19.5t15.5 33.5t10.5 53t2 78v1571q0 54 -11.5 87t-38 48.5t-54.5 20t-76 4.5v47q149 0 324 31v-676q104 123 270 123q186 0 308 -138t122 -341q0 -131 -55 -239.5t-153.5 -171.5t-221.5 -63q-165 0 -270 123v-426q0 -47 2 -78 t10.5 -53t15.5 -33.5t28.5 -19.5t37.5 -11t53 -7l33 -4v-48l-252 7l-252 -7v48zM375 184q97 -145 270 -145q85 0 146.5 55t90.5 146.5t29 210.5q0 190 -69 309t-197 119q-167 0 -270 -148v-547z" />
<glyph unicode="&#xff;" horiz-adv-x="1071" d="M-61 -494q0 40 30 68.5t74 28.5q39 0 76 -29q42 -33 76 -33q42 0 80.5 32t78.5 116l135 291l-339 745q-13 28 -22 43.5t-23.5 33t-32.5 26.5t-43 12l-47 6v47l213 -6l206 6v-47l-28 -4q-46 -6 -66 -21t-20 -43q0 -24 22 -73l256 -562l256 551q23 54 23 80q0 30 -24 46 t-77 22l-32 4v47l196 -6l164 6v-47l-31 -4q-36 -5 -62.5 -18.5t-47 -39t-32.5 -47t-30 -61.5l-462 -1010q-27 -58 -56 -102t-68.5 -84t-91 -61t-112.5 -21q-67 0 -103 31.5t-36 76.5zM260 1278q0 49 28.5 82t76.5 33q50 0 76 -32.5t26 -82.5q0 -52 -26 -84.5t-76 -32.5 q-48 0 -76.5 33t-28.5 84zM649 1278q0 49 28.5 82t76.5 33q50 0 76 -32.5t26 -82.5q0 -52 -26 -84.5t-76 -32.5q-48 0 -76.5 33t-28.5 84z" />
<glyph unicode="&#x152;" horiz-adv-x="2068" d="M127 727q0 162 59 305t157.5 241.5t230 155t274.5 56.5q90 0 199 -31h851l5 -147l16 -189h-49q-10 66 -22 109t-34.5 76t-48 50.5t-72 28.5t-98 14t-133.5 3h-205v-606h164q67 0 103 51.5t43 195.5h51l-6 -274l6 -303h-51q0 147 -36.5 212.5t-109.5 65.5h-164v-522 q0 -86 31 -127t109 -41h188q68 0 114 5.5t85 21t63 41t42.5 69.5t28.5 101t17 141h52l-15 -246l-6 -184h-801l-174 -4q-84 -19 -164 -19q-198 0 -357.5 95.5t-251 267.5t-91.5 387zM336 727q0 -329 124 -508.5t367 -179.5q76 0 120.5 8.5t77 34t44.5 70.5t12 120v910 q0 140 -55 190.5t-178 50.5q-172 0 -288.5 -88.5t-170 -242t-53.5 -365.5z" />
<glyph unicode="&#x153;" horiz-adv-x="1755" d="M92 451q0 201 136.5 340t334.5 139q121 0 223 -55.5t166 -151.5q64 97 161.5 152t211.5 55q155 0 245.5 -100t90.5 -265q0 -39 -6 -63h-619q-2 -18 -2 -58q0 -112 34.5 -202t107 -146.5t172.5 -56.5q97 0 171 54.5t115 160.5l49 -18q-86 -259 -364 -259q-124 0 -220.5 50 t-156.5 141q-65 -88 -164 -139.5t-215 -51.5q-197 0 -334 138.5t-137 335.5zM256 451q0 -191 75 -306.5t232 -115.5t232 115.5t75 306.5q0 94 -17.5 170t-53 135t-95.5 91t-141 32t-141 -32t-95.5 -91t-53 -135t-17.5 -170zM1040 549h260q124 0 174 40t50 97q0 86 -60 139.5 t-139 53.5q-123 0 -195 -88t-90 -242z" />
<glyph unicode="&#x178;" horiz-adv-x="1355" d="M-41 1409v51l311 -6l308 6v-51l-66 -6q-113 -10 -113 -86q0 -48 45 -125l299 -520l297 520q45 80 45 127q0 74 -116 84l-60 6v51l271 -10l217 10v-51l-56 -10q-65 -12 -107 -47t-85 -111l-373 -651v-318q0 -39 1.5 -67t7 -51t9.5 -37.5t17.5 -26t22.5 -17.5t31.5 -11 t37.5 -7t49 -6l41 -4v-51l-303 6h-2l-303 -6v51l41 4q34 4 49 6t37.5 7t31.5 11t22.5 17.5t17.5 26t9.5 37.5t7 51t1.5 67v316l-358 626q-49 86 -97 126t-129 57zM477 1800q0 49 28.5 82t76.5 33q50 0 76 -32.5t26 -82.5q0 -52 -26 -84.5t-76 -32.5q-48 0 -76.5 33t-28.5 84 zM866 1800q0 49 28.5 82t76.5 33q50 0 76 -32.5t26 -82.5q0 -52 -26 -84.5t-76 -32.5q-48 0 -76.5 33t-28.5 84z" />
<glyph unicode="&#x2c6;" horiz-adv-x="634" d="M102 1065l193 389h45l192 -389h-49l-159 201h-13l-159 -201h-50z" />
<glyph unicode="&#x2dc;" horiz-adv-x="847" d="M102 1155q0 25 10.5 59t30.5 69.5t56 60t80 24.5q48 0 137 -53l76 -45q65 -39 104 -39t68 29t43 75h38q-10 -91 -56.5 -146.5t-108.5 -55.5q-51 0 -140 51l-53 33q-84 53 -125 53t-76 -37t-45 -78h-39z" />
<glyph unicode="&#x2000;" horiz-adv-x="1022" />
<glyph unicode="&#x2001;" horiz-adv-x="2044" />
<glyph unicode="&#x2002;" horiz-adv-x="1022" />
<glyph unicode="&#x2003;" horiz-adv-x="2044" />
<glyph unicode="&#x2004;" horiz-adv-x="681" />
<glyph unicode="&#x2005;" horiz-adv-x="511" />
<glyph unicode="&#x2006;" horiz-adv-x="340" />
<glyph unicode="&#x2007;" horiz-adv-x="340" />
<glyph unicode="&#x2008;" horiz-adv-x="255" />
<glyph unicode="&#x2009;" horiz-adv-x="408" />
<glyph unicode="&#x200a;" horiz-adv-x="113" />
<glyph unicode="&#x2010;" horiz-adv-x="792" d="M123 406v81h547v-81h-547z" />
<glyph unicode="&#x2011;" horiz-adv-x="792" d="M123 406v81h547v-81h-547z" />
<glyph unicode="&#x2012;" horiz-adv-x="792" d="M123 406v81h547v-81h-547z" />
<glyph unicode="&#x2013;" horiz-adv-x="1134" d="M102 401v91h930v-91h-930z" />
<glyph unicode="&#x2014;" horiz-adv-x="1505" d="M41 418v74h1423v-74h-1423z" />
<glyph unicode="&#x2018;" horiz-adv-x="440" d="M41 1139q0 114 51.5 185.5t153.5 137.5l26 -43q-87 -59 -136.5 -123.5t-49.5 -152.5q0 -41 11 -71.5t28 -22.5q4 2 4 6q0 3 -4 16t-4 23q0 29 29.5 52t66.5 23q54 0 87.5 -33t33.5 -87q0 -60 -36.5 -97t-96.5 -37q-74 0 -119 61t-45 163z" />
<glyph unicode="&#x2019;" horiz-adv-x="526" d="M106 1346q0 60 37 96.5t97 36.5q74 0 118.5 -61t44.5 -163q0 -60 -14.5 -109t-44.5 -87.5t-63 -66.5t-82 -60l-27 43q87 59 136.5 123.5t49.5 152.5q0 41 -11 72t-28 23q-4 -2 -4 -7q0 -3 4.5 -16t4.5 -23q0 -29 -30 -52t-67 -23q-54 0 -87.5 33.5t-33.5 87.5z" />
<glyph unicode="&#x201a;" horiz-adv-x="475" d="M123 115q0 58 38.5 97.5t106.5 39.5q90 0 139.5 -74t49.5 -178q0 -136 -97 -262q-70 -95 -204 -180l-29 55q268 176 268 387q0 47 -13.5 93.5t-41.5 60.5l-6 -11q20 -28 20 -67q0 -40 -27.5 -69.5t-80.5 -29.5q-52 0 -87.5 40.5t-35.5 97.5z" />
<glyph unicode="&#x201c;" horiz-adv-x="880" d="M41 1139q0 114 51.5 185.5t153.5 137.5l26 -43q-87 -59 -136.5 -123.5t-49.5 -152.5q0 -41 11 -71.5t28 -22.5q4 2 4 6q0 3 -4 16t-4 23q0 29 29.5 52t66.5 23q54 0 87.5 -33t33.5 -87q0 -60 -36.5 -97t-96.5 -37q-74 0 -119 61t-45 163zM481 1139q0 114 51.5 185.5 t153.5 137.5l27 -43q-56 -38 -93.5 -73t-65.5 -88.5t-28 -114.5q0 -41 11 -71.5t28 -22.5q4 2 4 6q0 3 -4 16t-4 23q0 29 29.5 52t66.5 23q54 0 87.5 -33t33.5 -87q0 -60 -36.5 -97t-96.5 -37q-74 0 -119 61t-45 163z" />
<glyph unicode="&#x201d;" horiz-adv-x="880" d="M123 1346q0 60 36.5 96.5t96.5 36.5q74 0 119 -61t45 -163q0 -114 -51.5 -185.5t-153.5 -137.5l-27 43q56 38 93.5 73t65.5 88.5t28 114.5q0 41 -11 72t-28 23q-4 -2 -4 -7q0 -3 4 -16t4 -23q0 -29 -29.5 -52t-66.5 -23q-54 0 -87.5 33.5t-33.5 87.5zM563 1346 q0 60 36.5 96.5t96.5 36.5q74 0 119 -61t45 -163q0 -114 -51.5 -185.5t-153.5 -137.5l-26 43q87 59 136.5 123.5t49.5 152.5q0 41 -11 72t-28 23q-4 -2 -4 -7q0 -3 4 -16t4 -23q0 -29 -29.5 -52t-66.5 -23q-54 0 -87.5 33.5t-33.5 87.5z" />
<glyph unicode="&#x201e;" horiz-adv-x="880" d="M123 98q0 60 36.5 96.5t96.5 36.5q74 0 119 -60.5t45 -162.5q0 -114 -51.5 -185.5t-153.5 -137.5l-27 43q56 38 93.5 73t65.5 88.5t28 114.5q0 41 -11 71.5t-28 22.5q-4 -2 -4 -6q0 -3 4 -16t4 -23q0 -29 -29.5 -52.5t-66.5 -23.5q-54 0 -87.5 33.5t-33.5 87.5zM563 98 q0 60 36.5 96.5t96.5 36.5q74 0 119 -60.5t45 -162.5q0 -114 -51.5 -185.5t-153.5 -137.5l-26 43q87 59 136.5 123.5t49.5 152.5q0 41 -11 71.5t-28 22.5q-4 -2 -4 -6q0 -3 4 -16t4 -23q0 -29 -29.5 -52.5t-66.5 -23.5q-54 0 -87.5 33.5t-33.5 87.5z" />
<glyph unicode="&#x2022;" horiz-adv-x="604" d="M123 725q0 72 52 124t130 52q74 0 125 -52t51 -124q0 -76 -51 -129t-125 -53q-78 0 -130 53t-52 129z" />
<glyph unicode="&#x2026;" horiz-adv-x="1763" d="M123 109q0 52 37.5 89.5t93.5 37.5q53 0 90 -37.5t37 -89.5q0 -54 -36.5 -93t-90.5 -39q-56 0 -93.5 38.5t-37.5 93.5zM754 109q0 52 37.5 89.5t93.5 37.5q53 0 90 -37.5t37 -89.5q0 -54 -36.5 -93t-90.5 -39q-56 0 -93.5 38.5t-37.5 93.5zM1382 109q0 52 37.5 89.5 t93.5 37.5q53 0 90 -37.5t37 -89.5q0 -54 -36.5 -93t-90.5 -39q-56 0 -93.5 38.5t-37.5 93.5z" />
<glyph unicode="&#x202f;" horiz-adv-x="408" />
<glyph unicode="&#x2039;" horiz-adv-x="538" d="M102 446q0 139 74.5 239t208.5 132l21 -61q-99 -28 -145 -110.5t-46 -199.5t46 -199t145 -110l-21 -61q-134 32 -208.5 132t-74.5 238z" />
<glyph unicode="&#x203a;" horiz-adv-x="538" d="M133 137q99 28 145 110t46 199t-46 199.5t-145 110.5l21 61q134 -32 208 -132t74 -239q0 -138 -74 -238t-208 -132z" />
<glyph unicode="&#x205f;" horiz-adv-x="511" />
<glyph unicode="&#x20ac;" horiz-adv-x="1665" d="M127 772l41 66h188q22 180 108 326t227 232.5t310 86.5q74 0 144.5 -16.5t112.5 -37t76.5 -37t45.5 -16.5q24 0 41 19t21 59h51l-4 -240l6 -239h-51q-27 202 -148 324t-282 122q-206 0 -312.5 -142t-134.5 -441h721l-28 -66h-699q0 -7 -1 -22.5t-1 -22.5q0 -67 6 -131 h641l-28 -66h-607q15 -111 48 -198.5t87 -154t134 -102.5t182 -36q323 0 436 416l64 -13q-12 -46 -23 -81.5t-33.5 -86.5t-48.5 -89t-67.5 -79t-91 -67.5t-119 -44t-150.5 -17.5q-254 0 -414 151t-206 402h-201l41 66h149q-8 57 -8 131q0 31 2 45h-225z" />
<glyph unicode="&#x2122;" horiz-adv-x="2088" d="M102 1245l27 129l12 84l322 -4h106l324 4l12 -84l29 -129l-27 -6q-24 50 -36.5 73.5t-33.5 49.5t-46 35.5t-60 9.5h-149v-555q0 -60 19.5 -74t92.5 -20l25 -2v-47l-199 4l-207 -4v47l25 2q75 6 95 20t20 74v555h-144q-66 0 -95 -27t-75 -113q-9 -17 -14 -26zM965 709v47 l22 2q56 5 72 19.5t16 74.5v463q0 52 -8.5 75t-24 30t-55.5 10l-22 2v26l161 -4h86l250 -555l271 555h67l187 4v-26l-23 -2q-34 -3 -49 -6t-27.5 -15t-16 -33t-3.5 -61v-463q0 -60 17 -74.5t79 -19.5l23 -2v-47l-195 4l-168 -4v47l23 2q62 5 79 19.5t17 74.5v500l-313 -639 h-23l-279 635v-496q0 -60 15 -74.5t71 -19.5l23 -2v-47l-137 4z" />
<glyph unicode="&#x25fc;" horiz-adv-x="890" d="M0 0v891h891v-891h-891z" />
</font>
</defs>
</svg>
